<mxfile host="Electron" agent="Mozilla/5.0 (Windows NT 10.0; Win64; x64) AppleWebKit/537.36 (KHTML, like Gecko) draw.io/26.0.3 Chrome/130.0.6723.137 Electron/33.2.1 Safari/537.36" version="26.0.3" pages="2">
  <diagram name="第 1 页" id="CgQDE-t4W-GCqf_vcu6I">
    <mxGraphModel dx="1948" dy="953" grid="0" gridSize="10" guides="1" tooltips="1" connect="1" arrows="1" fold="1" page="0" pageScale="1" pageWidth="1000" pageHeight="1000" math="0" shadow="0">
      <root>
        <mxCell id="0" />
        <mxCell id="1" parent="0" />
        <mxCell id="4sS2UoN6tuE5vPNdZj_S-1" value="" style="whiteSpace=wrap;html=1;aspect=fixed;" vertex="1" parent="1">
          <mxGeometry x="-57" y="114" width="80" height="80" as="geometry" />
        </mxCell>
        <mxCell id="4sS2UoN6tuE5vPNdZj_S-2" value="" style="whiteSpace=wrap;html=1;aspect=fixed;" vertex="1" parent="1">
          <mxGeometry x="23" y="114" width="80" height="80" as="geometry" />
        </mxCell>
        <mxCell id="4sS2UoN6tuE5vPNdZj_S-3" value="" style="whiteSpace=wrap;html=1;aspect=fixed;" vertex="1" parent="1">
          <mxGeometry x="103" y="114" width="80" height="80" as="geometry" />
        </mxCell>
        <mxCell id="4sS2UoN6tuE5vPNdZj_S-5" value="" style="whiteSpace=wrap;html=1;aspect=fixed;" vertex="1" parent="1">
          <mxGeometry x="-57" y="194" width="80" height="80" as="geometry" />
        </mxCell>
        <mxCell id="4sS2UoN6tuE5vPNdZj_S-6" value="" style="whiteSpace=wrap;html=1;aspect=fixed;" vertex="1" parent="1">
          <mxGeometry x="23" y="194" width="80" height="80" as="geometry" />
        </mxCell>
        <mxCell id="4sS2UoN6tuE5vPNdZj_S-7" value="" style="whiteSpace=wrap;html=1;aspect=fixed;" vertex="1" parent="1">
          <mxGeometry x="103" y="194" width="80" height="80" as="geometry" />
        </mxCell>
        <mxCell id="4sS2UoN6tuE5vPNdZj_S-8" value="" style="whiteSpace=wrap;html=1;aspect=fixed;" vertex="1" parent="1">
          <mxGeometry x="-57" y="274" width="80" height="80" as="geometry" />
        </mxCell>
        <mxCell id="4sS2UoN6tuE5vPNdZj_S-9" value="" style="whiteSpace=wrap;html=1;aspect=fixed;" vertex="1" parent="1">
          <mxGeometry x="23" y="274" width="80" height="80" as="geometry" />
        </mxCell>
        <mxCell id="4sS2UoN6tuE5vPNdZj_S-10" value="" style="whiteSpace=wrap;html=1;aspect=fixed;" vertex="1" parent="1">
          <mxGeometry x="103" y="274" width="80" height="80" as="geometry" />
        </mxCell>
        <mxCell id="4sS2UoN6tuE5vPNdZj_S-11" value="" style="endArrow=none;dashed=1;html=1;dashPattern=1 3;strokeWidth=2;rounded=0;fontSize=12;startSize=8;endSize=8;curved=1;" edge="1" parent="1">
          <mxGeometry width="50" height="50" relative="1" as="geometry">
            <mxPoint x="-71" y="103" as="sourcePoint" />
            <mxPoint x="206" y="376.2666829427083" as="targetPoint" />
          </mxGeometry>
        </mxCell>
        <mxCell id="4sS2UoN6tuE5vPNdZj_S-12" value="" style="shape=stencil(zZ3HDhzXEUW/htvGy2Ht8B8CRJmEZVGg6PT3rjLRE27NnLYXBrxjqJp+scKt8D7U3/326YdfP34o6bdvX7/8+ePfP//47dOH+vsPpXz+5dPHr5+/2Z8+1D98qL/76cvXj3/6+uWvv/z4/e+//uCU/qe/fPmb/8I/vvOlIw1nKumf3/+hH638+x/++J3858+/PJG3JeR1vSfPR9ZfL/U9eTn/9yRvx+7vyesxl5B3GHs/1vOv12PP9+TrqEPI64ap5qOWJ/pyrAz07RhJ6AtMNq8jPQ8/HxPo7b+b0lcYjy3e6E/06dgD6OfRh9BP+P2ajpyFvsPv13LUJvSNDkM7io6H9qv2Y1elp9+f58V4oIfTVtcxt9LD+jRbnyT0Bcbfwv4mPD+tHFPXM9PvtyPpecgw32aCQ8efYH/bOK/HAz39/jq354E+wW1/cd4SrH8v5+cf6EFW9ab3kefbRxwPrWdf538/0IOoHS/mS+dh2Hz1PFSY76jHCveR6O086PnvDejHKW7u9IPmu46i41lwHsY+NdWDfIPxzKT3PR8J7svMp3i609P6z6Ly036AxlPP6d3pB9H3I0+hX0Q/jv68PgXP/5zH3kJPun3a+qu+I0tj2XFR+gG/v2w5stAvUu+2/s/jr0eG/Vr1aGoPNPp900dF6Gn9jV7uVzsP+Gt6u19Z6AeNx/Td83g6yp81zuN4px9wv4x+P9OPI9F4pt5HO4C0v/OYQ+g30S+1bOdRQJ4Yfc1Cj/Nd53Dv9CRPjH4+y4d1NZ69hB73dx/lefz7NCje0Yu82miPGf0QeZJ4g/exljJ0kKA7+CJmU9MU9k3DPTCQjDAGOdO5oFI1hhEYyOo2hiVzqGhW7ptWeWAgu3tnPafmSeCyZj2ouaNkMYYZGDaICmMQUzoP3oeitk2epzR7xyDKw9yhQqtUVFrnferDdwz9+Xi7vcVzEH+pXJxWOzmi0ApqnB0sdndBaeNM48mQ2jFp46r6HCZUyWkyhv68cS7FaFnNSn4WAuYHXjAMYSh8WrvageYJkqFmDLKs5gpOEgLjKM+rZL4grtJQqWHOIN7pqb6WeYOd7sMMyr+gMDYGmXSr5/l9zbDUPWiM3eybOrsxDF7WpQaeu3j8BblAbV99YT3f6W5XlM7SVh/QvMJGd3qrkd0rb9zWVTI/stEc9nnUbgydhcBWv+vueb5jEMPfGMhy3sES6BNdNWMQ08ecW1RZW6G6vk/r/h3Dfj4a5g6jnt4nsnhjyKe99ZZBzNWKgiynGz5x42injnn7ieedGzfI8j8d00QMwhnERr9Qo7YRMqSNXqozPH/B/OhBKmirWT/ZT/XTJwyVFfUOhno7r8jbKydfuLB/tsLc5hwTNmiCaT/foLn4fJvoE4ZL0SfosvnTkya91DR2h5q/IJLMPWrauKUAlbvUJFyn3lHzkQlCdSX3vErm9Fb+gog+82LJKdvBaTW3lFAeY8iyrAthV7MdxGsyPyqxdSKG67rJkbfmjDh+6ZSe7wwmQQ7cQyCp0RVaceua5tD1LJmhiaZAU7DQDU26cSG64f/CX6jPUsMHSatUVXq7ockMQ74w2BmtGuFwQ5N9GtGK9+P41gnKyoCKuqgD4XYjXdGs0tsYKIK4s14gl4W002Y5y05vBDJXsB1cAcAcHGkJDCT5VrB0Xesx1iVq1/Uqg2niD7iqJzRnql/2YK+8w/fimEjOGMMMG0HhXGNQsbExhGoMEnLdFxhWf7HVmRlUCrDlupraxq7FaFmr2nB+R2mrX0kBwk5cLcsqdXT9TPFLXN2E4aJVyhoKc2lMc0gK57i8h0tt1o6YMw6/wKTNntKdznj4jCEvZSAVZCaeGEwmeUjezxFEX0LNblZnNAUo5OAhH2GwZaBVaiorjYFMshmCnmvyslaNchkDwfwzQFLGQHGKGXA4EwuDAnXlNMAejT443uaQzOcLZGKBQo3GUAID2aHuI4kN1/gLSVHj1XAO5rb1YHyTGjXHUIw+FzwUX12ar2GCBwO4U8XMKmgaj6mGq0sqDinrFzLugzGI52eSii6QMaTgZpEGGj2c1nTGbd4xaFiKTYHRgm+5EZIyhhG+QEC2MUikyb1XSjWomgrj0pbmYNpA5jD5tJYw6YnZM8YgCmXe7Jt3DHKnPWBOq5QVfJyMwxmD6OnZ+XiH7DpjqHT40rHkCw2txJE0x2hyit0ImNddY7xk6BGcYQC1b9VAJs9pDj3GaQvaSz0k2jkiRV+Yp/X/wEDWjDGkAJKRodtHmENCQWYMAmSbAiCF0rvqh8FOUG8BrFz8haapo64xaJWq+vimABaIGWPQL3CcxhiSTHog0NeLOnJjIBzac0BoO2YtGINk0bkCAFHZk2JeJp4J+e5JY6+D42Vtq6Fr4pkyd9pStWvCk7BHY8hdGUgptql2q8lCQkJaSC5z4Qn7YAy6DwnTQVpX4Hsk1KItuJYe46BlberS9M2r1FShmGijC2QMAmy48ITj3WoY0uIk1BpiTRMNLGMQW8OlLa1S0cPXOSZiDCXEy/ALOUSz+E63mAXP7kBL6jR1zu2qW493v2XvvmMQQ7ff0tteMyzN1u0FcQ1j0GUtaJzUqUaiyUI6rR6Er8pAorKOEA5m4LuOEHtNKPlq8NhNeJJCMQZBsNrmrPWmuTmN1a4xiLg3Borj15Di0Ti6W4uGaYyB8lpqCckLN2jkNUPWvBZjwC9kxZdM2uIXkt7p1hGL9ywW+UJD9KeEoHlrKL09fU92umKBRQmGrjEQ2l+m3geThYTNGIMIMhNt5DSVoEWNASfdTxV4Y0g8pKZHo26MmZemyIkxEL7kOVeS97sw8b0EQKre4pKvGbJKb2Mg48Qzy2UOnDtbki5r7Sj5ckgUMAasTtovsrAo2SEvdZpM8BCukadqIGMg7N4YdKcLGut5qFyqjC/lrsLYGMjWMIaYDUd4a27qgJeN1n2u6g5cpAEbg+gHkyNkCeTgA7kcgcOXQ3aoZ2IzgwTZy8BSh5xU7RoDTjqpYjfBQ7DdPo3UB3oKlgWXycQOLeoKtRSVo0Yq6gtnGS+9Cl4cQcUgqqyMHoMhGr/3YhMCx9RvcJFGUFeYb8ITMRTivyoWUy2SL9APvQOZw4JdFWeeKOyaAnWZTaqmOX8uy8jp0UCRSSYCoKoGAzyFHOm1VqCxDRlqpxoGG2pI/K+YkVIVcMscbyzqzGcuJiqqXzNjjMECvgvJN/Ryno2eIoFZ5UnOCMNm1a0mISk7JquJY/R0f3PIK0G7Mat43ife84ZcpA/jIjnE/9gWCgFJjDxnRV45qTmFHDcE40J5CUOiKQRecOxJ7RnGT9MZZ72T06UNQc6JKVtJw+W3zLh35Fp+RhriBTlFc16QUxL2C3Iy6AN5R1As6e3riA6Fhewom16Qk+oJ5CzpX5GD4A5npl3t6lZyPGIzlFDy9dAKTYKEk2Y2X/66drO4GHuYKq6MVA8zoviKnMWSklO49sXYyc8KIQ6OcLzYJrINkmZ3XJKHqfL10F3lqYbzzgsZbxML7EDOguP/6vJpb5iLy9f/u18PU/3fXj48YiusDIrU/5ZcYjYX8l2B/wvtIZ7LlW4K5Kz5pC7oSq8GcrbFAjnbBDL2K4sjkJNLEXM10IMNY+cs0hd2JAVnkuIfE/P5U8jG4VZIWve9MHiVFRhfGE3LGkFcDExq6GBh8scLVwVByZAJjkcsq1+5EbbJanFk7vGTg1ufcG1Ctr/RU9FcrNrOF25xD24x2fwlFKoXhMFCpCpzj66qeQm5YpZlCBU4LIEwhraAaRixCeBuZjXV1BfNHU9n07iCI9wIO0kSXR4IZ7fQJ2Cit9vPCstH2AxhOR3PwrhID+dhc8+ksD4bYZuhFT6F79fU7DmXdUgvaZIuASjfW+VD4dr6kBNfuPvFUnFVuEZ2n1UCD/S0vyFZ0E4URfxDQa2fQFJE6UTVbgydcbakoTvvekNfyOELg7GtojlqhYODOfQ1KpOjWFVD2a5QadI1tJnYPOmmct2j4TTpgJdXzne8w9cPDJQV6oJKgoOZhzS10r+yrsmhhqtWDg6G21Mrxo09RiEMDU/rvcPejYFt/+jsVq58KFklUh1XwXJB5ustOfYdg8ZcJ3oYHlsQBkZkPTgic9gIVEa1Vrm8r/SAIXAvPc+jEPc0Yy65I7FNGSgF89686sbAwfI7Cn5jqGi1l9CfyjuQ0LKGrhGtYaaG5+QsZSCMoAanqXWsyKohMt04blxD7LsNFAKeorCVAb9QNVu9TU79q2okNXbmasgK9XxdslJbACQWt4YNrUPbxuoNz14ZykA5CC6FJCuUu10ag5iGnVP0Y3vYnrGVQA3ZV52r6utS2doLWleesxlSMDFXMKQt9IqwgImtFBioHLDFSEfDw9eyCrLOkWfPSKvKQEfD5Jzc6c4qyxgEOzEGaiTtOcyyD5O/UEMIZp5o0DsGKTPoi/MFWmhDtLC7cguunjHQafVsdfnCRpXVQj9Lrw2iSYe2FIOTPFrQoiMh+tJCnc7gMLpnyhZlIIfvnot7Yyi8SksPn1eycfWG+EyDW2v0kNnq9SHcaFncgcHwtte4hKIYEpXemnkoA+FgvWiZgVd2cumQJEgZA0mNHqCbwQWHnpDflAHrdFr4wjpLEF8zdPWmB6vdHtq0DE6c6EPxP2MgfMsYtLQ0YYpAn5qNOLmrfA83zouvaeNCW20v76YCq+CWzcJ1azt8gZOH7nU/NwYusBqh+tsYqPfsSOqAz8bNu5Mm6BkDVh0HPT07GidesJWUAVP6slpkc6BbNgL6PBmdHEVjtV4TTAw1tBjmDJgRekgbA+VZedN1GdJCD2UECNcYsCC9hSQeBnNM9EqvSmPA09o1RHLRu2yEtOrFrfLHUMlnDJT+OEJv65XQwHJtICEqLmQYoThpcbv2e23rjaEgNm7CXeylxU22RkgyXpXr/ENjyMUeu8lqQU5Ww3jDDFH6xVU0M0bn2B2YWaPdi7tyzaIxhzV4DgGQ8v4j9IUaVokT4WZoFLbYfzBZHXuoUJrgbKqBFsdUZw+tOLgMbYZQy9oIMpvo1WXd6GXNGdocccXuXKGREpsOM3Rk31yh6F2LhKFgcwPvixT64NGQVtaeirtiRHaFrhS7ofmzQqMM7+7H7yTIOy17cDu1ptLb2yHzywoSxjIGOnyrKzbj3S5plXro5bcRVFuhdGhzn1SXEUsZKGtnhZIJb45GQ5phWS97yGkqA2cbrIBgbS5O8uZSgYGyslZorLrZ1vA3BwIDttsMr4xsbpnl/fqXMmDr1hy62vHDDzs8ROQt5GDSu4TjPbkJdVGAdl/0DQ4qaw/uC1m1um9zRdYOnQS8SR335yxFGbANcOh1ti/aMbdwli5eZggv7uyL8HdXIGRzAe4OYc7NAX9f9dCkjqTGHuqhLG7aaAwzMFAAz4+aKPaFBpYxiJ72nrt0H6aKmYsGb8agTbkYkNpTQebVmGGFPmGVMxeWSr57G8d3DBIMXhzQvqvABx+ILAGXc+K8srjfS12aedn2XfsiTe7fHKqOJ9c1u/qIQAi3fdfeThV9UddooRnURT9zyT/3boDc6147/mx0B1yNP3/hP+j6HsDNi77yYglcd64XXOO6N75+4UK2hicErhv8a9eixF2uw8ZdNPCJR6Mv9FD2VpXVJ7eU3ir5One12zvEFDmj2m+cMHR+3yi+kNEw6HK3tG8M9UryaRMiLr7c4SWunlkDLQVCGndTu/e0vjEsXqWlq9QYerybhDcGbtCwp4IIHmW8aHUvQfnCJtwIuQ4JPcUdqrrruupcrx0dGAi525A3ho44392GvDG0S6tSMtUKWwJVc+MvUtuMQVTWRb67d30P3RAuHtcSqKU0zF/aodz5+mEqfVuy8I0rIdMzs9otWkHuz3fx41rSrjZfeIol1MwvjPjtkLmZJ7+dkkPV/0V//1AekDsb6zm8aXph6GYNBueLZxOSHj5jwAcBAgScL14FSeE5O85q2Ukt41zYf0jqNGV+CmWFx4T84UICQoIJl7mfxdqhUoBfp3N0VRw/fj11ByCRu9Cv0Jsck4zXCi4WZhatpVmb/K7EWqE9L2/ZjCVKOJ4ZYoOI2a+gPQfahisEmAav/wiGG1qGK3Q46XgHVtfzcwETt1i9jA1pYpItvw1RVXJVfp01vK7M7sIKKF3hxy2Ses8FnYUZ3n3jx5JmOJ/cPXGGV4BYwc4eSps4uhJaeHPWxCzqN3Mi1Ayv2Wd8FmYmTRm9iMeGhpcZYwwjJGYlrvQJ+aKcLvrqdXRS9Z4IoOPBsH6Jr9NjRPzF6/HYdvjF6/TYMCmkDvHr9D08NMGVjD2A5mz+9RfzpZzmu//2QM/9g1f4fcqvDCnQPN/W1EvmBjwtvCXL+9XCfUx4H1uK+0s+h3l6U88/eXJ3R++BnrLcuzqjCXE+T3KfQk+gw73454Ge+4WG+0Jpm15greMhFPHeUeBBvtHv5/ASNvdGXHreMndrDBkFBc+P9/yTjnn8mroCLIwRdbWuuOV5fdFRAcuKJUDBVSSh/xR3eA8Ryo5TTRr27ah4w5vrl+TaqYjUUFIpzrkDoT6to5GU1MHuGD0Lb1N0jJK+IKdXQ1+RY4uEMHbSzy9WhsTfi3Un6fpiVy/IQ0MpPpFMbn/49Ydvn77/5afPP//827evX/788fH/f/ry9eOfvn756y8/3v7pt08//PrR/vYv);lineShape=1;strokeColor=default;" vertex="1" parent="1">
          <mxGeometry x="-55.25525205292331" y="95.33258795218103" width="280.5899637574442" height="259.62743617178336" as="geometry" />
        </mxCell>
        <mxCell id="4sS2UoN6tuE5vPNdZj_S-17" style="edgeStyle=none;curved=1;rounded=0;orthogonalLoop=1;jettySize=auto;html=1;fontSize=12;startSize=8;endSize=8;entryX=0.5;entryY=0;entryDx=0;entryDy=0;" edge="1" parent="1" source="4sS2UoN6tuE5vPNdZj_S-13" target="4sS2UoN6tuE5vPNdZj_S-2">
          <mxGeometry relative="1" as="geometry">
            <mxPoint x="63.86663818359375" y="154.39999389648438" as="targetPoint" />
          </mxGeometry>
        </mxCell>
        <mxCell id="4sS2UoN6tuE5vPNdZj_S-13" value="极昼" style="text;html=1;align=center;verticalAlign=middle;whiteSpace=wrap;rounded=0;fontSize=16;" vertex="1" parent="1">
          <mxGeometry x="174.15" y="57" width="60" height="30" as="geometry" />
        </mxCell>
        <mxCell id="4sS2UoN6tuE5vPNdZj_S-14" value="" style="shape=stencil(lZbdUttADIWfxrdnpNX+XlN4D2YIjYc0YUKg5e3R1mOIlkSd3vnv88pHR8c7yc3L9v55MwV6OR0PT5vf88NpO8mPKYR5v90c55MeTXI7yc3j4bj5eTy87h+W8+f7/mQ/+nV462/4s3CNUEKnAr0vV2JCan+v3C3Abt6fAxmlGCAJWnWAhsoGyIKaXSCJAUoEeyUltGyAqis4QG2IFmiMFh1AVbIltYLE14FCyFYlJgLRdSITJNolGtiRKRGq7ZzqQE4jooBtI2oFO4BUkAVK84EMsrrmBhIHKGMjUkV1VIphXCGqW5zO6W1pFggITklaQK4G0CKzs0KuaMkCGSE53lARrZlU6OB8dG+TXUFbGfyBoGFG6V8zykPjCLFcB87c/OkNWoPh8hI6MBbQofJa3UdysGtbX3FZJh36YUg1GJySeqzYkr6i53KrBeXbjFYnBjQa6wBofHozmhCHoVZZHTN1QP4HkDima09Dx0whrm7+BBKyE0yc1rQ+i43ofHRBtW4tDHHaEMYwzrym7cXn1ar2AxKvKXLteWuLSODg1ZNsYgRfUc0TWz831xQcR4GYkZweBxmBBHEmRz0x/Bm0AY6garpBofHfpgdfO47HebdbNizn98cdil5adjdy+wE=);lineShape=1;strokeColor=default;" vertex="1" parent="1">
          <mxGeometry x="234.15441753887103" y="109.48514538479975" width="0.8382075800792942" height="0.8407789205349067" as="geometry" />
        </mxCell>
        <mxCell id="4sS2UoN6tuE5vPNdZj_S-15" value="" style="shape=stencil(lZbdUttADIWfxrdnpNX+XlN4D2YIjYc0YUKg5e3R1mOIlkSd3vnv88pHR8c7yc3L9v55MwV6OR0PT5vf88NpO8mPKYR5v90c55MeTXI7yc3j4bj5eTy87h+W8+f7/mQ/+nV462/4s3CNUEKnAr0vV2JCan+v3C3Abt6fAxmlGCAJWnWAhsoGyIKaXSCJAUoEeyUltGyAqis4QG2IFmiMFh1AVbIltYLE14FCyFYlJgLRdSITJNolGtiRKRGq7ZzqQE4jooBtI2oFO4BUkAVK84EMsrrmBhIHKGMjUkV1VIphXCGqW5zO6W1pFggITklaQK4G0CKzs0KuaMkCGSE53lARrZlU6OB8dG+TXUFbGfyBoGFG6V8zykPjCLFcB87c/OkNWoPh8hI6MBbQofJa3UdysGtbX3FZJh36YUg1GJySeqzYkr6i53KrBeXbjFYnBjQa6wBofHozmhCHoVZZHTN1QP4HkDima09Dx0whrm7+BBKyE0yc1rQ+i43ofHRBtW4tDHHaEMYwzrym7cXn1ar2AxKvKXLteWuLSODg1ZNsYgRfUc0TWz831xQcR4GYkZweBxmBBHEmRz0x/Bm0AY6garpBofHfpgdfO47HebdbNizn98cdil5adjdy+wE=);lineShape=1;strokeColor=default;" vertex="1" parent="1">
          <mxGeometry x="234.15441753887103" y="109.48514538479975" width="0.8382075800792942" height="0.8407789205349067" as="geometry" />
        </mxCell>
        <mxCell id="4sS2UoN6tuE5vPNdZj_S-19" style="edgeStyle=none;curved=1;rounded=0;orthogonalLoop=1;jettySize=auto;html=1;fontSize=12;startSize=8;endSize=8;entryX=0.5;entryY=1;entryDx=0;entryDy=0;" edge="1" parent="1" source="4sS2UoN6tuE5vPNdZj_S-18" target="4sS2UoN6tuE5vPNdZj_S-8">
          <mxGeometry relative="1" as="geometry">
            <mxPoint x="-4.13330078125" y="309.3333536783854" as="targetPoint" />
          </mxGeometry>
        </mxCell>
        <mxCell id="4sS2UoN6tuE5vPNdZj_S-18" value="极夜" style="text;html=1;align=center;verticalAlign=middle;resizable=0;points=[];autosize=1;strokeColor=none;fillColor=none;fontSize=16;" vertex="1" parent="1">
          <mxGeometry x="-113.5" y="375.5" width="50" height="31" as="geometry" />
        </mxCell>
        <mxCell id="4sS2UoN6tuE5vPNdZj_S-20" value="&lt;font style=&quot;font-size: 9px;&quot;&gt;地图块 Y轴(纬度) 越大 日落的偏移系数越大&lt;/font&gt;&lt;div&gt;&lt;font size=&quot;1&quot;&gt;&lt;br&gt;&lt;/font&gt;&lt;div&gt;&lt;font style=&quot;font-size: 9px;&quot;&gt;(地块日落时间=&lt;/font&gt;&lt;span style=&quot;font-size: 9px; background-color: transparent; color: light-dark(rgb(0, 0, 0), rgb(255, 255, 255));&quot;&gt;1080 + (y轴坐标/星球半径*星球倾斜角系数*太阳直射点))&lt;/span&gt;&lt;/div&gt;&lt;/div&gt;&lt;div&gt;&lt;span style=&quot;background-color: transparent;&quot;&gt;&lt;div style=&quot;&quot;&gt;&lt;font size=&quot;1&quot;&gt;地块日出时间 = 360 - (y轴坐标 / 星球半径 × 星球倾斜角系数 × 太阳直射点)&lt;/font&gt;&lt;/div&gt;&lt;div style=&quot;color: light-dark(rgb(0, 0, 0), rgb(255, 255, 255)); font-size: 9px;&quot;&gt;&lt;br&gt;&lt;/div&gt;&lt;/span&gt;&lt;/div&gt;" style="rounded=0;whiteSpace=wrap;html=1;" vertex="1" parent="1">
          <mxGeometry x="274" y="53" width="210" height="131" as="geometry" />
        </mxCell>
        <mxCell id="4sS2UoN6tuE5vPNdZj_S-21" value="" style="shape=stencil(lZ3dsiS3jYSfZm4riv/ktXf9HorQyDNhrUYxknftt19ytdV9OrP6o3Vnj4A+VUUSBBIJ4FP6y29ffvj186d4/vb7929///w/X3/8/cun9B+fYvz6y5fP37/+Pv/Xp/Sfn9Jffvr2/fPfvn/7xy8//vH/f/1hSa7/9V/f/nv9wj//0DuP81xK8fzXH/8wxtHL//3LX/+Q//nrL6/ySeVzJPkQXuX7UVE+1lf5duRA8rm8ypej4fPX/CqfjtZJvo1X+XBU/P3+Kt/H9YRv5Mfr8/R2JHzf8fq+vRxpoPzrevV0VPz9Lr8frjd6931Efq4grm99lW/9KPj75XU/tHbtqHfyr/utlaNn3D/9VT4fraJ8e5VPR28oX1U+pD8jH683+jflwzH4eZrKZ36e1/3c5g7h759VntervtqfOo6E57G+Pn/t14l+tz9fn6e2zX7uQeX5+YfI1yPA84TjlOfJ1y+8kf//0/SQT0cCexJ0vSqv7zzdr/ahjCPC88cjvr5vqXhfRLW3JaM9T8f5up9LPE74/aT2P49jnCTfX/db7teK3Mrn43z9nrleX/iNfHpdr1zQHmZdr5yPAO+bj/q6XjldK/JGXuxzjkcC+5CP/vr9c0D7PHfvq/3M88TB75cjvH6fNP0NOO9F/YHUcX3Ltdsf8vO8w/cvan9SPRrKt1f7kwp+n6L3b8pHgfNYj1N+P+F+q0eU348b+fS639JcX/ie9Xq7h/y8EeC8VLWfcVwn4la+Xaf7Id+PAPdvO+Lr86xfgO/Zrq/9kC9ob5vah3Ui4Pt03c+R/auu/smyqLD/525/3f/rhoLv8/DGL/kw0P4P9fdCx/sunHohhXoM2HDBPLKpsPkL7fWVwzzUsARTYbyemZDR5wvh2mIfFMgoToX0eouFhF7WVJBtNxXITEwFsdNTIdJLh+urPxQiBj7zP4slff7LO4UijxQuZ+qdQs+qQHfffMXwetiea/9OISVVwIVLtg6PgPedQnvd3uOo/ERD5RPJZ33lcZxw/Kd8lPgKj//ayBJ/HpV/X+KBjuHGlC9d5BPtiel/nCIfaMGy7qHG1qUcp8R7aK6nfJB47yj0PA/T85SPLC/+br02yDt52T8V3YNpO8X/rvw963W7P/zpy+F/Jy92qFwB3Tt5uZ8KwhehXY/7lMfLoF3n++FfXg7VO3nx5zLbrGb+Lu//fnnnT3k0ov3ylp7y5K5MebE/idfL/IN0Bcj38kOvvsTrO65o8ylP7t+UL/r7GK6Oyzt/ypM7tPBEfR66JhceofIUnq/4XPzpKwB8Jy/nPWE4GaPu5ykP9mG9nv0+ydt9sXmeeVxP/T70+1Xj24T7f5lL3Q8Z9ue8Hk6Vp3As3pwXcszmdRvVnuDzz+tf4vNrg9/DC6fiO2yvprx4NAXv0ykv8VjB+27Ky/mq14Lfywf9/gzvTPmk9yOFnyvaFLz72rDv5NvrfT3w/Kao8eR0+CienArqUobrX94pVPOjaYumx4n9EG2QjVsRv0VMJ2FmSYPuda3RV8qX0fwQJRKKOhXkWl1AI7101phsGRZa6Iff8CHwpnhmKtTXz7qwEHqHolDt3KuNzkLVUHdtPlq4apfNibd3qur9zd2Fj9TMXGeE26aC4OXrb/JfkLgyPVyMe4VuFvVERG8qSMolR4RMpoK8Q84XCvROQZ26ilFfGnrrZw4jpoLAbnkcjd5h6JkugS+SccUlD4XE23topFUyuoILeJVH4lTZVJDdurB/wpLtMiztSne+UxDvtAx0v6aCnId6YvyRT/XH6wbfPjXgrRHP9MK/JUJLGMLmU1MwtVwg8DsFyQHXyl/JL/WGqMNUkPuhPvyydwriFtbB7xB0Hdq5eySxrS3s/oJmmiOGXlNBcMepQKnCqSBmpqXLW3ynIJdiy5xMitc3eShweJ0tPdcqp5+ixncrv05HNCqgMBUGLVzUjFXreLFPBUnZtoEx51RQzsJmL0UjUZzowmXLSvaAMN9UCEMV0AgkPUA94v2QLfHZE7900si8c+g/FaopUCwzFWThesZgZipIcNKZfJENbe2b7GpW33sqkIO1sq+iUDkfm9UTmAqEKOasuYSpgAco20pzjDUVJEbsnc/0/OpJFciFmwpdUOCBrK5cjDZ2ogs3FQTnmQrkka00+6ttHZx8mAqpqwIuXNFU/QiIxWfLLY+IYO1UENdhKmRah6Kuw1SgbPdUELhwPCzVvULV8zAVKhmBqh7ZyIgoZUOoR979BXF0R0FK1VSQ3ToY1M6WlJ4K6Og2jRRHRdRhKkhaYSpQjnMqVPsLlJhaAUxXBcpE5K5X1mj8Dl0jlKlA1K1sUdZUKGRbDUyeCpTNKue1ET4o0IUyFdqfUwgKFy0F+KxTQdfhkaK4VzCEeH1WYphEg8gaXlkl2VeqzMFJSjKcCuScTAVlzVY0MzNU1UcqvA7ZrAZ7AlNBiLnLzIArPYPhKAoJD9BUEJhiMOQ1o2c9DxGhx2LknXkD0f0wFcQjm7covnRTutu82Bs9UjPnpDPfygg2vfHm65qxnf4SXbulm/tTMAe4MAbzW/GzDo1Fl+8NK12NBd/Z16hGc+1Mo60Wsa8oi/5C0L8w4zjaGjXqOzRmQk6F8nplreCVHikqF36Gx+S3LiqskJOZAzMVuoEIlM6v2fClwX8haz6qdnR0F9Yj+FLFKKua3zr/hVCH6pQEznHXh7PzAcEiDt+Cnwwjw/NgTuLc8BSWVUPWF00ZjMBUEDNTGNGt5vMta0tbo11JnA94K6Uep0I2RJfc0Kmg3OmAN1BtSp4pDIRUy7YuNjR9pX5Db0YzY8Z4wQr0Dl3fYQF5tNLDGLMDQeapoCnyjjnpath9aheL652C5oEKZgeqZZkTpwingkCPKeL2bgbFJ05zTgXBNeLA7T0VxBhHxvmalYrEhqVVzS7FWHEvNSvmiGWnoGxbNpXz+hC/NbKpbAaUx4jB61RQwvDJBOage2lxbGhrhBsKMLlwC0e3dDPlFKdCyKpAB6g5V7XyZ426+ULhhYu6+ULG0HJ5FvLSCSOUqSDp5sWPpUeysCwEzMdNBWUln7wOyRi9JxILpoKGx8i2mvLyzh0d6enfaX4DizGnvIB8nMdqWQ/PZhtlre7Y7KLibB/cRBZTckjZDHLcWJeiuRbOYE35pvIUlqxaSrFeu+cZ+vuURpwRhfgj4QIS3skrj4Wfv9qJQXbiM8J5ylNE36qmTE7M+rSqpvdky2tO6sn7zdh3J3qcren7nlisN+UFXzgxnJoxqdwcTM6a8hInnJjobuZtnsh+bEYU2djDoSaaqwnaoxjg35YXSPVEtueUt++P5+tRG/nh+8PvrzyqPg/BeN2q908ubrLq6xNR8Gea9sN+hvPYrbqe87w9qKNyov3s5s0xJ2HKSwgY+HsGRf0DJlSnfNPfp/trJaXVHlKc0qO5KFcm/Z287P94RRXv5O3+Ipy5G2IUMU/Tk7ORqXh2Zci7yFN1xpTvKk/2vGfdbxmDgZVP12oFss89awIl8/pmtScZ76+e1d8raP97UXtSeH2LVZvz+hb9PhVRoikv5WEV0e4FJL+ex4acvCmviCb6t90Ypx1pJotqoGxq4moupoEkmDHVunqRiP05+YOaQxA2FrRbKWZAF6XbFR84qd6HRasRKe19aAn5qiLkvyBZ+MD81MV9kEcqeG8P64ISmKo5rA3NDKAJ3R9Bs7/Pyqt3CnJ1r9IoKjQOtjWYZDK8wnUgoXVEg6zY3V3sCrmeAvoTIyr1IDL3fxjTbNV/0UonjWhWRwN6JCsWiNzAYPE35C80BJRWgyQr0aeoddgtGLnHw8gGTp5ox6aC2MkUEZiYCkI3TVwnN7Lx5guGusOuwtQw9niSVj7A0BTMDbvc8om1M4vlIrz5gFmWYc0tFo+RtkZRQuvintEjVSufrHwerN4sN6xUGRay54ExyOLRSAVWwCBtKihIxEUbo2rUtXrg0F5qSgwoTPAeTf3I0hDongrR8mm4Dk15L/XE/MGzbdtDgWORYdhDjZgOGE23d02Y5x9NGeE1IyL7pPY8FLh6einIO1RMjw0rP15JP14H7TfVrzT7WwV5JO5QMLr66CsVRJ/VXLgWMG0/um6+xrDgVJDNt8B1Og/dqvYTuqFLQd4hI/I4+g25AXerseVaxcY7o2v2tzX2Krs6J417J4yuF3vr7CR23d5tIH43uuLFjcukloK3E+S/ILa1c8ndUpCQiRukLQXhH0W+2IdxziNGWcP5RwlDmjE0bbKaOvIjKas984UyjHTFlKhhBXELG+BHklTODJYJyxjDKiQYDFgKRrQntH8pNFWgFN9qfWpcNsL/hoWWvfEtOvRSXBE2v4PYpc6MjqWQVYEwnGGk3BWS8ztoy5jOtnUYgW8gTDcVJKTpA6lpSyGoAgF1Yxj9mpHwMazPLEPVS8ELHngdJNc0NtfuuMKLDwpUVzWsonQEhK+GpSMGkxuWQlUFvBSHcZ2Z9zKsyHVwA41hYM4KyXnh5Moa3OJiKRhPmAh8YxiFPO1sq3OdN2bmhhzNjyTX7uCa1VuFjdXQxlqFOymd3sqaae33GpTPWA9lNRKb3STOw2DGwlIoqrA5QvqduGzjZq33ClaFsTE0QuEbTPcZ1gRobLATP9UVyWn3Cn/ukSr7lf7Sm9DPzQAnH26OUGVneij7YmygQd98lSNq3951d7XrAeL+Mm/OKHXEutFoOxfo5pDyidAquoZ59JuV4BKdm7XeH1KrGtr8Bb22uNH1zcW4/Uo3Z25zz/1ZBXUfKsPAw7o7lt1+1YrM7bXlChi1u0Le+X36DpkRoDuFzV7SR0o7U6aOIjPbb1xRJrbdOLvcl+3G/47cN9c9/Lh12K26dxOlaDVjQNu3FJIqbIJwoTuukGCjIO/A6VqPR8eJ7VOWQlMFooCMYQVlY7dwGlOP3RGVFskrvOTNpwpMkL5V2H2lUxU2DnuymHrjV0ryaJXdbcAQgyoQHHR8hutWl4KhJxtXVyGjrbehzXMrViiPYfwLDjpucLJyIclvFbIqbJwTxfo2KTarsu5cRXcDcCZORHZrn8JNBEa3th2RsxzdpuhEDi8dNw68Dl19jb6BW7r6Gp07WCwFSVpwKe0Nfs9s+5UhkKRF3+UgBPZahFx+JG261JCAOKy3W6vsCXQ1lY2rGUdXQ9YyG2PjEDduY7PSU1kVNl9JE2CRXWkru2vMAx1Nj2hjYu1oGj88i9jeKWif0I7UvGefhIcCd1McTbd3rbvsqyTm6wbwb+pgrfwuZ5CzZ5D5s8o9vXLUrKB90ZjeNppuvpVn53UInsnnvaSFrpuUc9XgtVS+p20GyOI78F+QcKBExh2M97g4G8w7kfqwPNiQ2VyVvNneVrrybJ1zr1AU1c2ZORtFv9Ji5zBhSBttbvB766G0+ivyIylxi2s+R7Z23xvUwXpZJZ53t5Buqb3dsEKs9cjikpGZSer+pMD3g3VDiYNhZuu8thh39NLJikS5Kd+wQRpxY4yTdn+IGyAkKiAVebDVVNB+vtzLajVLEZohV4qvZJQQGU9WCOq3bkpphzXVCIO3RrBWz5vsa9BMfmiM/lgD8LDBpU/FBAI3zx3Wkj9wK57VUsbm9VDGrFtiPiQ0M92mIgR24VZ8LuTkyMz7rudhDcdhKr2WZQeM2HtTYxxOZAJ3KyYceKSnvFwP3Fq9G3eT8/7d2og09Lt7sYatGKw/I+2Hq4Tpvm7Ft5WLZ6wFYcWkVLdRNNx2qNuoPWZ696w7qOD13634OWPKaxUXqTxOMrNRRpxk7tZ8h0ehdKtW54t8FXfp6A5i2a7iMR19gQcyqisSkR3Uo7V6QLpFt2a/m8KWYDUefL6C5gF4nNdqUSUVHlwGYy2dA5+voA10AheLBjO56Dp2G816Imuinxqg8iTLbqN3Ty6mOjW0O/HmXsW3WuxN+6cZTYQjx7viYQK0muUvuPzgrviZ3IK74mrKFNwVbxNPeYFjur5ELV3F57p/sNlBV+D1xEhlFc9rcTVxn1pTah/vt2ajMnk/t6b2Z9Noxtqqhl1zBzlfgdfXen4F/p5VwZmHAXsnr01mds0mBLqPXMxf1R+IfF6K3kfMhWvFRpUiHaQV/f7MhGvFR3kRitO8Pon3Q1F7zkBus9GABUnPzUYVVvSvmiEHjZvdZIN9d913hPvCScFm3dEH9v5vSfHSwN0dWrJZsVz51JLVrXL9/wLO5UhGtilR93RICOE2Qw0Ct5Bv0epWeYBzswkJgVs1NytDXd2uuLWUjkFl9KZ52wYeit1silbgiszVRExsy7l7JDG+kSsymw22j4nNe7BJ0Znt+2n2lFNLzQYPr/5yrKDtKhqbYOt3Ejet1k4bt3fyuGvrgJ341qzG+UtMlKlGwU4c91Wj4iTu7VyNlZKY/Fat0iMxNFFtCmbmxjy1aw4kB6RS1n4D1lOmaCoIEpgLbo3qk0h5Rk9tlsc5ub2uNXNY/UfpHSwBV3gY+lQQl6EUbhzrha58qa8co4AmDRlOU0GbrnKmqFpqafWypa9UdQRujbwOxeY9JYysq7UpqQzlVIfSeKzk/M9ygJ79c+8Vsl7szw3/TkHbHPOVVW02zPNOeqegNZ9x9xd01vSmS6shRsunpjMddWu0ij5utaYaz6jynYIEPY2bOazNLIQlDptXr3OhE7GpLENv0Q2daCpoN3XOnBYjyixsmv6CVSivwj7umy9Y9+Lj0SM1BWdXzgIWrjQ9cZ3PQ7Es/Dh5pEK1KQ8BN9+iARgDlsruirWbXHlInsEgF/vIWEmyWnAXVaCgvmQFGQaXoa5JFU0VKAYqyXjzled5JOPYchnqmudh5QhEASkWZQ1u9lMs1TqYDHo79QTHQtzNVSG09nZyC+XIy2mTjDaD66yL9+AAP1vh92BjnI1et5kNk41ptlm4bB3hN5Uq2ZpqDJ62MRUkPF5sHp5kpAeo8pS4elMzRIm4Ne9J1oHbr2drAbMp2pgKwjnfmJlsdKKRMc+fqzJrBlPTstGJRuLPWrT7w2pWxdPJ9CtFvB9yUcB6cLvgNWHNFOgWzTa9fnCHozVWzibobL6SdEMZjIrnrNjM4DRAzsoO6twjY9HEbOQOLpzNSuodMyVrRKF4M42H5Gb1KjvfQDkbl6BieJytRVjn1o45abTbudRrDaM0Zj7u1rtxl4RV3gzUzDzY1NqP9syWLymhdVH5+ZF0pRPCdtmS7IvKT5svqZO48ty0DtHKEQKG+DlqHrBvRkXGGyo/zmWMxkwZGMdlmy7QOvZrnAqC/rTO042jdcJvWH02FcT9WfkvWgdrv9gKj/czn69xpUq2bsWNaV3ZZ1ZF9L1zUECqxd2UacUEAs+WDJY0YlAtBz1Adez+gkS7lRttrvHggi9tRjqf1oRsM/PWMIG6mcB5apamZoSL1ph2awaHs7hPXYca2PJZD9ZFtN8Ms5e2f8yXS4asF27Fk6zCuvDIzmSVvYVxjWR9b0pGbGYqSMJiBptkNdJQ0sSM7ChSTFYQlwdGu8kaeGWuZEzdulpyz8mVPDBmPjWOmgpaXcCXYrKZhuvQ0l+wep7ExOLUjDfPtfTJRtimjIHf/D3xl1JEB2sqiHOyurzS5qs2XGlg0JR8PEnjR7L+35Fj0amgLYbZ50s2djRyO6FkrM1FY6GvZBPLw0Be36qHEAWGWpLNpg8VmXfJ2vKHjK7DVFCqIXP/U1SANnAvqxT0Ugw8qiQF62mA8UYyz6Fj2JfMD+C+tuk0dwwR6WTJ7Ioc+ykvR6FgUJlOG3+IKddkXVnYZYhDfb2M+Ee0Wm9uWLiG0yn7iJIOU17oB9yDK1qHXW7yFa3RceLnN+gj4R01X8+eh/bz+s9Z5el9bWw127kYjBWA53GRC1WeUgfRWuYnZMM+JxF9+P5ggYI5awnZesG6IPJQgWA1LwlrlYJ1IuDxdMGq/hM3S7NmsQxFhK63fcb9E9wlQnsVzCNiTzZYNXFGjytY/2q2V6H5qBJCj0Jze0jXfKgKE3J1SbASWQbNg7FhefxtsNbv3CosGPuUExGhaB+YhrnFVXOmo1YIBHpO3Hje1/h9sjUaRvv2pCE+5dGeZLWHHdltU95GvxBqHGwCQsdQMdjk64ERezBEl331kHT/DASLQtIobiCitma2SHUMg3xTQXKcgTu2TgWte+QCkxCtYIe5eVNBwvXAA6CDlRzNf6Hm1iHqrboIuqQQbgi6aCeCrcPmYjImaeChWME86XU2WEFfmsdchdMG/BTs4hBOe+nK1uLUWo2w6YWk2Y3A5sj6doWB7oc1EdpMsrSpTDFy8ZeNuUlYPttspExmIrkVk1ee7KjeVuTv3wya6MyKMi7ywOug2viZkxmtitMlLn6pCtMlnrRXzTtOG3mhyqWMrIBi88wLImjFBqZXvO4tFZ2YBlqsi8SGnqX7OQ2cYGRp5QXCE0avWHLmXgdWK7MyTASHKya0En2UKLmBSCPs56xG/Zm6fyMfDLOl/WwjpzInSZKiHXkwPGq8Y+5sHg2Zz+i+RvW2yqbLrQ1e5OIgq+VdfYjIPVb7sKEcB7WHNeN5CRr9rJQTfB+r5a1cEmA3dmWM09EyHsZ1qv2pbM+tUmSTJjQHovFYE0M7GuOhpzV2C7heLh9xmpPLJzwv/vwJsw+nTdPJGH6eWs/UuLritIw/9223jGjj9mnnzZybzf63qTXUCy3YDJqE968VV63uGiwvz8ODTE4jdQyEd05js4XNeXRm8ea8CEurYLMUSy8/e8e9kRc0aPVeRHm5X1ZLWNw/Qgp4dgx/J3+aPH6fc5g8+A+38vi+Ums++P49Fa350Ob9nYIG51sFW4HNEyWTxx2q5GD2EE/1oJc8Wjjtej8wQrqTJwD4Vp53xEZ+/o9ff/j9yx//56evP//82+/fv/3988f//tO375//9v3bP3758fFPv3354dfP8//9Lw==);lineShape=1;strokeColor=default;" vertex="1" parent="1">
          <mxGeometry x="-156.34602021889714" y="153.04459013715916" width="426.98043741440995" height="180.58167393199545" as="geometry" />
        </mxCell>
        <mxCell id="4sS2UoN6tuE5vPNdZj_S-22" value="每个地块的日出和日落时间都不一样&lt;div&gt;所以还是得将光照系统设置为单例 通过生成的Map的坐标 来实现光照的更新&lt;/div&gt;" style="whiteSpace=wrap;html=1;" vertex="1" parent="1">
          <mxGeometry x="274" y="186" width="210" height="57" as="geometry" />
        </mxCell>
        <mxCell id="4sS2UoN6tuE5vPNdZj_S-23" value="使用上述公式&amp;nbsp; 可以统一时间了&lt;div&gt;地块当前亮度=(当前地块.x / 地球半径 * 当前游戏时间(360) / 一天游戏时间(1440))&lt;/div&gt;" style="rounded=0;whiteSpace=wrap;html=1;" vertex="1" parent="1">
          <mxGeometry x="274" y="243" width="214" height="83" as="geometry" />
        </mxCell>
        <mxCell id="4sS2UoN6tuE5vPNdZj_S-24" value="日出&amp;nbsp;" style="text;html=1;align=center;verticalAlign=middle;whiteSpace=wrap;rounded=0;fontSize=16;" vertex="1" parent="1">
          <mxGeometry x="33" y="219" width="60" height="30" as="geometry" />
        </mxCell>
        <mxCell id="4sS2UoN6tuE5vPNdZj_S-26" value="0~360" style="text;html=1;align=center;verticalAlign=middle;whiteSpace=wrap;rounded=0;fontSize=16;" vertex="1" parent="1">
          <mxGeometry x="-118" y="226" width="60" height="30" as="geometry" />
        </mxCell>
        <mxCell id="4sS2UoN6tuE5vPNdZj_S-61" value="当前地块的X坐标(为500时 为日出刚好)" style="rounded=0;whiteSpace=wrap;html=1;" vertex="1" parent="1">
          <mxGeometry x="517" y="296" width="136" height="30" as="geometry" />
        </mxCell>
        <mxCell id="4sS2UoN6tuE5vPNdZj_S-62" value="地球半径(1000)" style="rounded=0;whiteSpace=wrap;html=1;" vertex="1" parent="1">
          <mxGeometry x="626" y="340" width="90" height="24" as="geometry" />
        </mxCell>
        <mxCell id="4sS2UoN6tuE5vPNdZj_S-63" value="当前绝对游戏时间(360)" style="rounded=0;whiteSpace=wrap;html=1;" vertex="1" parent="1">
          <mxGeometry x="672" y="226" width="134" height="26" as="geometry" />
        </mxCell>
        <mxCell id="4sS2UoN6tuE5vPNdZj_S-64" value="一天游戏时间(1440)" style="rounded=0;whiteSpace=wrap;html=1;" vertex="1" parent="1">
          <mxGeometry x="744.5" y="340" width="136" height="21" as="geometry" />
        </mxCell>
        <mxCell id="4sS2UoN6tuE5vPNdZj_S-66" style="edgeStyle=none;curved=1;rounded=0;orthogonalLoop=1;jettySize=auto;html=1;fontSize=12;startSize=8;endSize=8;entryX=0;entryY=0.5;entryDx=0;entryDy=0;" edge="1" parent="1" source="4sS2UoN6tuE5vPNdZj_S-65" target="4sS2UoN6tuE5vPNdZj_S-67">
          <mxGeometry relative="1" as="geometry">
            <mxPoint x="837.4000418526787" y="309.5" as="targetPoint" />
          </mxGeometry>
        </mxCell>
        <mxCell id="4sS2UoN6tuE5vPNdZj_S-65" value="太阳照射坐标0" style="rounded=0;whiteSpace=wrap;html=1;" vertex="1" parent="1">
          <mxGeometry x="675" y="297" width="120" height="25" as="geometry" />
        </mxCell>
        <mxCell id="4sS2UoN6tuE5vPNdZj_S-67" value="坐标1000 为黑夜" style="rounded=0;whiteSpace=wrap;html=1;" vertex="1" parent="1">
          <mxGeometry x="838" y="296" width="121" height="30" as="geometry" />
        </mxCell>
        <mxCell id="4sS2UoN6tuE5vPNdZj_S-68" value="太阳照射坐标 = 当前绝对游戏时间/一天游戏时间*星球半径*2" style="text;html=1;align=center;verticalAlign=middle;resizable=0;points=[];autosize=1;strokeColor=#9673a6;fillColor=#e1d5e7;fontSize=16;" vertex="1" parent="1">
          <mxGeometry x="509" y="460.18" width="446" height="31" as="geometry" />
        </mxCell>
        <mxCell id="4sS2UoN6tuE5vPNdZj_S-144" style="edgeStyle=none;curved=1;rounded=0;orthogonalLoop=1;jettySize=auto;html=1;fontSize=12;startSize=8;endSize=8;" edge="1" parent="1" source="4sS2UoN6tuE5vPNdZj_S-69" target="4sS2UoN6tuE5vPNdZj_S-141">
          <mxGeometry relative="1" as="geometry" />
        </mxCell>
        <mxCell id="4sS2UoN6tuE5vPNdZj_S-149" style="edgeStyle=none;curved=1;rounded=0;orthogonalLoop=1;jettySize=auto;html=1;fontSize=12;startSize=8;endSize=8;" edge="1" parent="1" source="4sS2UoN6tuE5vPNdZj_S-69" target="4sS2UoN6tuE5vPNdZj_S-148">
          <mxGeometry relative="1" as="geometry" />
        </mxCell>
        <mxCell id="4sS2UoN6tuE5vPNdZj_S-69" value="预备亮度 = 1-(太阳照射坐标/地球半径+当前地块X轴坐标/地球半径)" style="text;html=1;align=center;verticalAlign=middle;resizable=0;points=[];autosize=1;strokeColor=#9673a6;fillColor=#e1d5e7;fontSize=16;" vertex="1" parent="1">
          <mxGeometry x="512" y="489.7" width="490" height="31" as="geometry" />
        </mxCell>
        <mxCell id="4sS2UoN6tuE5vPNdZj_S-70" value="" style="shape=stencil(pZvZbtw2FIafxrcEd5HXafseAZI0RtM4cNLt7UvW0GT4H+lTjN6NPf/RkGff9JDefP349sv7h+i/fnt++u39X4/vvn18SD89xPj4+eP758dv49ND+vkhvfnw9Pz+1+enPz6/e/n7y9uJnJ9+f/pzPuHvF7ritjKJov/n5R9hc6X/959fXvCfHj8jvrncEJ8XfPSuRMSHFZ9dCISvfsV3lxCfV3wqF+fxbcHn6II/x2dX+4pvrgJ/sosrvhQX8jk+ub7yswaXQV7J1W3Fb64mwue64LfkIp4nrefZmvPAn/G09fkt7Bp1hk8rPrsC8h34VX9afSW+7RI/w6/601jfDL57l5D/ceVnDy4gPiXFV+Sn2GOPeJ4bt+/wG9hLdX71Dz3tGn6IH9aRFd/h+SHu7L4RZJc3IKiuFyXocOMYd4O6EQyTBJWYd0hKQHdORY1+ECQwsuFzclQCunTubmtKQGZWNrWzXndLPZbzUIymBCS4LRhN4kizba6trqu33ZiOVSkZObTdGx8TNFdWZ9S783DpofslKQFZzxSTIShwh8GTaI5E8WnyJChBBIfUrbY2lPT4WuVQXaZfGEwUAvYB88SrLg2nGujSXaPUiAoUpQaBpAkjTG0kuL5H7RtBdI0JttVEa2VJd/XEpaM9TIJV0iWy4Lr61pzdBl5jqtrqKtO2O55TOQiBx+ximstKMBMmJoiSb/bdBs8IwsqlUNBrDPXuqy6FwHIY9rCydVgUG9y2GlzFcDINdL1yxgyjGy8WXWe8pMDhCi8eJrCt3RLAHe9dg9AzXJ6YmseMeeBFwqOiIK2uFl9JqfP+uLvzc1BIm/KHok7fQ/cd/+E8rbgmJRGazEioxcZGjkiBuaqJJdcoLnvlz9BPMLCaNWPLaMEjFRFPmlFexe+O+Q4P8sojBa6Kp4x/5DV6X8oqhgssar+En19nxYN9TQeo56dAM/xfkJIUk83p/vS+VPG2Pab8mPpUzRtvFclJ/dFVOUkZktpKQt+QnI8KB1cVd0bfweHs0YX6isMEzbPSnrScwEt/BWeC1hwJtWwYlYqpIXxTHSPOeC1POEYb+M1lnZ1dkj3XgDPGf/Qr+HqYUZIGEKvfzeGGz3tP5seOE7bdgM+YYzIk0ptb9LuFk4Dx2Wu4mj0oPH9a+TN7AuDvvYaH4VE85CNei4XY0YMMvJhVwHjltQKbeIgPXjs2A5+Rn5JODTz5b79r1z0e+RmiwSN/pMM58aj/0uGZ90X+qI8NWFR4TR/TLaH5YXxE/fSG/2xf3siXOnJeq9+Bp46i1/R04iF/8SaqXOGj4Q+fRzpBl/fV9DFcOHNrj5HPY+2R7cvqJ5/f6ifqQ7D2wvZo9IftMRh58fO94Q/7E2/km9k/GP1MbF/Wfvk8r8VLvOjYkTb2O9KB/hp7HMlJR30Q+5rxEeOXTExm/MX7Sq/rewFwgi/r82f+gPIqNj9B/kj5MfMf5I8kzf0q3ZCB0gU8mdQQDy/jEm7tG1nli9CeTNLMnNFihQOj9JHShV/uq1wjqrGpD+Jeef1Y9RExKTS1DR8mmpxnTyLO6jJlJEXEg6rPY5FoakoPZ8/aT0w40K22jKOmbtNSKO3dvNNiXvHUrLTNgoTmd9SMQEkdNDsCjSsPmik03Thq1hD+qBlEyctRs4kcyGxmafMLteHWS7vjJ+A3441v2nra7FMnQvozm4krnscgrah+RnRSsxkq1S5PHKJ65Ftv4LSZq3gc2FXNvjwmy7MZrc+n9YeBl0aJx/UW23z3GIFmc1+iMxbTdtgQmJ9t743c6QOfp6v+U3E28St/KurPHPfIPgYPA7rq//SQdIFuuvucMswhmoxLOm6gzDGdWXnCAYUZNc6pG/+CCG3O9ZhApZZ3P3lKIA09nk0Gb9L+6/Gn/ETlzZ5JsKr2dqGrfZ/z3AgaLk1YQbQL7e7qjeagm/mq6z0Jm/fTHsweB85LzTRzzhPZoiVRnArM8z0p4O+Ef0xRzLpLx5Jt7mUYAgqDrWla8V00xwRJu6aT0yDqub1Sla80BtqCWTtqmJbODRz5hQ1j+dzxkTtUnr10He3MpaDX7il1ysSPNqEovzjctdqokjja5iI5zH2xrATUHxnlr70DqXfTXZS5wQZMKhoSO89ishECr98ko0dxr9ZO8KEonnySKbd6YJFpATVXIOE80QjM48Db4OcKJ8jL4nlFNGrcabwJZO7beKCbNHLOFVpcEZUG/8YNMLOyuiWsiZLuk1Re7LMrydyAzKo/pSD/s5YUueHCRNb6frgxah8UDbHDi1HDuOzaeNewJHs00e9iAF90CetyxV46bJcr/PL8y1cEDvB8nqp49oe5GTzyRxPyzSV8vm2gUs1YtMUy8fzKgj0P4w0/+TzVngfvu5nzMD+lD3kpr83w8+IVkP/5Sorix4fv7798ePz06eX1mfvv9X2Z8a+Xd23Sz/8C);lineShape=1;strokeColor=default;" vertex="1" parent="1">
          <mxGeometry x="-16.01156017198946" y="451.1020115689047" width="217.21454782836736" height="118.34066130993857" as="geometry" />
        </mxCell>
        <mxCell id="4sS2UoN6tuE5vPNdZj_S-71" value="" style="shape=stencil(lVdJchsxDHzNXFHgDp4d5x+ushyrolgu2c7y+2CiojUElZ7RbZZuEsTSAKdw9/b88LqbPL+9n47fd7/2j+/PU/gyeb9/ed6d9u/6NIX7Kdw9HU+7b6fjx8vj+f31YUbOTz+OP+cVfp95jpmYZ5rnP+dPTCH/+/D1TDjsXxaEWklSh3dUA8SX2OEjpQTxOXf4Sg6vn11vT6LoICH1G3hPRQBBKNWOEJgiA0Ki4HuCkAc7iB5Reh9livX/hFKbzxshRcqAkAvFPmrZkwAvpUC5P0NhSiAOkcn1O5TSHH2V4AuV3q2ie4IdnFDpAycCd3CBuPdS9eQLCNyQepFqBHEjb9bP0KlOa81soMkIEmMmJEsoKPVsbs/lCiyS5vEFvoL1C4Uy4IFHU1vtszgvenM9jSjUYQOQ2L79XeKBvDiSODgIHMBdiVgBeKYyBCyDHGWq3uITSDlHaQhABEXjbRkrPgD/hBbOBd4D/6vWDv5BJZapjniwvrS/G+3Xv0NCR+DPesUe6H+VOWcJKMCf6bJMINQLqIrFC8AXkiHAqABya44bCyyS9AFYq+DQ8nGjRHjb+1YkyLX82ihxTMIWj1rl7XgzP2kTQArhbCfWJoMCHAfFUo8BezRDzbiibTIig/R8/Q7aiFGrD87mqLb6CGogqkoMwwSqylRtZ9VxpQCTirOtex6IAEG4yf5y5AJ1I9kq4zzUocLnFqatY6Oz0rI2mGpz6k1aG32VYIofz9Zsx8yV2Z2tGK3cDZhyf4CVuwe3Sr/g4TynWmHxqHQUb+42ivcA75syXPCM7NcBVywerR9t88DSW4dxawWf7fS0Yk+5gkfnFZJwiz9rE6qN8VLlz9P2fLj5sruBoA+Xu/XT/nA4X82X/+1dXD+d7/Hh/i8=);lineShape=1;strokeColor=default;" vertex="1" parent="1">
          <mxGeometry x="44.38841876402648" y="464.27893602872643" width="6.935064490027019" height="89.3819684957464" as="geometry" />
        </mxCell>
        <mxCell id="4sS2UoN6tuE5vPNdZj_S-72" value="" style="shape=stencil(lVfZctswDPwav2JIgOdzmv5HZuLUnqZ2xnGvvy9Ul7YIStv4TZZ3KRBYXBt5eN89vW037N7Pp+PX7c/983m3kU8b5v1htz3tz/q0kceNPLwcT9svp+P3w/Pl99vThJyevh1/TCf8uvC8c+TcRGP3+/LKkfi/Lz5fCK/7w4xQK8XU4T0lBvhC3J8vVCvAx/b5hs9U0PmOkvT2MNWyTiiBXOgJlTisE3Iizh2BE4W0TkiZUn8FCcSAEAvF0hECUwZ3iI587AjRU3XrhOCbTxoheXJxnaAWSx+2VKkAgoaJuY9bhndQneVeSBqZf45eJHhVRh+4UkmAW70n35tUhRhou5DvnaRirEB7iXwvjKpXBtoWK1VNpgxuLBS8xRdwYSHHFl8FhIDicD5KHd9Ou2bOrXqsEEzEpg8ABzkqbsAD0WmpyoOD4Pl+OL8A+4faOAUMCGjpfFQc1f5i8RGUIvXPELCAUoYkDnhwvgZ4iFfAAhoEF1BVITckQIAJMyZAhAkwJliC9qRk8Rn4RyiO+gH+kaFAqJ6BfphSHfAgvkz+3oSM4S6Ca9//oEVuwUPoxm7BQ8ijau2gCBQxZ5v9fxRxL55bvZm3ANSIW5uetRh0Xx1+jD3SmtpygLm19VmTZFTTc6sgszbsQU5O85sZ0DIsiuJtFdVRAk0GUij1JiUH+1JI1ks6DiGvxmhHunBNveVOr6NJH2cdkDyoRJltr9RpQUDiFJ1j+16gYyn6QhkGrmnwBdKr3npJ4wakXYOtjtLaw9rkXo1BlJA9qY3dt80DKVXxwhaPNpVka9F1al7D52zwDm0q2Y6X1+Kxho9i8cj+bGd2XKp10wrD+RhfhvuC0qKVkJPFA4FOvdra7/FmWaw/PciYWyea6QENN/euuh8g6MNts37Zv75eFvP5/3YT11eXLV4e/wA=);lineShape=1;strokeColor=default;" vertex="1" parent="1">
          <mxGeometry x="130.13455003885497" y="465.1918042246058" width="17.188599600444963" height="109.73940391229644" as="geometry" />
        </mxCell>
        <mxCell id="4sS2UoN6tuE5vPNdZj_S-73" value="" style="shape=stencil(7VjLbhsxDPwaXwlJ1POcpv8RIE5t1I0DJ339fWdrKLEoe9IALdpDb5sNx+JjOKR2pVePm5uH9Sq4x6fD/uP66/b2abPSd6sQtveb9WH7hKeVXq/06m5/WH847D/f3x7/frhZLJenT/svyy98O+JSkRwWVHDfj29qEd9+vnl/BOy29yeA3KS4EeAkpcuAopLaAMhJvBJAlJQHQIoSAgU0HQBRJbu3ADSK5yfEMUvBSWFBw2M/AHyVmHnQY5Z8lsRcSrYOPvY35wFFYhoBKp4BUOmxDt5L9ZcBNUg0MThpDJAkVguIJK21WmosAJLW5iXFySVCvobCzUFHAsiTS0grA1QJJkuRcqk10TJRo1JAGekN8jEueefEjWRCQ6RXghgBMfG8qrQxCChPLLTUYeQGZKMSuuYiOvK7eIkEsKjKeEJqEkjQqYofY4g4k52QLJlUpZIsIYlxBITSheQsYNJWnySTELw4QyUVRxyaeIH2ceT3nVWA0n/grPkkGJFGC8kzctFJdYHWPbZu73gboA+bsWfe+yapGHtGaVSrGgWWSkbtUnvTZFSwQ7N0y1KZP63LebdvVK5DtfY+SGMOZVGjvonKCgiRTYULBUDY5jmbSU7Bd20WUImY1jNa6og9OGQcQhKIvZ+GLJSSTAPXt7OT+eTIBIT9yLnKOS3Z7F7iSDqnVS1Q+al2GjvKn2WSVmPPYl1K44090xN4m0yxRIlAgM+Gbdpn+W+xx/wxxYKEZbYEhokNuafsfAGwGI8nKAhCUlqfJeRk0LMGq2DQ2DCvTFVcKOwY1q7Dl4I2J8RIBz1uIM2MYfCW30D+/Pae5yXw//b+N7b3Oa3/4PZO6gBAGtcEyB6rNGIwexT6ge2xAMTpgt1Y4Yq0MUtYhR1zqdhVDeu8Z4DnC/vzptkol8BW0w/N0UELmaljWpEG9mWkODtNUBkmxgixOQugV5zUufnSD3xFzaEvHydHFOITxNrswEsQ7FJUutCdpon0aJqkD03I6Ip7WjR5TfyeplOpler9AjBZwlpGNufFpYlMbDNB0GVUgcqb+s3f5X4BgIeXz4B3293u+BXx9P/2syFeHT856vUP);lineShape=1;strokeColor=default;" vertex="1" parent="1">
          <mxGeometry x="88.03261463511035" y="501.8877587697996" width="4.199878845458703" height="6.62489260682053" as="geometry" />
        </mxCell>
        <mxCell id="4sS2UoN6tuE5vPNdZj_S-74" value="" style="shape=stencil(nVjZUlsxDP2avGq8yvYzpf/BDKFkSgkToMvfV27GaaR7cxx4C0EnsrajZRNvXh/vXrab4F7fDvvv21+7+7fHTfyyCWH3/Lg97N7k0ybebuLNw/6w/XbYvz/fH/9+ueuS/dOP/c/+C7+PuOSoxY4K7s/xG0cx//vi61H+afes5UNR8p4YyMdG1Sn5SD5C+ZSVfJ7JB/37hThBeRf0+x3lAgCVatOARD5AQDGASh65NFCtChACFWBDDtS0zWJ08ZcBnCmxDoJocJcBpZE3URO3AqOruFVrEKsCsKFFCtpLiSkhQCanAVkytUJATRoggUMamLy2IYtbGQKi9hJ78iCXOkAnNyeK+ElRpwaX4eiLAO0lbhQ/BCieEoj0CiDiSC8BidrHAKdvrgUUSEqt2BItlRhpECdqlpQKYUBL3jlyOjeqI0bp2gbPnQCeGgpEpaiZuEZIG2J1NRqYHDBCAMkAhAxRfpdBdAPQwqDbS5FrukZ7mWOAiZzozMitPLx+AjQch0wlWEBBgGA7qACQl8SJvNDQQLpKXMNCQwPpKukfbZM75eM6wlP2CxXAaubBEucAEDkOo82euwlYzc5yXw8EBrhsAYgG+DS6nAEyAqThkzNAAuwq5FsWbk0oDnn0gzNARMnkbR+dAXiE6contTUvIaPbmpeQW6VGl6kB+ZspLJ6EUkOetEwNlHzN2bFykt5VxtQPFZA0EDM8TGs02jY3oQGutgdNiIbj6IJXUpmUXFtYjcgynx5wJR1/BmDGvkmHEIA1GvcgASST37jLCcBrDZM+mqtdmiadWgCmICazgEy22WjA00Zm27Qm84xoMMQ0GZm60Tpwk6FMks+0xcnYtwLAg+UKAI+uKwA8HK8A8PjdAToOkwG/A3SJTlYIAXizc+AlpQPMk/AalJttEJNFKzfbgvoqByLdc8locDDS8gCnW1BfR5GGYIfpvvACG/qWr22IOFtDs8N0X9pBani2M1w/C4CKY7tA9LsDetFYn688bAgrGnl8OfG2mUxOM35Yd93px1vaxpclb/cxfLgSNtTHA3wXW6yH+OwmjmhGPADPBDtFutGB1pPZZpqDcVoQtYOE4qNlIAfbpV+MLXguCosFbCJf7IaH3yNl56zzkb0xjxHoOnfGugwuilZyy+iiZPjEiXciLx/+35Mfdk9Px3P0+f/t/Vm+Ot6u4+1f);lineShape=1;strokeColor=default;" vertex="1" parent="1">
          <mxGeometry x="88.61945759416085" y="503.59321476756577" width="1.5804887441286806" height="91.30863069873625" as="geometry" />
        </mxCell>
        <mxCell id="4sS2UoN6tuE5vPNdZj_S-75" value="" style="shape=stencil(lVfZchpBDPwaXlUaac5nx/kPVxkHKgRcGOf4+2hDBjNatim/LYt6R0e3pFnpw9vm6XW9En47HQ/f17+2z6fNSr+sRLb7zfq4PdnTSh9X+vByOK6/HQ/v++fz79enyXJ6+nH4OX3h9xkXKecJJPzn/CJQ1n8vvp7Nd9v9lXmhoIN5IW3L5oFJR/uQKCQASCRtAEiiGpcB5m8aT9BKCk6QSjUMgCRUZBmgmWIdADlTKMuAqMQyJqlQAVmKlcLoUs3UAMA8/p/EDmgWAyhbyv6EFimAE7JQ4tGlSA1kKRfKZQw6d2rdZpJSyD6tFRSuVM+lZOSry4AqnTkdMCUauGRZz2OWIlMFJ7RMPAYtrX9iCeDIZwABaW3Fu2SAgE6oFGcARYDmqWGAgoJuvUNcFMddIUuANtZBAynQ9AQYm4AKCVCcAcpYB1VYaQOoeEADArK05rEJaKQIBGSFa8EDUBMwQGAPqAy55PRggIQqnWYxWNBAcQaQWZZQ1zAAuxiEFMVggDk1UKVTZ84V+e4EXcc2Y/S+k9aUPECxRJ1L9yUaZicIBtTmAQnVofmRZVkSRO/ms2R1YCDRwDwrdaCGJVedRqW/WQK4EWTsyyjqekNyikX9SQB7l2zWJ6Agmyhl5EZiyoB99dLoLlORIZlstRA3Rq0ZojEafNClwS4wjeXRpVqhgmx3cC5NnQdQw+a4jC5d0WtpAdJREdMIACK1yZ/Z+4S2jWi9dJRQbbDUapobo67cR/FtgPTd4lK5CgUhs+6aEhyLofQucbXPII2GMNsFbJ0AbSD5dcaORJUWiq4KcLlnzwvtm8SCuR8m/TKxZD46I5QBhdjPZ9zv2E+FAK8lTGX8um2ewJnQbyAf5hHoJcy/HsDXTcDVmSM1im8QDGeHUlRnLtDcbY/clXlbuKT+QstI55+7/941t4ePq/bLdrc739Sv//dXc3t1vtbr418=);lineShape=1;strokeColor=default;" vertex="1" parent="1">
          <mxGeometry x="82.65526179532685" y="585.3982654816125" width="14.140808824477583" height="12.38719958817936" as="geometry" />
        </mxCell>
        <mxCell id="4sS2UoN6tuE5vPNdZj_S-76" value="" style="shape=stencil(lVnbcls3DPwavWJIghfwOU3/IzNxak1dO+M4vfx994yGJyKos7LfZBkgAWIBLKCTfvrx+OX7wymFH2+vL38+/HP++vZ40t9OKZ2fHx9ez2/4dNLPJ/307eX14Y/Xl5/PXy9/f/+ySW6f/nr5ezvh34tekNA3pRT+u3zRu5TLN79f5J/Oz1fySWqb5U2UyFdpZZbHN0Q+4gKbFbIUJQp9nLcrRCmFeNAkx0nBmvR8rKB5UcgSGlHoYrNJFiSGY4WskudXbVUSUyiSw6yQpCSigPN0UqgmRnzITcJ8Qy3jiCMFF+mKOBhR6KKzScXGnTcVSvTQKIAG8QH/1jorRPpKpUmdnc4mjZgEF8McOESmE6drlppnBZVEwFebWJoVgihxugXJ87NqkxKJQhrn7QpZGrtBpc75oDiCZFxDmOY4aKBOtyI235CMRrotZQZZztDa2jhvV0Dg2A0AwuxDglfMh+7Ritpp9VgBNSLPVSNFWmYs+lqMWsictjRK+67QRmRuK6gvM7GOfnFbIS835PFutxXKwOauoFJIxtkSaXSMxG4wie6GQCNtfdSIvaHQQHccNyMDZYxkA9pTn4FRR9W5La/Dv72KSSAlBv0yzfYjX0nMehnm7riTTB60L8kZaUGCfJ/lg1QOCQ86nvvFU5ido9yuqCpxLpDo5qwpRN/+CyUkOYq5RiidnI9qG2Y8GAW0qs8xMDB2vkqIXp6dnwahe6d89ATMRmM/kk+LvwTP6BXd28+4EeRbcvKR9L9NXp08w8Nmz9zCQR+5v5qcPOsDkDd/vjF/ka5evrH3VM9ZGmXkkK+LPRzPruBCntkDeu3fh9VnyJc5vxAv9p7Zk2vggdRnyKfg5BlZwfs0f76yeKGeL/nI7EmelN7Nx+7zS5n90ePnjv1xpMfV+zD8B8+c8P7MnjAo9/v6KeRdvW2jIR/ZH+30AXx+VL57/FfKaLYRY8ZPobSvBo8HvcfvHZ9JowEescSlX7N8BP8pXj4Re7p52hro2BdD8KNooENZ7x7QcVSYdxrEZ+nefIHWwUlvy9eBl18BZgUIhMkFuFLC1JfxymiAQSjjDAiMKsxfNHhH+CKtuECELhydlSBQbkfJtimAk3pXozFnGAN1k+BuqLQKYc5wLBqzUiWwBm1VZ1KnvAazkgsDcMqICqYxdVPxnqpHmewme1BdNmpgooyOSlfKhSwsN2DuJmQCU7Fr9gBrZYO6eZO23QF5Vkz2yWVnohtKzA/d3cCx1EDY3Q2NbrraMkHkQEesap4iZKUJtK2V5ozLlQ6JdYn01obIK5WdlF3v0phC8WgtmZaZkpYbbDz04WDm6mSk8C774Hm90yQ35GWRu21NidNQCPMNW/fla1ZPliuFd97XI1e7ZdZu1Xz3tH1BcDjfOD5ro1LdXqjv2LzawDfyrCi9LkXRwqhC8CNpb5QzVE/50ePpLtpTWnAIOkP5pSzkjXFUT5Egzyr32qE75bTJA3uTp7/iRLc5DHdImF9m3ldwDXqziCRCGO99LU+K8LLl3iJAIha8x5s8AXXwfGFDBIHowlEhz7ZQH/3d7b48Pvz6ke/b+enp8hvh9f/9j4L46vKDon7+Hw==);lineShape=1;strokeColor=default;" vertex="1" parent="1">
          <mxGeometry x="173.1915547225085" y="416.1055338152572" width="15.691420552957165" height="103.67456777568064" as="geometry" />
        </mxCell>
        <mxCell id="4sS2UoN6tuE5vPNdZj_S-77" value="" style="shape=stencil(lVZbctswDDyNfjF8g/hO03tkJk6tqWtnHKdtbh+oKm0RijaTP4nEEo/Fa4h3L/uH590Q3MvlfPq5+zM+XvZD/DaEMB73u/N40a8h3g/x7ul03v04n16Pj/P/88MkOX39Ov2eXvg743yhmCZUcG//TyjlfwffZ/nDeFzIx0IivXwk57cBObfrBghMgbcB7CnUDpACSdgG1EjZdYBcqQANEshzB2D1oW4DvHPkehWicYhAhRD3TghTBXGVStzbNJ04AOBm8hUgFIETkqiyBVTkQ6BoqL7F4WMm9EFZqQBMVKaSLCAVAMhUiw1TRSYl4myJEGRSohQswCGTEkmf4JobHlBd9dr4kCkiQCVnfFCvEmDOtUxYAGBuhBVxCgBVPVmcLCAjk7jxunDaIYCQixbAgAdZJ1+hgmtUVqmRUY0KeaOhUkIamNikhj6BeMhUsgUw4iFSiBYgSIP7wCTByWeZFiqoHZdV8glkul4TYRHWgCsuGQBT/KSmvwTgQrVvAqz1AJgu1aZGcXDKZW0CvUkJ10NUmvoCCrh9h2CZ1lmf0JRrg/86RuFQdO2xqwOwxawmaKQCEtvZ6g+NkQ3xXI046tm+ZfBt6UHpoNtBPzm1iGRbfDVoHWzvukk4I47iLrZa8Ez2vnWcm7wHgdd1biWf0Ps6/qw9FYX+iwvn5/L6cdtun8bDYV6Ol/d2G9ajeZOO9+8=);lineShape=1;strokeColor=default;" vertex="1" parent="1">
          <mxGeometry x="190.55085248115984" y="420.3776323160989" width="3.7635907849770383" height="10.305163231613733" as="geometry" />
        </mxCell>
        <mxCell id="4sS2UoN6tuE5vPNdZj_S-78" value="" style="shape=stencil(rZjbbtswDIafJrcEdaKk6657jwJNl2BZU6TpDm8/epkci3L+tcDuEpmfzLMob8Ld6+7hZbvx/Ho+Hb9uf+wfz7tN+LTxfv+82572Z/21CfebcPd0PG2/nI5vz4+X/y8Pk+T069vx+7TDzwvnKNcJ8vzrssDk45+Fzxfxw/55IR6opE7cUwTimVzuxBPlclvcDdo4JvEAyBR6fZxQTLcBNSD2b9AVrsBgbgY2QFe8A0Ah53tAlQRviEKOOyBGCnIbSJE49F5lKsCt4oj7NyShDLwkQrX3knhiAGR97HpAt0CAkO+9lB1FYHSuVHsbcmqhXAWKtzboFn8dvQ6klmoN0C0CAnLz+gwkmEtFbejLQbfIAKjeBq4yBRDpGqzRukUJAJgLcgawDTXb9K4Ck69WKr3RuoJ6hj6uxQIJ5NIEVAtIxoCzAIyDPg4WKBiIg0oVpLc+9n2kHXML/jpRbEFc/XALkMFqVKMKhCEQMNSldcalXzHgogUEuUkBGXIDJZOqNGYfKohCcQACfsOYGx4XBI8Azu8wAji/ZUiNAI7RKa5+8BI45K7ZvIwDABbZvAw1CsScnMtkwm4qwxsKrrk05HfFnSl8rOSqNfodVZ3HIkWxLm3eWQIodFoRQ+jKfwVSK8kZyMTIhmiHAd3C43MxGiC0oloHuBX94iBNQKWibu0jp0c1CnURCn3gCrah6BTXu1XHjYTGDWdt0IEmgDjk0sbIxciUQRvIkaQvCB3KBNiQ1a09ILmdY+uDZbLnog6WqDOlua3Mo2uGkU7eJl9y7RKyPn5HSr1KuiLoCiS2beiAL+jOUeycOF0qEODsfKKXFOQll1pnXFyDUOD0WuV6lXQF9Uot6T73hBj4yNtj2kN1uF0urpdQVAnDUcKtHbxXPIAMWlEG3YjZmjov3BA3bYLhuM22Xhj6nSlbUxl0CKbqrTjwuxaS9Qza3dn2g3V3tnCxZ+bO9D6/f/A7xz/F9cf1k8rT/nC4fJFZPrefYHTp8vkm3P8G);lineShape=1;strokeColor=default;" vertex="1" parent="1">
          <mxGeometry x="-21.092471228536624" y="421.7623147370341" width="34.74044006408413" height="86.94643861632254" as="geometry" />
        </mxCell>
        <mxCell id="4sS2UoN6tuE5vPNdZj_S-79" value="" style="shape=stencil(lZbLctswDEW/RlsMSfABrtP0PzwTp9bUtTOO2yZ/H2gUOSYY3cQ7Wcah8LgAOPDd827ztB2Cez6fjr+3/8eH827gH0MI42G3PY1nfRr4fuC7x+Np++t0/Ht4mH8/bSbL6enP8d90wsvMeefIuQkL7nV+xVTnFz9nYD8ergCpVLmx95USA8CRlPYDmRgAuVCRBkiRYlkHUqHculQ8ZRBDVJdaoBYKfh3gSi63gJCvAEhLiBdAjwBBs5YhWSDHdUDLVDqg5nXAF/LuJkCz5G9xKVHq7FHM3tb5i6R2Sp2qFpA9m6JlCkAWgSS09okCSJAm1NirToH/PnQJ1V4DwtbOYmeB96p/HkFaevcKEBACe9vNGkMQAGQq2QIVAZVEbFYFANqc1Qg7LxPku18oGNAY2omkwisI8J1LlSJI61SHYAFB0tBKt9K4GsyrYuo+UUBeVa3dRELq7s8XqO6+2woloNW+mzMlMF1utfeZcltl3QoOBZzJtREnbR5QAi7L35fNptIGLsXLPLlUWaiiicp2KzDsTl2UoQ0hUAQTOGmO2tbRxQlqlp2VqYPNn6Pd/Q5u8uLI2/M98L8kKsHYo6YRTyzWHvgv3bTTBID8VL9I8sNewIbSURiTyX9E54sVUIAbbZo6bT4Zb+Rbb4PfAPTh4/L5OO738931+n97WdVX80WX798A);lineShape=1;strokeColor=default;" vertex="1" parent="1">
          <mxGeometry x="-22.354986706126738" y="422.1962176276131" width="1.4720145554097794" height="9.660356654908744" as="geometry" />
        </mxCell>
        <mxCell id="4sS2UoN6tuE5vPNdZj_S-80" value="" style="shape=stencil(rVbZbhsxDPyafSUkUQf1nKb/ESBOvahrB47T4+9LdaGtJcVTL9C3PYYSORweEz+87Z9ed5Mzb5fz6evux/x82U/8aXJuPu535/miTxM/TvzwcjrvvpxP78fn5f31qSDL07fT93LCz8UukPXFyJlfywcma/58+LzAD/PxCm49GdPhTbqNd558i/cU7W08B/KxwUcK+TbeB2Lu8AngA5OzDV4vBP7EQCIN3lIG+KzxtnhTCfsYH8mFBu8oOoBPJG281pBDF2QyLaElAg8NpGWII0UGkjCm10RwlBBJuca4Jk0oIAOhmBsDccRAdkpTJ4vsSFDUgWJqDaQy/bEBk7QuaVQwaEe2TYTeyQIMDMVWShKJQapFaW3zkBiKWw1My1IQMsCl0cCrmDa5VOoZJW4I2nLN/Z20elxAQ960ftD5gzAs2U3KS9XBO6VtE0Vcn13xsKWAWvZYn16dxPXZtYDIxIikockkgWNhbGOy3nlnnyxEI5eGRnzFw3+yGIeDZtNsmj566bbxltcj7pyfGfeAcUCXtgRcGjcAzU0GnXLYMAoesMr175VDARSEzprufK0HNK9qm16lpx4Chkyf5BRhgZrapNfiwfNznJ7acsIGvPfEW/xhhrNziFczwsCfgU9ViAABDfkS8sCdQQ6+KvyW2to+gffZf66/+vB3dX6ZD4dl877+36/a+mlZ0/nxNw==);lineShape=1;strokeColor=default;" vertex="1" parent="1">
          <mxGeometry x="-22.143905651684918" y="423.4222320273176" width="8.906486496113887" height="0.9841492266147854" as="geometry" />
        </mxCell>
        <mxCell id="4sS2UoN6tuE5vPNdZj_S-81" value="黑夜" style="text;html=1;align=center;verticalAlign=middle;whiteSpace=wrap;rounded=0;fontSize=16;" vertex="1" parent="1">
          <mxGeometry x="165" y="386" width="60" height="30" as="geometry" />
        </mxCell>
        <mxCell id="4sS2UoN6tuE5vPNdZj_S-84" value="黑夜" style="text;html=1;align=center;verticalAlign=middle;whiteSpace=wrap;rounded=0;fontSize=16;" vertex="1" parent="1">
          <mxGeometry x="-52" y="394" width="60" height="30" as="geometry" />
        </mxCell>
        <mxCell id="4sS2UoN6tuE5vPNdZj_S-85" value="白天" style="text;html=1;align=center;verticalAlign=middle;whiteSpace=wrap;rounded=0;fontSize=16;" vertex="1" parent="1">
          <mxGeometry x="67" y="592" width="60" height="30" as="geometry" />
        </mxCell>
        <mxCell id="4sS2UoN6tuE5vPNdZj_S-86" value="" style="shape=stencil(lVfLjtswDPwaXwmJ1IM6b7f/scBmm6Bpssimr78vA0OIRcfT9uY4MyZFzlDSJE8f+5f33cTh43o5f939PLxe95N8mpgPp/3ucrja0yTPkzy9nS+7L5fz99Pr/Pv95Ya8PX07/7h94dfMa4203lgcfs9vItX5xecZfzyclvhERQZ8pZS38Voo8Pj9QlG3CVUo6UBgJQYZZfURElOM24QkpGOEnOEaJFLOA6FUirxNYKbsilSIQYRoRWwDQYUEERKFsW2qsG/RUkoDoWlf1RYhlpHQeqEfEyLF6gkpASlRWQWoBSiDNHh8A/hMdWxzDIFCAH0mjT6AAqkyhebxBVQokLLHI1WELuNFyxTkb6vLHi/ACIGKk4SVGElilb/JFjTAnFw9HlnfXBg9PgABWXRZ4UH+jWS1Xgb1iYHaKkBGBPajyAgNecZc6QjWsgYJUjxBke9tdq1chkRhi+aVCwqIoH12Lm0JApSumX+1ZepTZBkAyIK7CZdzBTWB4srGAmRqBVLfggZtHILHJ1DQh3iQj1Ac62NbAcq/UHZbB8OGmYTqqIiaqYAF2wocoRS4YrEExpRygpMumdFHZ6ZICfS4MPHYZJseaFbXRHkkxAz3SyuiO0gVUjActXZR3g9eEeHV+9K2EwF42609PgN8s90mODwDFTUruMejU1ez+iSHDwifSMTjgSRa9seD0I9Ij/G2F2W/XlQfM5X/Pjo02hBxY8VcgU5DrZ/f7npA+S+m5p2ALPDfJ/2/4u3hfq14OxyP861k+b+/htir+Qojz38A);lineShape=1;strokeColor=default;" vertex="1" parent="1">
          <mxGeometry x="-9.202251980112806" y="455.1349376338759" width="5.211268769537128" height="21.9452072951773" as="geometry" />
        </mxCell>
        <mxCell id="4sS2UoN6tuE5vPNdZj_S-87" value="" style="shape=stencil(lVfLctswDPwaXTF8Ezzn8R+ZiVNr6tgZx0nbvy9UlZYIyjvJTZZ2SQK7AOHB373vn952gzPvl/Pp5+7X+HzZD/5+cG487nfn8SJPg38Y/N3L6bz7cT59HJ/n329PE3J6ej19Tiv8nnnWGDJmojnz5/8r4vjvxeNMOIzHFaEwTd9W+ETZAbwjk9r1IwV7m8ByINsQXKZQbhNSpFgaQnDkACEasqEhxETF3yb4RKmNOcsh822CY4rcENjWPbcJhoJvCJLnCI5kC+U2hlLIAB0sax2EEIDQIlPsCBkEbV2VaUUoCViDbI9HutWvKzyD9T25LkURrG+1s8v1hJv4zkaiGSoFwVuNd0iybv1MGSjmyTqN9wAfa6Gv8MjVYjDlUVw2YgjfE7DlQheBRTvkarAVAZq6UGJNYMaFqY7E5IHphGCKJiCX2qtpVrbzoEHaRKErzARisJ5i1ISCjGdq/7z27OWa2GTk2nu+uEPokiQhwNJk0+UIGMOQ504EkKLuEpxUhqX/PTzreOWWY6yxSmiSBAEBpDhdawq50wK4cULQ3TFIkkFKYxfDpDqIQU7s2n4n9W2ACDn0o0UAlZNl/9bXlhI4kODVrSwdH5ma9R0rogFTi6aBFR4NLux0MzJVk2181PnBUwjn2m1XeBBvMboTmdrxt/G+dsIFb9F9H/v1PfCDtOak10d9bpqAstLXgHwu48OCRyXz7Vn5CwR5WEbzl/FwmCf79Xc9ysur+W+Af/gL);lineShape=1;strokeColor=default;" vertex="1" parent="1">
          <mxGeometry x="-10.040375244003826" y="563.0149240641372" width="2.85363190616876" height="18.943290676829097" as="geometry" />
        </mxCell>
        <mxCell id="4sS2UoN6tuE5vPNdZj_S-88" value="" style="shape=stencil(lVbLctswDPwaXTEgCb7OafofmYlTa+raGcfp4+8LVZUtQvJ6dKNELEgAuwC78PSxf3nfdZ4/LufT992v/vWy78KXzvv+uN+d+4uuuvDchae303n37Xz6PL6O3+8vg+Ww+nH6OXj4PeKSo+IGlOc/4x9HLvz78XW0P/THmX1OlFNjH6mm+/YlEhv/Qk7uA6rQsDcD+ELiASBTlQYghVwBgEohN4CkgAwBpQVoVOgEx0zMDaIWKiBNup0MoE55uJem6C0gRlCIQn5xQmEAYPLVAlCps6MU2lLf8rCKSIGcWxwBoo6RklhABnQV9bcIQkCaZMFvBfy/5D2AL7bUGRBclqUuFACbYiCpFsCAr4knwVwBmQoIWvmfigWgtOZMwlsAKpiUtlyp+pUsoaDVX9yU1oH+YgEohmXfGKgB6F0TubiFfJVXRA3TGogXJyABZW0bbdAPNRpt83vQBmKetueNBigoLvrGg1Ym2QbxoFmqRp3JK27H2wHK77aTDSOiAoBYfic8tcSTtGmVa0dfBQRVZCvqYZCCK/lMviWTjmoPgnbZijpRAIVmcq25owjNzQx1MKPOjgamgvJpB4NqD3ivU7e6mQdAURfto+Qa/HruPVU29gz8Bz0+WHtMhrLwj+amWNUzfLWphp2NF1Eh6tS09kjysU7ym1UX3H/rs/axvS5ub+i3/nAYn+Dzffvm1l/jez08/wU=);lineShape=1;strokeColor=default;" vertex="1" parent="1">
          <mxGeometry x="197.40811935064153" y="572.1493710014945" width="1.080418499766113" height="25.480070352891612" as="geometry" />
        </mxCell>
        <mxCell id="4sS2UoN6tuE5vPNdZj_S-89" value="" style="shape=stencil(lVfZctswDPwavWJIguDxnKb/kZk4taaunXHcNvn7QlVpi5C1nbzpwArXLiAO/PC2f3rdDcG9Xc6n77vf4/NlP/CXIYTxuN+dx4teDfw48MPL6bz7dj79PD7P969Pk+V09eP0a/rC+4wTSmUCBfcxP/BU6t8HX2fzw3hcmHtH2ff2TIUBIFNxHSAkkrANCJlSD4ieXNkGcKGUOoBkCrINiJWkzzl7qmkbIJWYO0CJ5N02IF0DaIDK5EBIOZDvPdTYfN4HaJVCH1JuZbgLKGJzyJoD6IMGUPsqSWh1uw8QirUHeMqASzVRcBYQUEiZXJ+0OKoRAkpZAVAOyqVVDow8KDXEAmqGAKMHLWvxSHGOnEEwZZREpWrKFCkDbihAcg/QsYCSKCtuJIpAEAoIbAEFecjExkOGClIyycpDRSFJq8kyB+RByCdbpYy4ERv9F30oGGDZp8MVNS6210syIcnpFFixz4E5o4B/AlsKApEvtZosAA71YTXvJ42ikApFth48SrqSX2k0Iw/VLsVp9AGNToozAmLMpboSUKSI54zZu0o+2IfPAkq1s1J3jKCNokTo2VoDRaBpXXIm6cVsu79HI7meTMqWiDa12ElWCtxyUQddz40sVEDnOJL0ISXlN+BGYOI+pBhbpe8PfCbflykoWwC/xQrIJ7gfHHG/HiLcidoiE39b21vmfTTX/DfMvfk9bPXdir0PRpUMv24msIf/bddd38wdVIBvbbmZe1DIQNkZc0R+nSDBmiMmN57fzAOYcbqbxJgnYC4UbCERCT55qvivuV7cDjAv4+Ewn3+W7+2BRx/NhyV+/AM=);lineShape=1;strokeColor=default;" vertex="1" parent="1">
          <mxGeometry x="192.82703029685058" y="595.9144508503102" width="11.479737155713988" height="9.970654704173025" as="geometry" />
        </mxCell>
        <mxCell id="4sS2UoN6tuE5vPNdZj_S-90" value="" style="shape=stencil(lVdJchsxDHyNrigQ4Hp2nH+4ynKkimK5ZGX7fTCZjGKCM+3yjRqhia2xcKd3r4eHl/1O+PV6OX/d/zw+Xg87/bQTOT4f9pfj1U47vd/p3dP5sv9yOX9/fpx/vzxMktPp2/nHdMOvGRdJeQIJ/54/BJL098PnWfx0fH4j3ig6caYUt+VDoVA7gGkU3QZIIQ4dIAqlug3QSrHXkANl2QbESk07QMmU8zYgFZLSAWpZrlgFZKXcR6lF4gYAjbTX0Jgq0FAsbdL70KiCKFWmlvooKQVgUq3ehxgpI2Zkkt4kyZQCBOQ+05Kogjw041L0gH903AKU7AEBRKkZlwaTBPnQiMUDoNON0hAlBmw1QM0eUICGwEzcZ85qKqEwNWournXpCluA3NPV+gKDLmAAUQ/IgN+WiNx7rYzDVH0iDBAQXYsvuUkDMilT5cEHRNdMmoYoIfYZE8qQB1xyK5lGecgUXB6MTFhDHNjH2GnXZ6aCQGE1iweA4EwLe0AoEFDVAxTlYejGU2NCPrShz1jckElWcU5DgVNxArgxWt+ruDIAKm5MHwQISe90zItX6xMlUunbTLb2DUZQqUsF3+aurQJAQxGKPaAlPHfNYr/O3LrnOsLWo9arKAvj15eH6DemhjesmIb1pC1Wri9AabnvFlc8qUWXKN4ylyBdg+0zvdNGVwXsSz7TdkMBXYMp9s07ws7KnhcRdm72G6VC48fxCUcV+5Yalmm6Ia7NiaNRy1T6VDEMZPBzluEACePtqFyE1N+OakV8cTEcf0oxetvBHFBqwUcGiH/wnfOuuB3+P6mejqfT/CJ7+79/gtmn+fmm938A);lineShape=1;strokeColor=default;" vertex="1" parent="1">
          <mxGeometry x="-18.842438911615545" y="578.5268050256436" width="15.127584451490423" height="12.151244595056076" as="geometry" />
        </mxCell>
        <mxCell id="4sS2UoN6tuE5vPNdZj_S-91" value="" style="shape=stencil(lVjbThwxDP2afbUmduIkz5T+BxJLWZWyaKG3v69HowwTZ+cU3mDWJ3F8Ob4c5Ob18e7leODp9e1y/n78fbp/ezzIlwPz6fnxeDm92V8HuT3IzcP5cvx2Of98vl/+f7mbJee/fpx/zSf8WXAcKYYZxdPf5UutJMuXrwvg6fS8BUxUph6gxNM+IGRKtQcEkgwAQrUHlEQKVAoTTf0bciEFNyQq2stPVBN4MwXu5JUpyb686dObKAlNBTyAQi8fhULcl1fS1MkLU0XnZwo9gKW5/SpAAuVeo5CgRlFJehMVisgDlSb3BMpAIS00Sa8QTbwvn2MzeJNffXJdvlIu7nwF8sXSxrmYErBPKe3n9fxAEYRc5cEDhTKIuZqo9jdYmAi6oRD3aSbmAwQwG+UesH7ZycshEWJqft/TSfvMjPgKe3Xs/WaphlKhVCq9mVKhACKvMHEfeRparFwPJaHSq6SRFHhOjY56+lKlXEHyFB+slh5BAUDazxtAAX6IdkNvJa3NDNcBli4DoIIEslirPQEYByNPc6U0ABKwkmVkyF4llBCW8uzekFuW79GquhsiCQJET/RqhQeYNXnWe/fkdTdQcqyEC1X0rJ1CS48d+Vi9PCoLyRfmZD4DyZZ8b2HyiObVy890gcpCi8mNvCLablyyPR/kfm3e3OgfQMhZ5+IquQEUVXIre9l7QMALDBCcSgwp2FTyBMmw8BiAhyAV4IQ1CzfyqO6U1o9+kOJza0e38oAo1DdHsz6ITYnz8F6YNDoaFJFvO23rMcCMYytiIQFJYkyyDFgrtZTdBjU4XymONRzYPzeK+nBS6iCPesc62B/3ghbQcUjKCB7waYA1o+x4t0AeZfUxrQL7U5l8JbAuA1UaUd8+WhMCO/7YFNjcEEFaWhSLDgCUZ9kHkgECqgbRl5v5C8i0HHwoWW+HBkEbE9h52r6gdjP5WTbZFxSsRr+OXRiOalU8X1s6BBAa1jI7fpmbchCtBmBXBSfYDNaVz9dBIUJGmhcCbj7NrXnbG6emPjRChQ1tMSv1GRe4LQH2PO0AufWfewOnq4LcEup6rA5ziMBOzQLTjyHQy9bBu/ONpTJQyFyU3AScWz+8R2JuQmU83M0KDAMnslEaCoPAxVH0fGGpg5oppdS7eJ7sAL/YA8RRnjV8IIis33dTf7YoQhPzMP8WnDkWZe4NRiDICXP34vZ9Ebu5DDdkuNoxgF8Q5jbg7gHcKFitGqLyWZrVNwBk1lml4AFw4Tesa+atKEg3Xuv3BgCn0+y7EgNAK2W/0TIAfIP61chmH7MXG2W8AkVf8q15XWnzOiAOjqiwj/n8evr/APvjfRv+cHp6Wpbp29/99tw+LZt3uf0H);lineShape=1;strokeColor=default;" vertex="1" parent="1">
          <mxGeometry x="-18.805287660766" y="607.3890529939797" width="13.300682608040786" height="20.744821569782548" as="geometry" />
        </mxCell>
        <mxCell id="4sS2UoN6tuE5vPNdZj_S-92" value="" style="shape=stencil(lVbLctswDPwaXTEkQZDAOU3/IzNxak9dO+M4ffx9oWrkiKCFVDda3pXwWCw44MPb/ul1N6Twdr2cv+9+HZ6v+wG/DCkdTvvd5XDV04CPAz68nC+7b5fz++l5+v36NCLH04/zz/ENvydeDAFCGGkp/JkeJcjl34OvE+F4OC0IwlCwwUeE5BEQsLYfYKhhncAFiBtCZkiyTqgZhBpCqSBxnVAiYJszI0haJ0SB0oa0qNt9hmadGoYIMDtJQCGLJ1rHa9GrxQcHH6DkFs+Q0cOHts1SoTrvj0DB4oOTb547dMOX+Q33ZQQsFh+qEw/NHb0RCNhJWHVvdDoSnIhUxtQRxNEpInC1OaBTI9SSd0USJwdUnYrtAnlfUIJpG7vTrCFlsgRxqqRJ506oObtlDWwJ7AynSo/RErw+qDRQOoITkgbczXJxtU3F4pPTts6ORpN14uksW7ssTjwBaqcK9HpmDVhl5+Xbd6xA9BqAXcfINUfNIHXDXD8hxE2ENItysRLIGwSC1C2d4hDyzU0Way06jkoRYhvSh+PcJ2Sr609WMyGEtqz+7ld8bVOIs6Pdx5P1L1W6s5eJZ3eb8cGd/IIQq8FnD68FZ4OPzpxVtGvfX/pVAPMGPGdgi/fiYTXCsiFfyRBkQz1HW9jSL7U1c8nx9bD5svkfBD183G1fDsfjdDVe/m/vwvpoukfj418=);lineShape=1;strokeColor=default;" vertex="1" parent="1">
          <mxGeometry x="177.3616749069156" y="615.5543138033352" width="1.5438589251212502" height="14.611561015647956" as="geometry" />
        </mxCell>
        <mxCell id="4sS2UoN6tuE5vPNdZj_S-93" value="" style="shape=stencil(pVfZchoxEPyafZ3SLc2z4/yHq4zDVgi4MM7x95nNlmA1YhuovC2iW5qrR6PBP31sX943gzMfp+Ph++bX+HraDv7L4Ny4326O40m+Bv88+Ke3w3Hz7Xj43L/Ov99fJuT09ePwc9rh98yLlPNEcubPvOApp38LX2f4btwjuPXEFuEjN3hZSRnhQ2rN4bqygvetPTGQdRBvGnzKZKH9vrU/Z/JhHZ9qNCq+eLi/NcSxJSQKwAHLlEpLYIpmneADZd8Q2NaV6y4HMm1M2VMAPmdHgTUhghNYYtiZ5EGUuJA1HSFCQnGd0+gErlE/Exw+gbsTPDmYaUNGOSG1yvAIVmGK5ECqhZCUTQmqQQg6rokKkJvEVYcp4zDlKvcFAdaGKMh0JxRIcJ3TjJyOWkHTFiissbq4zANKnPytCOEWIbRtQ4rJY5OykpyDbUNcVI1yEgTKdCZTNMGDzi2EEjsC8qHou0EIEUvOBe00aq5CyFYTGAuIu9ZXsEmsohSwgMSkrpYK0gPXyllUawLdWMKa2itUMuNQaeQql6VEUZQeJVy5IBhPDech5DxmXLrn2i1nVSKkvNA9WsglHdcAEpEpqNJwsJHZ7mI/z05X8aZ2ucWkEUCMjLbnxiQj+Lav3piUTL2R75zEjE7AjUlP8tnuf2OS7G5PPKga3b4c1KXRE4mD5Wb0TGVrx1+pBXUfGChhW029wJGApQ6DgkOpkPMPwdVEi40JVRT3uRrJxAcCGesgel+apALV6wMWwf++hTRcPi7Prrdxt5tfbcv/9TNNluYnnn/+Cw==);lineShape=1;strokeColor=default;" vertex="1" parent="1">
          <mxGeometry x="184.57478911202452" y="615.5488717205026" width="12.753836517839122" height="9.712140150020398" as="geometry" />
        </mxCell>
        <mxCell id="4sS2UoN6tuE5vPNdZj_S-94" value="" style="shape=stencil(lVbLctswDPwaXTEgIfBxTtP/yEyc2lPXzjhO2/x9oGrkmKC8aW6yvCsCWCzAQe5etg/PmyHyy/l0/Ln5s3s8bwf5NsS4O2w3p93Znga5H+Tu6Xja/DgdXw+P8+/nhwk5Pf06/p6+8Hfm1UoaJ1bkt/lNJB3/vfg+4/e7wzWeibXBF0oAnxPl3OBDplRvE1Kg2hKEKfBtwqjELWEclzNXCRJIUkPQSjXeJsRAWhtCFiogh2ABtISiFAUQIo2lIdRCEZ0QKSRPKOiEQLHV2ZQXkHSlnDw+AxkyVfH4ChpDPT6wtRY4QKh2AZUCVFtJOIHvM9Xg8QF837pSvQIJtJ1lJx4fgABM6vLNpCCesNjqCo++L0uDXfBp6dobgkX2+BRQQ/j6Y7xVW7p4UL5MWbuEwQFmgdJVSIFikyvHTjLQQkaQjpAUhpRcUa0MKCQm6QgKVCtLhv/pmuQD+syW40oGyPdxba4g1bo2tbkFBh2vSFCABJfsrvACx8TX8GazdrIXWw7AlqYwtwXKgleBCdqtswAyFqHUOnMU6DRlvzDNrAy6NKmfjSHRCETL5qtWtQyLWvLiw8sBywdu4Z31L8NjHV+9ygzjr12FbDsAzWo3ikx1dOsSUh8PMmVVXx+GgtXO9gzvKzY43bLkJcB1fKGqDl9Qvraq23raGAD4qyH1QUDLeBpSbUAR7o4vX5M/xdvDx538abffz1f66//9Hd5ezfd/uX8H);lineShape=1;strokeColor=default;" vertex="1" parent="1">
          <mxGeometry x="187.59966934024533" y="616.0363633832303" width="4.9913249643702455" height="18.22618259414295" as="geometry" />
        </mxCell>
        <mxCell id="4sS2UoN6tuE5vPNdZj_S-95" value="" style="shape=stencil(lVfLctswDPwaXTHgCwTPafofmYlTe+raGcdtk78vVFWpCFmbyU2WdwUCixeHdPeyf3jeDZFfrpfz993vw+N1P6QvQ4yH0353OVztaUj3Q7p7Ol923y7nn6fH6ffzw4gcn36cf41feJ14sZK0kRX5bXqTKZe/L75O+OPhtMRn4tzhQ6XE24TQqJSOkCJJBIRMNfYnUmoCCExJOoKYD4AgVHt8rVR1G18ohw6vQgq+3yj032+RUgAOVAq9gZYoJiBCI1FvoeZtQjYLfUwbU60gROJlVqUALGig1susGcrchFrqCYG0AcK7SEsCkK0plT61Nc7K3CY0itUTKhDOCC6TNMHMM0JrPkoJKD0SnIVCEdSnEcTpIBRAfRrh39/L7EYEpeR0qBSRDtV3ACNkRLACZU9IKDUKtegJjJKvzD1r4TS0kOfcXOhQMKGu6+EDCy6siSp2ep2tDYW1rCxYX0K5JKtceq/yTaXZExQRdM7+xZEY1wOvnC44vSX6sAYU1najkaEjBWZi9owGeuXYNpwQJg32Oq0mEMw+JXFxtQmAldMVAe0BnyZY2NlNRYadzEaQi5JNxQactiFX+9xoeE7HVXMdmyE4UhDfNhbib6wOtY/SmPEAzyTifU6gptepZ60QrRokfYiqwE2jUOjxEknRRKTcn2fcPIBmtuw5BxKTou1Q/YlCgQ3AXHbbmzUMYMDwtceHuZPfxttOoQ7PYLMyfO0nCVMBzSIm31N5jsDWgu7GAs5Qk9jVJcN2Z3gNDh9Rkcn6/AIy2i4krsMH/H1rO83h0RQ0fO032wg3YcM7fxMJqIBPX6g+xNvD/9vb0+F4nC5/y//9bc9eTTfFdP8H);lineShape=1;strokeColor=default;" vertex="1" parent="1">
          <mxGeometry x="199.9604814006882" y="617.8274448664213" width="11.45204761273869" height="10.687552185697443" as="geometry" />
        </mxCell>
        <mxCell id="4sS2UoN6tuE5vPNdZj_S-96" value="" style="shape=stencil(lVbZctswDPwavWJAgudzmv5HZuLUmrp2xnF6/H2hKlJM0NqO3yRqV8S5wCAPb/un193g+e1yPn3f/RqfL/tBvgzej8f97jxe9GmQx0EeXk7n3bfz6f34PL+/Pk3I6enH6ef0h98zr1bKbmJ5/jOfeIrh38HXGX8Yj9d4ppAavNOTuE0onji2hEq+bBNSIZGGIEI5bxNiIBcaQnQkgCCVUm0IqZIDJvlEpb2hRGJAcIFSS6iFkgOE1cWVUBevbhM8ebGEiExictUSCohSpmLyxkzMIA8UOhcqcEHIdwZlFKOlMK/w4rfxWpdsc1Agnju8Twgvxt9MGcTHUSgW/5GSrfi0nVm1DGH8rT2JIrBfrY0WH4A9UwWxJcCi9uSSJVQUIe0Cb0P0IQabfdYRCvBZCdmYVCjgG1zXyRW0jTpdTNoqFEgNa+0IGeRBlSRafEWCSv4uvCxfr4UCZE0FPnUOw77JXZ9V4C/bATKlDASUu6rTmgD+3oufpLd1oAQKQFh8sBnWGRdB4+iAMiZFhtISxYq7eFilSaWhHR+uLPJ9WyzC0uprlPDYl2WirhdQBB4ovppxQwyGhw5g1+J5Gbm38clKC0NlKWXRzk+8AynTvSgWg0fDsnq7ISge/V/jL9YetKepltv/o51Ia75af1HFTetJ2wQOx2fVtKt6QDLK3ThedWbzgrsW2f/i9eFza34ZD4d56b7+brdsPZo3dHn8Cw==);lineShape=1;strokeColor=default;" vertex="1" parent="1">
          <mxGeometry x="205.57546170519527" y="617.4081901551929" width="3.932372393015872" height="16.571834784587086" as="geometry" />
        </mxCell>
        <mxCell id="4sS2UoN6tuE5vPNdZj_S-97" value="" style="shape=stencil(nVhJchsxDHyNrijuy9lx/uEqy7EqjuWyne33aUbheAhqWqXcpBn0kCAaQIM7f/P2ePey3znz9v56/Lr/ebh/f9z5TzvnDs+P+9fDO37t/O3O3zwcX/dfXo/fn+9P/1/ummX79e34o33h1wlns0TTUM78Pj0pUWr+++TzCfB0eB4BTgGseE8AQUwaANmJtQRgxYwrpCgubQOyhDDYxyQpbNsH8XawD/CpbNs7aa9W9r5IJPZW3Ph9D4/IkRqJ4/ddFFOZvTofPPm3w63vj/Y2SiHf95LKaG8lk/O3psdzoYTYSOyLPqBI948AW+WwVLIfH6Qqh8WQeAWE0w/2ywmftU8g/MhoL57wLSUpcSS0BPL9bHt4lv3zAGfwXTkcpJAVkLJmpJytnYTnASgK4xEhiyxZoRrJo8+u0iDUIEkdKnhI6kpF2isAeMUARcroQwCPiNO19jCtCwUhHgBJEdt2Km4CxlRrpYukTgOM1AAZwwVAHgFJHClGAOSRGtnQatoAow8Z5GP13UwFDHwszImkQ12KZLIn0NWMgaieOoEMKqPXbU1yTDhFRVfQqxJ+Ry9hZB8OrpAVgu0b+KgCvC5ZN3kd6RJV1yXYs86M/BobLZLWEPssXn3fdfpu2LuRSdXSxlzEjPsptZepDX+jsi+du1tKJI0xK5l2nqZ1igZE1gqXdF8DyBGhTpspFZi4cIv2WAGYD2iuQUXN0HaO7qdWQNhYM8EKReUOL8TwoUzEo4oBO1bpHGnVg6pVLRcAGumoNQAKBus+SM65whhSktDz45TNgWZnNvqQmD2IpjzwNM5ZqzaEOVN7vR/Tz2xj/1Uxu4rlB1RUskF3stzxun4h2VhXaDrZaABjdlO2VQMKo9G1ACgQE3UUWCrErMUtAIaEDcOWqqot/wmzM9Tv5ENmYtLqgQf9OrE6H3X+N8FAtlTSNHOGnn5bADXCXFA9DaA0feK9alqhKTcOUJGGNqTHGnUCRUdbAwBqMAye9s/itKj3iTf02mviAnCdjucBYZqFM20NqfTXCwDtiKyQphWQg6zj4tTjNA7T64WsezrmVxJoX2d7dqHiZ5nXp7nzzTBM87/h8/yU0HYZzrZ05HQhYcmOaj+/1TBJxyTJo8DwcID1WqNbj890AXhsxxVCEs8AqY84S65BEHAJo67Nku9ebUWtKlYY6gNYo6YqDDWZ9H8A0lU3eY2XV90VNuKrlp76hHwekPpYt2olVOilSd1mKkpc7BJhLRrY5V/oImQFYHW7XU5NK7B60dStvQpg9Ox5YUsYGpK7xmmUxDwNPuxYAdBjCQ+czboGXKDG/1xUXwLgx8e9+MPh6el0rb5+r+/R8eh0B+9v/wA=);lineShape=1;strokeColor=default;" vertex="1" parent="1">
          <mxGeometry x="221.60030474865357" y="620.1903778767069" width="7.7788766973065195" height="14.169745837770279" as="geometry" />
        </mxCell>
        <mxCell id="4sS2UoN6tuE5vPNdZj_S-98" value="" style="shape=stencil(lVhJchsxDHyNrijuBM+O8w9XWY5UUSyXrGy/DxgVxwI4atu3kQY9JBpbk5t497p7eNlugns9n47ft7/3j+fdJn7ZhLB/3m1P+7M8beL9Jt49HU/bb6fjz+fHy++Xh27Zn34cf/Uv/LngvHPkXIcF9/fyl6Pc/v/x9QI47J+vAK1RDco+EGdon7V9IRehfazK3nsKBQAqpaYBTA55EMlrj0Mea64CuFIpChADReBDbdT0lmIjB3yosiVWgJSp8m1AYcpeAXKgAHwogZr2ITOlcBsgrznquEVqCQAiZU2rbLK424AktGqna6AKWEqRUtaAQgx8ENZZr8BuZO86gClqljhRBk7HPDhZAEwerRDH6wFokt4I4Mhrp1saFbsKkGQO2ulWKAKAr6MgF4DULIiDF6edBVRQD152HCyAQbZKyedqAQ2V6MiDpQe89bX1eiCXPrOAJHeePABNRhzgiSLQJp1NvB4D0ACmrt37JtiPW9l/QElh81rsHSiENPHJ1DzivwRrz+D7jZKf7EHZ+EA+TgCUcolSnTxAgELBW4pQ6Uud+SnG7xTmvEJCSVfs7BRAAVkkTpth3tMaVXKgNPUKNBWWrP94YbYpURvwOY1JfG0PohBWgsBgP47KTClw2K20ugQLP0zfR3Lns/Z+7hRlTJSbOWEiECGjkqbVpKkfJK+HwFnxIkPTgVKToDVNah/LoLtIVhilIIO/AKdlgJgZKNKiosEvcktLPBEvBTgdFxev5FEGtIraidoHEWAMiln0lOlgeZEz64pNaNVDqotIQGsWxaZZ6jIVdfk0htIihHmsuS6EvS3/TjQCVFsPXcwDWtmvHReQtIi2Y7xzIBGA0+mNTzwsByhtj09UYp91FPCJTewrG3vUkWT/0/cjCDJPQ8RBacGLHH2z98iebQAcPkE6OzbxxGlhJMwH7ZPVau/sR4SC5RP5KwdatvwgPrsys/YoXm2ayTgfPn1F8AGAPLzdSDztD4fLhcb1e3uDIX9dbj/i/T8=);lineShape=1;strokeColor=default;" vertex="1" parent="1">
          <mxGeometry x="82.8215008914533" y="403.0217861961372" width="3.7019684117073797" height="54.26124513630579" as="geometry" />
        </mxCell>
        <mxCell id="4sS2UoN6tuE5vPNdZj_S-99" value="" style="shape=stencil(lVbLctswDPwaXTEgAT5wTtP/yEyc2lM3zjhOH39fuBq5Jhxtm5ss7woEsVhgkrvX7cPLZsr8ejoevm5+7B5P20k+TTnvnreb4+7kT5PcT3L3dDhuvhwPb8+P8++XhzPy/PTt8P38hZ8zzyq1fGZl/jW/SYWa/XnzeSbsd89XhN6o8EDIQlrWCa2RtIEgTF3WCbVRriOhUavrhGIkYw5aiBMgJJI0EIoQ93WCJqpjhJrIeJ3gl9h1IPhFcwMEoV5GQqecAcFzkJFgVEAOncqIT8zEIAfXQYkBVNfxQtlGfCNDKZMEvEcEuuAoC8tkQHie3VizbmTg/Ex1PI9LHd1Ppjw2Qld4Pxrz7ZkKwHv0UUI9kYICG/UW8QLwycO3eKAM+izpTQSFfZZq1FyvpCjCjVd4zQTU+EwYO9lFIUh0dfnelepgnymVG1mjPvNrzeFIBiPYUtUrPOqbSrVGfIO644B3K0B3unTVlXUhnfLy7wUvZCDfi+tc8PyPPo6aaBDvXj3ef/cKA1/5KN7HF48F04sK3yfYzUAzYpCBdkqBwLBvSl++dxnKeXG/tRkbiuwTq4AIPsU1jBs4z7zRg1ckaO69xzZzOwbfd81oxKMJ7ragLeKBuZt7OQe8gvN7jyQL+QpoGjeRsHdlquj8nWxUqUKfc0+oo0jrsiS93wR805adFLmWxQ0n8eL2a4TgiwnPP085BY3qsvOs1eBju+x/EPzh7+r8tNvv5837+v+4avureU2X+98=);lineShape=1;strokeColor=default;" vertex="1" parent="1">
          <mxGeometry x="76.91659331508481" y="401.51078750107104" width="5.631031379262432" height="5.258820764281414" as="geometry" />
        </mxCell>
        <mxCell id="4sS2UoN6tuE5vPNdZj_S-100" value="" style="shape=stencil(lVbZchshEPyafe0ChuF4dpz/cJXlSBVFcslyjr8Pmy0UMSu1kzeWnWau7oFJHt62T6+bKbi38+n4dfNj93zeTvJpCmF32G5Ou3NbTfI4ycPL8bT5cjq+H56X79en2XJefTt+n0/4ueCCgyszKrhfy44gpj8bnxf7/e5wbV9R4mDvC6LcB0RB9aODCEcAyUHCAFAPcfcBOUJkAKQMLfcBtSDrAKgCFwmgJT2GVCOiUkAdQ6qKygGmDTVDKgG03yaHghQIIK5CqlBPAAEuW0Al1Cgth7QCkLKWhLAKiXGpCEq2SSuhRgkrDxmB9KF4RNMHRSZ9aIBULTUCAwQU07jQFXIbEFFMDh6Z0LvkXsQrAFNcbYozZXXIDCAr8jlURr60ooaHZirR4GyVKL0bmY0HoWz1rk0+40I/EnU0LlLX1L0k3Dj65rTYnFEUE1JFIEnMc0stoDCAs424qsM9NvloXSQmoQitNmsWU1OElVDuO/8OyCQHrZ3/HZAdHccxIo+KUIUnHkK7cUYPkvusuk2/puGxrKFNEkImBx3tE50aK3IrLemKFu1+I0Rt48Hc6X3O3k62D4dLrp1TN82lK/3CUQQifbXBXEp1mz32WnPw5HTfTlNjz/TixXKtnU+mtVdINPZMXr5d/EbBEHZ+Qc2m+ELK898Pwg/t2+Lv6/Nlt98vj9fr//a12raWl648/gY=);lineShape=1;strokeColor=default;" vertex="1" parent="1">
          <mxGeometry x="85.35484210694062" y="402.9530840785545" width="3.7630207944691523" height="7.523007057511677" as="geometry" />
        </mxCell>
        <mxCell id="4sS2UoN6tuE5vPNdZj_S-101" value="" style="shape=stencil(nVfZctswDPwavWJIghee0/Q/MhOn9tSNM457/X2hamiLkLRx+ybLuxQBLK6BH973T2+7Ibj3y/n0dffz8HzZD/xpCOHwut+dDxd9Gvhx4IeX03n35Xz6/vo8/X57GpHj07fTj/GEXxMvUIojKbjf0wumzH9ffJ7gx8PrDO49lWzwXLfxwVGpBu/B+RxJQofXC6ZtfPIUuMN7Snkbnws56fCOMji/OgrF4F0AeKHEFu+28ZKo2PsUcB8Ris74pwD/e3f9fiMkqsBBUkl6g4UyMqAQ94LwCUZALfa9h0KkWgCBW4SuEioUgM2ikjEme6pAdOIp9kHIuaXFFsH1WVOEHAqbo9oTaiVGRiuht0EDU9GVVMd9oqlUgocEZktARqu0jVSVUIE0lOC9JQiQxuiT3oaZfNcZxWpj/ATKz9LSd0YoiJBtgRxTEIhJCaZiKMEBuY4EE4hKBUROCXFBYBS5TDVZgkM2FIrG6IJDXcknS8jIaFWzLAiCC+uCULG+fV0YjTPIfkHdipPaJgQOnFxr+1wawGglxIWWIs5RWeRoQZGWZuK9CVQp9wl0R47aUH9QBkorXPcWmrxS+2Apyyu1L+AvBFM2Kmwp/0Pg3ksVq28sTL0NYw/CZaMuulwEPUjjYGY37aMFubUuhr1CHqec64cHnQUSau2exHSIRAF9QcdNI75WFtbxkXx/o4TbLpPYeUyQT1WY3uDR/XX+LPb8AM7X+Tbb8wWcP0a09w83lazP56l1mobXgR2oVMdxMwMkvF8EOx1mWFzUOguPoHoF25tzG6fXb0M5GjhDuLOno13HtcH65hoBp+smkqwnQbq7NpDe4AEEdrEmRFijnQ1rbG1hA24Gu0gM4cXC0XTtm2UzDQPNe1sHueXYhmb+aUP+EK4Pt2X85XA8Trv8/H+7vOurafHnxz8=);lineShape=1;strokeColor=default;" vertex="1" parent="1">
          <mxGeometry x="53.83501492740811" y="372.31111416722183" width="13.328254738486587" height="26.218229677167074" as="geometry" />
        </mxCell>
        <mxCell id="4sS2UoN6tuE5vPNdZj_S-102" value="" style="shape=stencil(7VjJblsxDPwaXwmJ1HpO0/8IEKc26saBk25/X6qG4ifKb9IC7S03x+ZEXIZDShu5ed7dPW037J5fTsfP2+/7+5fdRj5smPePu+1p/6KfNnK7kZuH42n76XT8+nh//vvprlm2T1+O39p/+HHGBQq5gdj9PH/hyLnfX3w8mx/2jwtznylFY5+AvXjybrD3JGXdPgTiMtgL+bpuHyNVGewThbBun0IP79UfR8EDQKU4OuRTT9lVQBbi8QTNcRQAiCQ8hqxJADHnRNUPgBC7k2uAnAZAzJRB0OqSq2NWCyXkkqc60ihnKgzSmiiNdSuaBnBCcp03HVAdFVCHyJapNXQn16gnBqAxRMDtTH5Ma62wcMJUJ0DF3ZNHl7zD/Smuc215BCgE1ymvlRJIExeSOWqQJs6TS4UyiEFbuAYLcKCpeSKTVk4Avxtg7KCaKKIYEhWTpQj5rUEHsQCPTijEBqCygeqgWWcL8CBLSg1bOKGSAKCQN0ErH4HOROXmqALao4LUWHVm5HcpFAFAQ8yjMJUAuaR19dECElBjZU4oFlCQS6qMYx2akiGXqh25CqigDq2DjVamrgurgLHSRXsQCJMC4lQHpMatgw2g9tqvpdXqfYUdp4WTCZCRS2EKuvaxdx0glIoFoMleeYqhdKW6DvBd3RcARuTzdtnQwqHtpDWkOSHBVUBj4FFblXwFnSB2yCkAbWRaByMzrUWRS3GK4c0WtaqhJ+AW5anjPFDvNtGm7SRjQGFbB8SlxRxflBrNLD0iT+zzKE31irgivW9Tdmo5yD6VoWwBsBCpM+EPASn3wb+YWRXdB9jq/UVIrm99fpq7uvW9L3HvS9w/W+KA9v3/JS44e6HWEVBRQ+R+gV4scYjfMdg1UZUMjUW9yjkzIYQiiKGtiaNLlyvwmmyYwav3V3Qz01u+zDdkEHQDjCeE1NVzzaUwVloiFIEW9OgSR5zWWWcKVI1Y+nL+Cgj4sYV7mRaPJ0i+A/e187VwcHFVdocxhATntNcb+DiAIlQAsa8UeJXh2dyhZrYsDVBdpsET4MuVs2onkA2uR3YxFzAQpm2E4e48dTDDVWQSLQ9fxFwfwBdz+CZpM+PwGLAXPAd3crGUdHCM/eV76pvm+uHydPuwPxzOL7/L3+1Tr351fiaW218=);lineShape=1;strokeColor=default;" vertex="1" parent="1">
          <mxGeometry x="71.67126196449385" y="376.9283410327214" width="8.469916397594975" height="13.771025698591984" as="geometry" />
        </mxCell>
        <mxCell id="4sS2UoN6tuE5vPNdZj_S-103" value="" style="shape=stencil(rVhJbhwxDHzNXAlJ1Hp2kn8Y8DgexLEN29l+n+oMJI/Y3eUEyG2WrpZEFotFHfTq5e766XgI7uX1+fHL8cfp5vXuoB8OIZwe7o7Pp1d8OujHg17dPj4fPz8/fnu4OX9/ul6eXD59ffy+vOHnGZezxLCggvt1/qWq5Pznl09nwP3p4QKQmtQVoEQCwN/NAtTvA6KK0xngpYV9gGapaQY4SWQFdRLzBChVgu4DQpQ4n6FEaWQFX6X6CZCbKImSj+IMIIhnACd+BiRsqewDsrj5zLGKS+TMNm3RS237zyPkMy+QlkTe78S5+XknrZIDS5v3g6RU8nyyGfBNIguoFz+zCDkpJKAeEZ13hFcEFlHtCRo5lkhYp8FyQimHtFpKBJoBFFrN5vlAMpySqDPPe7L/hcF1et5RBhVv9z84sv086n4WCk/3XxHPYuJZyf5r7q8bVS+Z6FCt0gyDfCfhJqChhg2DhpRtAxBRk7EknnC0RdE5BariSUxbskqnpXeIbUCWPCcNOlFIXbYiZRaKmHvlbQOa3RKUzrOwti4Mo868JEIM71ZilKsUFqah5oMamXIVpw4zoPLiadprZQDwChJXsNVUM9jCyJRXbROnSmSFHG3rvwjcngIUb5doDOCkZAugmtQ6/weg9khvA2rn/wCMwG0DSvdDA5BoIgBo5tCwVAwAs2C2FKgdQZSC2ZLv0rarxLNSQnqUVDVSHbwF0BVWWrmswNhXu725OAOr6jzIeRkl1k7g8pLNQyGZBmCdaeUAo9/gUmOJa9YygK3K6gHia+gN5WErpO58LyuOZVolrgEkrNBS01IW2SCZRonmZA+dyRlQD2qiVCiXUHHF0Dt1qdoFmC0Nwu9tKRq2Bl7TzXY50DsyeuNvE9bhqP8PAA1H5y29M4jV1Kk2mlyjbF061LwCxqRIEgeA6VlL32WWDABjoT016QDkOUpwsY6bPmNaY6EFhCgZ7wBfnYhqIA+mHjTSyQfTrBrXl+mWMM0am+i5zMC8GOXzSntcgbUw9SCNnDlHO/o0ylUkyagS5l2W5wiiOQuobFiCX5tPsAyAJEYYT51x94F6GUxHee3uSZDeknQxsrKGhQHVz/WGicaxGdrbMwTesJqdyEBVJt1L0A23W0/MNmBlc2PqTXUvSEb2EjfSyxBsLkpqH1m2AcUyA+xNbE530gyg9pFlm6ygktHJ0HVtuxyc7bkl0cub5ZbOSHemY9z6HnABMBtQJK0mIDZkISbZWQCdBVqP+gCUbgz27FgwUao9lXsAY7zLsOJ7NxTmBgEdMbMVVoB3ribXW6qeep/1oZfB8h0frRbAVGadOPgGds+1pkblHfGfL6H/AoAPb3fet6f7+/OV+eX/9o4cP53v1/Xjbw==);lineShape=1;strokeColor=default;" vertex="1" parent="1">
          <mxGeometry x="88.26757003182797" y="378.27728361282345" width="9.964614957810877" height="13.033987774899028" as="geometry" />
        </mxCell>
        <mxCell id="4sS2UoN6tuE5vPNdZj_S-112" value="" style="shape=stencil(nVjbclsxCPwavzISEro8p+l/ZCZO42kaZxz39vdF9RzXgpN10rdjm/URsCygTbp5fbx72W44vB4P+6/bn7v74+Mmfdow754ft4fdUZ826XaTbh72h+2Xw/778/3p88vdsBxP3/Y/xj/8OuFSopAHisPv0zeBUvz7xeeT/dPu+dKeSeJkzxQStI882WeqDOwjNZnsG5UA7IVCmOxjogwOlJl6nwGNKvBYCuX5DepCBG+ovPx8BnQSeRvQhGSOUcrUgdM9L/93DmqgWAGgUWozQBavVgExBBtXCZRBmHqlNDshQgwy3TrlMgM6NfCG2m0iSqLe3gaUtpz4DKgLu9YByv2ZGzVSAQDlRp/jWoVSAQBN9Vxu6hWqH1EmzGFtWoHoDZnKHNZBrw4B5kitEaOCUMCchx4gmRSQ6wxgYnSkuhDhDNBMgyOVc0zOAKEIoqTUKOZIBRe1UC8WUAH5WrDCpxWCCqglSuZInQoqIKaULKBmWEDcLADVQ3U6o4AOojTCyg4AMl1ce7hQnrcqqDqvO9A+8YnokEwqjc0looFE5HPHuUwE8EEBoViAADJlbZrdAjLgd1bpyxYAhSlRcQAGRxpi7ZxmwL5SVviNANpHxQPAkWpdiVJCjTc6YcJh1RplFyWUOK3RHi0AUUNlw4rrla5YVooa0bsGKi5KqIBKXibCd9eo6rdzAsmA6NTnCqIDbuRK0YcJpForKDgVQGI55kSnfUiO/wdQjdMVF7UTS+1BDbAvtRVABHnQbSAbH3SIA5ke07kBJNghWJbO/85ZQAGGfVemjQEwGwSeZxSQPzQxsWtBV2YyVun70NTHTsmqQCXTtYnnKI3JFe1lKqWzD2M2BmzVNsp++kYjVrBv0JZR0SzQbFccGwRWsup3FOBD0aibvUngTFZkWasuFy0kZIXCDBirHF5HZc40446iXDLyPdZRkIfoNvyx8KIjUZ2DdGWjjktE3rexB9sR8YWA9kOzTMPKcWsrvs5QvjRjjkYSbVPdmKO1WxMj1hxERnuavYoJoOZjsJteWHrcun22ocRdXGlirnqwvWYm2WCi86iMdpsr5K/yykcfXQ3FlfCDbCW3RGIyfPjq7Kq9Pvy7p3vYPT2drvkuf7f3evrV6U4w3f4B);lineShape=1;strokeColor=default;" vertex="1" parent="1">
          <mxGeometry x="84.96230078612507" y="409.8788941760479" width="1.9579975764918345" height="103.42696095290596" as="geometry" />
        </mxCell>
        <mxCell id="4sS2UoN6tuE5vPNdZj_S-113" value="" style="shape=stencil(lVhJbttAEHwNr43Zl7Pj/MOA5UiIIhmynOX36QFB2dM9Kpo3Sqwa9r7M5B/e9k+vu8mZt+vl/HP35/B83U/+2+Tc4bTfXQ5Xfpr84+QfXs6X3Y/L+f30PP9+fWrI9vTr/Lud8HfmGbKmkZz5t/xh5j++z/Dj4dTBcxHw9use3FLyAu7LfbgnK0+PQJhIIUo4OL1QkMKkAGR3ZLLEV4BP5CQ+A9vw6ypNn4E8rG7p1XVkEzCmXTy54BNVhGf5e7yNVIHCwVK0vUCFnAeERKX3AB9RgImickG8hciYkMn3X0iOnL1P4NcihjJHNPBCyhR6kXJajhgSMn8hdITCSgOz5kwu9YRIERDaeb3SJZPNgJDIKkIBSlcjQ4mPyMDT1Us/lEAFBF9lkVxPcJQQoSgrmeWbY0Kl2kdrruSR0kwIkoAKRiNkKVIEodEIfb1jV1bgOGu0Izxl8IkRI1IGRbUJVWVwJJCkAy3YsCuE3nUcX2lFpD6aqiW/YlgrCQEYlgmlSJFQsWyEJJUuK18QZaCQB5WpEUQK4UIzIAQKoG4MRHJrnhYdiOPV4IwQZs03V951nJEENDHo0GDCiqerqhsWW0kn6YofZAL5pd5uyFFk1xEjw7ltIFShvKJ2X8w4I1Bz1+WScw51oWGSonGvEdwmguoR1eGMUF2oBjig6D5X2Q8oq5XjWEg0Dehe/cn5XxwH2HCoM+qBg5VATUWPNGwmAwh6aOLoS5vGMi5NAa0CavDLARaONlr2SqcIe0obXvvY4Fl023gcDAWgtB7AeZ5GpckbmdS2wvFYrxA2QLPqHcV6MiAh9BLUCJu2rEbYssUx3gKJ1JJo8QqhdlDGOzSTyRWX8Sjw1AbN+AgMpBZ0xmcwmZiBPSPGC/s4OIMy3ku8AdXFLPHyUb9g4zFL/bzVFjhMqnrKpQvkmIInWLiUMGGpfF/Tdasp4VKlPLVqSHkd4eDNzsaLoBU4P3zcOb0cjsf5yurze3lHxX/N91v+8T8=);lineShape=1;strokeColor=default;" vertex="1" parent="1">
          <mxGeometry x="-96.06392460185384" y="497.64798717005374" width="332.9847597669359" height="4.700196345289961" as="geometry" />
        </mxCell>
        <mxCell id="4sS2UoN6tuE5vPNdZj_S-114" value="" style="shape=stencil(lZfbbtswDIafJrcERR0oXXfdexRougTLmiJNd3j70QvkWYzzB71znI8Wz6Q28eF99/S23Qi/n0/H79tf++fzbhO/bET2r7vtaX+2p0183MSHl+Np++10/Hh9vvx+e5rI6enH8ef0hd8XuZyptUlK+M/lDVPK/158vfCH/euCL0IcB15JG+AbZRn4kCmAA9S+NwqIUIi3Bap9T0cB7TatCjQmTYNAFErghJa6S2YBbENT4jIKmFVIoFIbvZosDMCGwEzMo0SiksARjUIdBSw0SKfsI50TiYBAKIUwCjRiYIQmH4iSKQIbciUZk1WFBNgweXE8QRs1vi0gqWvcBWqhBlQKgXh0a4uk4IRAZUxvC0xVxMtowSL0qwJMNfsDkMlMmT2fQdS4J8GCR1E2bZ0+lVKBvNPHagfz6nkGDjX9HV/u6JPHWm4ZthemJp5XUDaBYvB8AfpYAjXPV9C9rGGLt1cC4qV4HvnfeudVvBKw13hnb4X9XXzNG19RCfvea/kZYYG5JmS8Vhgv9XwDPPd/lzzMtxKu9AH+5Kv8aT3Db/CBvT8L1N/XY73Tf9j5UylCPrj4Fiqgp7Mfxsaj/OG+nyzrEdbv5/hgAXAjo8GGItF33CqUwYyJrRf4PMVsToITsvYOMg9W7WvY+iSOfcjNAtzLdH3WFz/2cux9b32biL5sbP1gcMLUxce8TmY0OiH7Rp0EDiZTyS0H5mi0B1pc1e2BBbq1JgpuDxTYe9VSf0wNKV3J9fW69u/N6wHe6qa4juMgSN8w1nMp9Q1rjnQfEOu85cHIJ6rAR8arW33vfT+PmRf7RnWTHw2Wvmvf5IvjoX+in8cBrk+Tf9jxqA7M/25vZ9gsjM/B8QLar/HVf5+RP7Pfn/A6anzJjkd3p89eSO/z9vD/9vuyPxwul+fl//62bK8uN+34+Bc=);lineShape=1;strokeColor=default;" vertex="1" parent="1">
          <mxGeometry x="232.10148746900677" y="491.178046130844" width="24.749068076382173" height="13.77091467147862" as="geometry" />
        </mxCell>
        <mxCell id="4sS2UoN6tuE5vPNdZj_S-115" value="" style="shape=stencil(lVfLctswDPwaXTEkCBLkOU3/IzNxak1dO+M4ffx9oWqoBLAE1zdZwpp4LBbgkB7e9k+vuwHD2+V8+r77NT5f9kP6MiCOx/3uPF7kaUiPQ3p4OZ13386n9+Pz/Pv1abKcnn6cfk7/8HvGBYg8gTD8mV+0ABT+vfk62x/Go7IPQdkzQyjb9ggtKfuCUHjbvkLLyp4YGm7bxwalKkBCyG0bkBJwUYBY3RPEgaxDrlCciCXApO0jNCdizpB1CZYcr2eoAuqUJki0bd8YWNvHBNkJIIarIiNDie4RQYdACFjdHFXUOUUITtVy6y4vgAQ1O4AM1QCo53kdgBCjBUTnBBIaNBtD8QAZmqZqDb2U6wACJNts0QOk3lsLIHUnt05Iug4sLjncoNIdWPpZXPJOkObSXCrUa79Vh6QVoCRXkXKxhROAJ0nCJW4WUJ0Omv7PnJBdEZPPpNNaao9qHVCANTU4QnGCFoDRSZERr4HEJVMHrkAOlyRo1uSrsQvbOiAAmwYSYXJEIPNKx5HX04vQfQY4ukRSabYu3aC3qYME7XYcAV+lFb1pkqwaM7lCJoBmelrq4JBPZIYMW6svZAzV9IOMJH8i3gf4UKFlZPkDhYXeOgYZiui1aLBDWqZicwBCDTPjZG/wCjd5rMknlfHIh82qt8wkdAone0LSQU9y7xROAFGfcGN5kyRWTb6GwP521cwJ1HVkHVBtHVqB6mQplk6EBSBS6W0n1Nm/ABqQU+kY+3q37D/B37AapHYXoFxlyXfpSjRuxIw9hf+b1KsUUe/YjaWetOrdoMX9l4Zb9vLwcUN5GQ+H+YLz+bu90cir+TaUHv8C);lineShape=1;strokeColor=default;" vertex="1" parent="1">
          <mxGeometry x="85.25737229200013" y="497.16172013773325" width="4.5568413689449825" height="4.941076122107006" as="geometry" />
        </mxCell>
        <mxCell id="4sS2UoN6tuE5vPNdZj_S-116" value="" style="shape=stencil(lVjZUtxADPyafVXNaC7NMyH/QRVL2AphqYVcfx85W2Ms2W6Kt8VIto7ulmYO6eb18e7leODw+nY5fz/+Pt2/PR7SlwPz6fnxeDm96a9Duj2km4fz5fjtcv75fH/9++Vuspx+/Tj/mt7w5+qXKKXJicPf6wOpVOT/k69X+6fT88KeKbKxb41C27ePFLKxr2082bQPFIKxL2U82bHvzdjnSA3En6hEY899PNm0r1S7sY9CAt4fAzVbUH0CHQrlYjOmWkED9AM2Y6bUgX0jth3TFzAoUKIcnX0ABcqZcvb2oGElEostEGUQTxGqNp5EHQCoVmJbz0oC4m9plGPYdxJQ/9ap2vdHJgYOIr7BUSMq+w49U7UV0hYLKFEXYtuCFCmCkLpi3uacGpUEHbqlgba9IdqHNZEZCosmUWzWNQzkbjuoUFXrUCkCZHQejZ21K5MAB5mRM4ujigvGRrFJ6yugAw/sz+CLQ2C30V0oWfZ3fQLAVBpFm4MWuoI+5ErZCpg2H1UpaYpOIgOWACWMGwrSIOcmUY2+rkg0FK4WS5KHju/Z2zYIQ4pqQMVloIMOfCBGr9oTVpCDyrCtahM4qHSOuMmmk7kjijaq7L8QQFGjKl/wDhVUSZXdSbEmLQAY76NsUdaEhiFTd4RLFFFI7MezIqOjfSeuvlAhf3T8ucbpAAgIS+IHijp0xAYVPosl6ZQQNHREi3cI6As8sLkIiYEGxBn9iyqhKa0Eii7pQgwZKi5nJQiWDLZir1BCYNUUkmt0wH1jH5LSAW0a2gY3TibCodWwelmaKA3GtEKpr0JKGKxtxdAEROPTDrpO+hmqUAI56P7OK+yhhTV3asE7ZAAlPVF4wjXIn8p+l1HRQCtf7aOvCyyhpFshsbLUKqSDvq87LDEk3PsAnLclgXu9iM+h4D6opkT7Bd34GspBPJZyGWeJPYdo4Z0UfCikSsGWNQVcVvYOnOEA0sa5Ece403W1euscbsiB/cY36QgIqeTVPsZwL87J5yAjxm1KK/gd9mBAWkJx9Bkr5p7suV0pfqD1vDoSB8jPeaFdwCIDEWv+aJIZb+l+MpR5Am/Dzs8qPckkdJLxXG7zoXdvtrHrQIFc3nCYT1t749Zv3A3OhY0NWsZJZW9FX80RxJvuL6pUnxjp3aDtwh7t281fY6h9hRdJ/qINv7/4Y9gUPxqDG1tkA5jIQ/2X9Qf1TP60PTUYSOlnLxY/ttcf77eYD6enp+sl6PL//tZTH11vTNPtPw==);lineShape=1;strokeColor=default;" vertex="1" parent="1">
          <mxGeometry x="95.09780830119303" y="507.6288230375253" width="9.665987581259937" height="11.076620556793516" as="geometry" />
        </mxCell>
        <mxCell id="4sS2UoN6tuE5vPNdZj_S-117" value="" style="shape=stencil(lVfLctswDPwaXTEgwOc5Tf8jM3FqTVw747h5/H3hqkoMyAGjm0RhRYC7XJAD3zxv7542A+Hz6Xh43LyO96ftwD8GonG/3RzHkzwNfDvwzcPhuPl1PPzZ30/vT3fnyPPT78PL+Q9vE65FaPWMInyfRhha/jfwc4rfjfvL+ALIKj4gcHIAbQHIQOVrQEAERIWQnMjLqUJtuoYwV3UdkKBFBYgE2BwAQdFFJBlximgBMChAZkAfkHUNRWogBxAtoGXA6Nbwn6cPQAEOXwNqgqSlIQsdnRlKAjSABuzUkMOstQtAdZiOxaZ0oZarCGaIyU5RnJxImFvkhE5OIUBBu0yemPKChzzr92q80FB0fILs8NZmkj7iI7CzG4IsqqmYXdpkBjQZESRHGLK7SrWAwE7JBSiuARS0O7qTUqWFLvyiGy5o8JdVPkftGT3eGPIqYdQKZCzAV16p0ExKvrZzhrQAeLtHbDFq3+tu0Gr7Q8cDSDpWsACPuRBtTj0fg2y05Btlmr9+04nXxlcb32kNwrKWRaf3lLkff7O5ReuQne4ZIOj8O+15bf+Xva/z75wwaBHvH2GkrZHO3z0iib+zCUdHPTJ50OZI83pdj5f/a3kGV51Cl3E6hOysPgu9Np4c643R9mR/w6cEkVbEZzmsrclHTiFpTb1VbLesWM8q9qT59flqi//7elh9Iu/Gy8Pn8f9h3O2m28Pld3tdkKHpqsG3fwE=);lineShape=1;strokeColor=default;" vertex="1" parent="1">
          <mxGeometry x="139.6871423597072" y="492.53586104379406" width="0.9114993207643108" height="10.277331917987924" as="geometry" />
        </mxCell>
        <mxCell id="4sS2UoN6tuE5vPNdZj_S-118" value="" style="shape=stencil(nVjLctswDPwaXzEkSALkOW3/IzNxGk/TOOOkr78vVI9SAYrWdW8yjZUAcAEsuSs3Lw+3z/sdp5fX0/HL/sfh7vVhVz7smA9PD/vT4dWeduXjrtzcH0/7z6fjt6e78+/n28lyevp6/D694ecZV4RynVCcfp1XKqXxZ+HT2f7x8OTtOTv7nKg2CCj+A1koYUAtDsCZRsKA4QFKXQBAqTQHKIVqBYBB3D2gUwcxVKbhXaqFGAE6lQCwGHgb0Frch5apgyzJW4hvgEapbwOUqasHmJPgC50p+xgkU9VtwEiU/T5IJQEuDaHmqSEDsjWnRCk5hDaIGIMqO4CFxcinQsP71AdlEHVvJOIAo1IDLpnH2X9h2EYAblgWmw96kYf32VQoc/xEL4CvmXTEIAYA8Ig+9Q7pl6kFbgxYEImaz6p06FCam9Cbvc5837IP7xdSUNGJxMcrjRRsQSbx9Wy72DNIKI0e7TNgkXHCV7M1BNRVV31+sgf5UdIS/amoW8xvW+Qng/0aczYW+celv2ouShkVMo0VgRh1irmhLwgK2yNlH4CmeWVjA6RFe0ETgVKJ9oomOdWVPwIJGvJj9gkWTK8xP2gEWjbW+ccFHApM5ya2YV8C4WTO2Ea8HAiN5yVHFWIFUEB+TGf5ljsVGFAtNjbWBQz4oyt+VmKQn75qWBVqnGvtJ+XoA7DJmkAApoCaz2hXWGEmaNSHPCkMUALGyJoiAIlZlVljLacYIJGFKL5N9zrL2/cBGmmktgJo0Uts7GqzGek6iaPbCg3JZVm5JA2Ovqar1stwFlSZmbyUmohL9rcvTlMwDIqt5JglY1cF1WDtV3151kQDAWzA+hhKhfPDGnAo6AvHFgPoVQcjA3Qfw4WjlwGG37gLh7upifmg8emRazwimPBEEVRS/36GM9yaZAuHTSoopTZkfUoTFGm2QyPaMzg4mkgIJ02sw0uKKueCPcchhf2xc267Jl6jsPAV+Sxtpsu/7ZfZBxWI+fAftxUX7O3h79XI/eHx8Xyzsvw/XqXY0vkapnz8DQ==);lineShape=1;strokeColor=default;" vertex="1" parent="1">
          <mxGeometry x="126.39394134490021" y="506.649787785072" width="7.714228373572041" height="11.358440454508907" as="geometry" />
        </mxCell>
        <mxCell id="4sS2UoN6tuE5vPNdZj_S-119" value="" style="shape=stencil(lVfLctswDPwaXTEkwRfOafofmYlTa+raGcdpm78PVI1cA4428Y2mscJrlwQHvnvZPjxvhhReTsfDz82f8fG0HfjbkNK4326O40lXA98PfPd0OG5+HA+v+8f59/PDZDmtfh1+T1/4O+MKcZtAKbzNGzVS5H8732f73bi/sI+JerKAQD0CgFCLHpABIFUq2QBKo9rWAcwkDqA7wEOOVIoBZKHaAaBRd4BEAgAlU+sGwJU6AGjVmxhAEiphHdACReshRUp1HSCJSjWAQC0B+0y5OPsAApJKbPsclw98bN9I2NYUNk2Eoo0/akCAqQroDlBxhYTEApJ2GaUgvkTatIxq1IkdLTL2oKyx8mTBXSgULCBjPQtTvAYgXkRiWyXuJECeXbx4GHe69w+0wKBKCkhOC3pKCQSw9TBRA5RVcwgWIFD/Eog9uZH8taiOeioe3LVuxfaJOAu14MWPvt8W9+eeLafHGrFdPH2h1ZpyXDwxUwQJxHBO8NzjsFwsay6qY1FbmrKag/WgF0vKuEg2adZ7AgGKDykHqkj+twIa+wNGL1sGjatlEfsZIFD+ehdnG1Jr8BgukYL10BPkRtYcHEAg+bhQsQCVRwMelAjVVknOWa3OMNbDBR+/OCZNfASAqzlM7RMaSSi4FDpUdPKXoaYcUMp+gJnmARBPIHH5at+BFoKfFnqFt8iV/JVFaD66sleaCrR38aiUMozf5au6YRD/VT1VeXJLvyovEX6NDzpRopH21rn/c3td/H9kPI273fxGufzfP0p0a37Q8P07);lineShape=1;strokeColor=default;" vertex="1" parent="1">
          <mxGeometry x="123.66907562485744" y="506.0217235935786" width="8.820069214043022" height="2.5021489563071424" as="geometry" />
        </mxCell>
        <mxCell id="4sS2UoN6tuE5vPNdZj_S-120" value="" style="shape=stencil(lVhJcttADHyNrqjZl7Pj/MNVlmNVHMslO9vv04xqGAMjtuIbRaE5WBoNkLt48/p497LfBff6djp+3f883L897uKnXQiH58f96fCGq1283cWbh+Np/+V0/P58f/79crdYLlffjj+WJ/w645zksICC+32+UaLU8vfO57P90+FZ2Sev7HOWmJi9c8o+BXFt2z5Kq8o+VKl9297DIR0AjvRhG4C/S1cAHykgwmEdcpXitu1TlB6VfRwuXrTPSXpW9vAwbtuXJC0Ye0f8qWm4uwYsnWS0RXHBxluJfZOqS+YLTWgP0osuWR41uQzI0nQEEScQ0vU6IlxZlyWxE7p4Q+skgRTBu4nYpdLGWY7QPjUngaSpdcsLJC4Tn5qXYABldPdlJqHZkq6c41zKKF3TRzTJmTaDibonqaz/0Q2afd3RE7rEZutA6S1ZV7pkydS+aHYja56kqEvTRSiOBuy9DTi3oYGXAehnfUKuktkJdTjwDuBI+0BQTIMCEEnMs2ojBjYVQpHgbJYcqfIyBUzZwmD7ZUAb/bsC0njE5gkGUMWTOiwxGMDKxa0smUpXL45QD0JtlTiIJ0Gj0i1aAJs9Ptm0wqVOKr2wVVOjYloxsZdm2hPjgqmenc6ljI1jq50NkdYsb8mFaU9PNRIBe62RuUtiNYhSpm7rpBcwLU0NAPBs9vRJMTggBDtJFpfYjpStSC5BMwD0wdu0JtYLHwVg8iQtMcu4I8TA88za0xLVVbRK0WldNiFSOMxv2891rGaXAdgkzSxp4sjOgBDN4oNtO7FdzE/rNk4g1KhTv8VOl7ea7WoVHZV6iGLWmuT5MAHVzI6BlmJB5yloj32SUCOBOVrE0FJs+sRVdteNNUpms8HZBopXhLjYoPGexNYMALIZufxFDICkg77ypgdA0PTGphTYCVANLZXQ7sIAaSjpu5FLV5/p1QQN1FgMfpIZ0JFt6ZNHYCOhUrXkvmKfp22S+4NhNikGCzhM/lzJqKQPlcwNyvwnJz7+eeGaPS7+fct4ODw9nT+FvP/ffvvArfN3k3j7Bw==);lineShape=1;strokeColor=default;" vertex="1" parent="1">
          <mxGeometry x="136.8836030875193" y="508.5343610769987" width="6.082531605934491" height="7.810817969985432" as="geometry" />
        </mxCell>
        <mxCell id="4sS2UoN6tuE5vPNdZj_S-121" value="" style="shape=stencil(nVjZctswDPwav2JIgOdzmv5HZuI0nqZxxnGvvy9UD5UAslZp32QZS+LYBUHt5Ob18e5lv+Pwej4dv+5/Hu7Pjzv5tGM+PD/uT4ezPu3kdic3D8fT/svp+P35/vL75W6ynJ6+HX9MK/y64AJJm0Acfl9e9Egx/H3z+WL/dHi29tHY106ckX0Ixr4Eyh3ZV7t+YuKybi+U2NgLU2rr9p1aNva6QuZ1+9gp2wTFRhEELBpxsYBMDCJOYaw3A5hiBYBOVQygDR+v2uc2KjrndCxw1b4Uask6RBn4UzN1u/5c9Kv2LZFkZ5+BfefBmDf/A0ho7yTO/wQrEMOCpVNKAeu6UKjWJaGCYo7ULY1yIQE+lUZiia1lQVnKmaKNuqbx5jqNlAV2B5VyALxQWlZbh5IwIJJYKRSmgMQ2E2HOksovQgB3n9YKtKCAal3KCfY7jcE1jBzHEtcB2pHcDlgO2h5cC1OBQ0AdOZkBjRoKWpMofocCqKGC50XQDFxi9i5lTQMCCEWXpUIBVHoCWHprW0N1UJeSjaHMdFwLOlpNFxl5W0urK1zJFMDRoIVLwQMq6KxKDXfaKgCdnko+r7hEGbkUh1zeSbQiwOKA1gMdNbJJoq7zVaqI3sGzVSXaUZYiJQfAM4A2suZcCrjNaKu05FMBMRBQ1CN0KVHU+Zp3adoBpHUalNjHgE6gfwakRatUPRSgB/W4O4l2CFBBFtfu9ZgEWapM4o5dpgLY2sIgwrvxEE1vbdFmpmEGUKMGH8MEAGxVfXVbB+1UBVRaO2m3XGJlF2hkOoo0WzidSTvQg8gYsWdAgjvoAOYmRKkkqFXmxQmUxwGwpjin6Y17gwLiYppBFxMFuDl94+YTF2nVKRA2Af3bsrXn8WatL7nBtVcKaIfoJ/veNm4/xW3QoX0b28+TdMDDzDzUfhSQ/Ey54ZEMnn0wYl5kaCOlfi6ZagaIGvz1cIMU/3Hf3rDXh7fL/cPh6enybeD9//5jgL66fEiQ2z8=);lineShape=1;strokeColor=default;" vertex="1" parent="1">
          <mxGeometry x="143.27523531944712" y="511.6610395974317" width="7.272564013649181" height="5.547048222998585" as="geometry" />
        </mxCell>
        <mxCell id="4sS2UoN6tuE5vPNdZj_S-122" value="" style="shape=stencil(lVfbUuMwDP2avGps2bKsZ2D/gxkKzVBappS9/P0qmy1ghcrNW5qcY10sHalDunnb3r9uBgxvp+PhefNrfDhth3Q7II777eY4nvRpSHdDunk8HDdPx8P7/mH+/Xo/Iaenl8PP6YTfM08EaplYGP7MbxKk+O/Fjxm/G/df8DEECKEhRIScLjOEIbYW1MT/I74nEARuXcpQPUICai1kBkaHoB63FkhAPAsRSkvgAESuBaSGUMPZyUtB15YgBSS7QWdDYBAn6FqA2ouTCiyXCUzAqSUI5HqZUDToYgnVsaDXRNjW0md5fctIWjoLn7wgMEBCS0AniBiAo00TOXklQLT3UJwQMmSDL1CcjquQpMUTFKf0YjnX/gdB28dpULVAyRLQIWQEMi4lt/SIFzH7BI7nQrvSpZoAZU3QU0fjmrTqZzIu+femDrAh+IVRPwrzyspjsarUqe2ikrJoUK97aCGU3QblRfX5GqD9sBQNT2WiCp/YNHlBlLNSXymUGeIqJV6L1wytGg0qAG17dmYP23buDLcCOTf4zvTMIO35nfGMUNvzO/N/7YIRILbndzYYK16qZg6c7H4UgZ3LUl9LNfjoJSdavF4uO/2Fdp5p+N6IVaEVg/eSTwVCXIEvvPTf84fr0n8v3soW7+dTFt3o35dqR27j9cth7b7cx+vD53L+OO52827/9btd5vXV/Ecg3f0F);lineShape=1;strokeColor=default;" vertex="1" parent="1">
          <mxGeometry x="202.8677010226295" y="492.1284489747868" width="0.7218384681338128" height="10.801844455118044" as="geometry" />
        </mxCell>
        <mxCell id="4sS2UoN6tuE5vPNdZj_S-123" value="" style="shape=stencil(lVbLbttADPwaXYkluc9zmv5HgDi1UdcOHLdN/r5UVdleypoiN1me0fIxw+WgD2/bp9fNIOHtfDp+3/zePZ+3g34ZRHaH7ea0O9vToI+DPrwcT5tvp+PPw/P0+/VpRI5PP46/xi+8T7zWqLSRJeFjelOI498XXyf8fne4wddKVTq8JJK6TihKrXSEqBTLOiEVqqkj5ECa1wkafUgtESsgKEnoCZkqOEEaNe0JlRRUyWryL+ILoVHkdQLbCQtCAyFxJGkLgoDG3TlAQUSREvuUuYGAKIqvaQZtDhRcDyKMP8z1u+CVGOCFsvu+RZjW8Zm0V12zCFG+TNIXtDZiYATOXqajl4BMLYUY/QkBpGDWTQtCBQRlStUXiYEozGrcn9CECrKaNdWV1YQF2mbe9FazzgSYAzsj2AABjbMqeeU1mLRJu7InVOB+6zT3I4/DRe73GYHywp0JiCnN8+rGnRm6QYovkoCcwwKfYNssPYdXKvD7n8Nb06TXkV0TCVQ0MuWeEMN8Ed2vqM6quVxsOo+0+wODvVITHEjZbp0ebymDDLJVvO+x4Hgqld7MDK/NIvPxMz5AyRVbDDwe2aby3NErHnmg5nmPuOIFuMzmc1KHR+PUBo+wq08B9TSHsLr6VyAgc2zoBRShxW5mwlVAGTTss6va//H2cN0LX3b7/bRW3v7v90h7Ne2g+vgH);lineShape=1;strokeColor=default;" vertex="1" parent="1">
          <mxGeometry x="198.35159490948786" y="509.00231210139964" width="2.0739290705930347" height="6.490274886028211" as="geometry" />
        </mxCell>
        <mxCell id="4sS2UoN6tuE5vPNdZj_S-124" value="" style="shape=stencil(lVfZkhoxDPwaXlW25UN+3mz+Y6uWDVQIbLHk+vuITJmMNENTeRsG9VhqtQ5v+Olj9/K+3aTwcTmfvm5/7l8vuw1/2qS0P+625/1Fnzb8vOGnt9N5++V8+n58nX6/v1wtr0/fTj+uX/g14WKiVq+oFH5Pb3qg1v6++TwBDvvjHMAUggG0TDUCQKJuATVSYXhCSwaQIyXgUlKX2ABSotLvA5gpdwOImVq5D8hMMRuAUA337UumaD26ubhqXwuxDTkMllftJVO3WYvUgH1PVJvNMkUB9p2C9Sc1YnBADMHLImtM6AimUqwsKmUAECaJVnjqUwWkdqo2CKkjjetZKxStS8pbRy4RO1aFAiiFQsk61OuIaV3YQ2Q3ey01IKNA4uxVFuD7i5yJRgTKIFASa686RKW/SID6A/zXDFs+m8oUFH718aoiMupdgaID6CdwK8rsT2AUsWrYNoomJIDSKF7VyhE64ZqE7pOQMaC53tVIQBmkBUsqo4RYEs+S6jSBE2KhviiEggBppOkGaGOqrHeX0UpmlYmV5CuzjY58R6nZUVQoozSP7jnrLGjgBN+JpFMB8Wol28rRVhcQoRTs/JA0VHInXjdhtTI7aqVjh5jVTQcSktFnZ4XZAf8qCM7+ADRh1wHghFx9CtptqK+HLGPnuA003Cv0b1cFuhhlsLaox81mQWcsqoLWvOw4QICOTLEsqbIyYKkwVSskLaWIVq8FS5zhjOXk+13OkFYNsUVPK9o3FVDdYoE3WgU4lh7szAoorh3pYgFY0v7lpoL2l4AASqtbRSosOE1TdzEIzLSWdHAuaZMF65duL+KW7IC32rTI3CNElMWGhJ3S+ewXYRy2jqqQ/4dYXRn8EoZTd71QudmDxbF+ZUNBP77j6cO/G+Lb/nCYLpjz//2NUl9Nt1F+/gM=);lineShape=1;strokeColor=default;" vertex="1" parent="1">
          <mxGeometry x="202.04243134700278" y="511.00093350920906" width="5.440774036303992" height="5.287278332730239" as="geometry" />
        </mxCell>
        <mxCell id="4sS2UoN6tuE5vPNdZj_S-125" value="" style="shape=stencil(lVfLctswDPwaXzEESfBxTtP/yEyc2lM3zjju6+8LVUNVgK1te5NlrKgFdgFolx7eD09v+10M79fL+fP++/H5etilD7sYj6+H/eV41atdetylh5fzZf/pcv76+jz/fnuaIqerL+dv0xN+zLjYKPQJFcPP+U7KxPn3nY8z4HR8XQFSoSgGEBMF3gbkSqEYACdKfRsglUoyAD0ybMeXRt3GMwXZjq+dsqUcKIDnt05s4zVDcTu+F5LmCfeyDeCwvMCS00oVIHqnFu0rMQYUapaDyHjL+6Sr14WmrQBAbZQsB81bqbBshQ1AXzIADlKoVwvoEJBVN5bDKtN3EZGqrVwVykDbgZqLZxIgvZs6F00zSGqgaMtcImWQUz3dOkHa0O59M3u+kqmA+EI12/hICfDlQGwJC1MGBVCnCHtARycUryJRs4H+xX1kfAFUYnCCFqHYhleYIpCdVoGtTotQA6+kJ7iGUQPskNwGxQWQKaMOUyhbIVVtsrgO8cb+AgDakKqPR3UrXqnaPzpwWvJlrkoJOIeHb5f4OKbEhtN8zZb2tOVk50yVHShZoO5Up/lEmvAV1n5dQbwM366c2VF/HxNp5TPUuTgORa4AUEHip7gak0EFVNTphnJHze4uALhAVxexTtZ23dDESZ6DGrMhVcsQ5arBMzhBfeuWI51yGdRZbZWsUJOOWbCNTAC3rwlUnnKoVtoqFkEL3uLcZRnRuQW0p39XJw2GWVKKwQEi7C5Jx6rNkvxlq83jeetJiF4pUgsekNGoDTezM8HCTRYNnjTaO3VnTK7HhJGG+4Ay5thSuEoCOExdxq2deSyiWwC3auue2jHAbVRT7TGH6vywzLqttP7fB88/APTiz/fVy/F0mj/P1v/77zG9NX/Lpcdf);lineShape=1;strokeColor=default;" vertex="1" parent="1">
          <mxGeometry x="210.43377878484534" y="514.0172816115173" width="5.631165611843763" height="4.179840039339719" as="geometry" />
        </mxCell>
        <mxCell id="4sS2UoN6tuE5vPNdZj_S-126" value="" style="shape=stencil(lVjbchoxDP0aXjW2fJH9nKb/kZmQwpRChpBe/r7a0t0imT1t35ZFB+tydCSzSQ9vu6fX7YbD2+V8+rz9tn++7Dbpw4Z5f9xtz/uLPm3S4yY9vJzO20/n0/vx+fr59WmynJ6+nL5Ov/D9imuBep9QHH4sbyT/evPxCjjsjzcAyVTEA1pYB9RMYgEiEFAqSTGAWigmAEhUqgHkStwAoFBtBsCFcgeATikYQKyUwAkadGELCBQBQBJ1C0jUgEctUcjGPlAASe1M1UZQqBdgr/ElH3FlAOiULSAJZVkHxLB4vLgUqQDq6RHFEUOzBo7QIDharhZ8QqRgudozBUA9aZSsSzdh3WdGo2y519uc6jWydueTUiOuA1KfmbZELVSASxxJBg343VH3AdRtqZW9GdhHajZJwiTAIdUky22JsJ+D786q/QrKPBCvCgXQbMGzYtI00DxhTvdiz1TA72t0Nt4aYIWZ2OZf9Qn1ZvIkVXskqNlTdNI/JI9e7NR/qI7eH80P7Blqzec/gL7Xatp5UP+i1tRcfds8INb8t/EKnpnLcLnhP+Kn5t/1i1YQdfz87Y19Afxkit3bB+BP9DKq/dgA34Lnj+YHqWgY6qUbAtCTsX8XBq7pg+NnIgb8Uf1x/sSZsWv6NvRLB/lkr+hqz6C+mWIc7EG8/2uvBArdJxRtK1kr7BQ64AVKW9JRQjckQAntQD9jClyIdKmMA0DACa0OU0l5AlinU9SXLVHFJ2TL06RzA9ShRS8UWsqOt0Y36ll3JKRcQtWekBiuUNOks1zKDHtTT2CXJTxcJyI4dV/YdT9Lw5WlBrjfNNU78QDByzW7EyJVRI3sg65YUXUPHVeKBuqggOo0TKCmKqDbwulSlFGWBsCk8jgG55KWEsnYGLToJEVBD2nVfZtRDEPhBPfDSA1lVwZSP5GveQCa/f9wwdaHP9fzl/3hcL3d337vr/P66vpXQHr8CQ==);lineShape=1;strokeColor=default;" vertex="1" parent="1">
          <mxGeometry x="216.87270628978536" y="514.9974367336338" width="10.24723051334617" height="5.020434453945329" as="geometry" />
        </mxCell>
        <mxCell id="4sS2UoN6tuE5vPNdZj_S-127" value="" style="shape=stencil(nZbJUsMwDIafJleNLS+yzyzvwQyFZigtU8r29igT3EZqogI319UXW9IvWV24el3fvaw6dK+H/e5p9dHfH9ZduO4Q++16te8PvOrCTReuHnb71eN+97a9H3+/3A2Ww+p59z584XPkSoAaBgrd188O0LhxO9pv+q20L07YY4KaTCAkAUT+BC0DtQLJE0ptZy4BUQIV2yfmgahPqAmi5XQGRxIgIL8MUIQYJVAByzKQPTgvAO8cOMOJSOCrPoKMI0JsPh6BAtnIHEZwWQIZCJcBz1dSYYqAhg+er1Qk4Jta5oHconjURoFoiAkRgrxSSVCyESUELxNxUvx8HtgHmYeCbWcWSAUQNeCMxJGHEjWQjTwMNa0ATqWh7xoAZY2y4r1xJVaO6gKch59LzifupOZJqskgBq0puUZIRua4SwQFEDgjTFQgKbmyE4b6coJ0VnKWmNLRxQlQLfUd1TwBvOEDnpcctdYzn4jaYjLpfc6QK9doUU5zTVld4K+AgyRr+sID4VpEfvkCnSnPfuG8Ls8M2TBnb2W/iJDNQoAkSw2hWi2ygJeq9mZ3YUE4GU0+0HipQobqlf2FZ0fpx7ZPuZXU7+7DNaY6i+0v8XhR/hBPqlo9dr641ZKMjy2Hf8xTF+x5cRreHvrNZpz9pv/rYY+3xkEx3HwD);lineShape=1;strokeColor=default;" vertex="1" parent="1">
          <mxGeometry x="-6.121950693193412" y="492.966921097609" width="1.0396253817567154" height="4.960779314601625" as="geometry" />
        </mxCell>
        <mxCell id="4sS2UoN6tuE5vPNdZj_S-128" value="" style="shape=stencil(lVbZctswDPwavWJ4gNdzmv5HZuLUmrp2xnGvvy9YWYoBVZv6TaaxJMDdBTjEh7f90+tuCO7tcj593f0cny/7IX4aQhiP+915vMjXEB+H+PByOu++nE/fj8/T79enHtm/vp1+9B1+TbhIzndQcL+vC4lc+7vyeYo/jMebeM9UqwYU8m4bENq83wKolPI2gDNFc0KkmrYBORKzAoRMDFIqlUpRAF8og6JbsTU4cuAAiW/JxBcULwnpeKYYQXyb61sKcMSogEY1agAmwbulwuVS5Y4qPsLwnKl5CEhaepwogJzklppOKXmqBQJ80IBMDihJeLsmsAAKRZSSCE3XkBJlBJC/k63BI6rFjlqrzBQYAJiKLlocfV3ZApiUun1QDTzb8cY+jE5IFPUtNSg+iW9GStiemaoWhps7whbNuZh4yIF4xXiBKlZ20PWKELE7DWX+A8oaNV2ANIyET2ha2L2nYkDWAA6UcUsyXuOG7V8papITz1VtsZaMdQruF/cCSpu7wwwoblbW1uQxQqoO2l9mW9KjqrZ5i/+cniL2BHhYz+c+jADTqwfATev/d0oUzAGSIxollJ2tIIBB4u3gadLlgZudHSNV2gfYX7yuOXunfSPe5FM88T3xXSWAsVU+fUjBeDs2xXrAaKv75EgB5L/iS95ryAQrPUSc/70vzo/j5eP9efsyHg7T6/j2f/sclqXpKR0f/wA=);lineShape=1;strokeColor=default;" vertex="1" parent="1">
          <mxGeometry x="-39.423376219166585" y="505.88929286751613" width="12.180881420306832" height="1.1367818438151776" as="geometry" />
        </mxCell>
        <mxCell id="4sS2UoN6tuE5vPNdZj_S-129" value="" style="shape=stencil(lVfLctswDPwaXTEkQRLkOU3/IzNxak1dO+M4ffx9oapqTNBeVTdJ5IrYxZMDP7ztn153Q3Bvl/Pp6+7H+HzZD/xpCGE87nfn8aJPAz8O/PByOu++nE/vx+f5/fVp2jk9fTt9n/7wc8axIy4TKrhff79Q9n8+fJ73H8bj1f5QSaTZ75k4QYDjBqAnJAGAQiG3FkXKDgCExDWAmIjBCcrZt4CUKAAOagC3gKwqxfuA6Cm2APHkKwBUKqkFCFW+D0iZpAWUSA44rgjF1nE1QNK6zMkCBAEycWgB6mlAuhaqxiT1NAB458i1utZEFTii1s4moQCCSZftCYUYncAUDIkKdS2FUrSAEgBAT6htyn3ocBMhhVxnk4CMEKbY2eQBiawmi5UpgPDLYuN1UhqdoH5qC5O6WgoAqK7G1XFR+jZp3wU4LzlyG5AotpVJMyIDQHEU2QICcrVS7AAekK6OircARFpF9GxJB3RCWaL5SlZGGaShYWIpLZ65BxAD0OKG6oYsOX8VSxVx0LJiOBQMcEuRuMoH6OlELltABRyk66OTbiuAsgUQVMQ2NKboQn3UL2XoXw+qsOB7za/2BAkUgUnFzho5LsXzdpOzCap9Gg4nlNv/rwwCmlst4ZVJoysYK6OMW/72n7NS193wLOZs0Q5LIt2x3qSZpwrSkm00eNg4M6U2AZQ8SnoqzmxH7WMSzv4edUCvzSVs2K/LSTbY06uD6fbyYDU1VfIWZ6me1UzZMBa2jv3r+/Xh447xMh4O8xXlet3eSfTTfJ/hx98=);lineShape=1;strokeColor=default;" vertex="1" parent="1">
          <mxGeometry x="-25.736147504977225" y="500.7809654150401" width="2.5897209988823824" height="10.803113833949803" as="geometry" />
        </mxCell>
        <mxCell id="4sS2UoN6tuE5vPNdZj_S-130" value="" style="shape=stencil(lVfZctswDPwavWJIgudzmv5HZuLUnrpxxnF6/H3BqnQEyNo2b7KMFa5dEJz47nX/8LKbgnu9nE9fdz8Oj5f9xJ+mEA7P+935cJGnie8nvns6nXdfzqe358f598tDt+xP307f+xd+zjgfqLSOCu7X/KYxtfLnzecZcDw8LwCVvFf2pZFz2/ZMJSj7nMnxtr0j1t9PEiGIxw3vw54LjEf+jco+BEph2z548kkBvIcF4kZRZ5woxW37VKjoDDzVBBII1t7BhGu0HZD4wfel/3/rfWUE+Qrs60hvUVEHAN6texYpIherksZCFdS0JXK6aTlQbqBIiSprWicKIKQYRhGvVXLQQ3SWeAJIHvCoEOuQaqMAlMOJvC5rzdRASMyUtPaFKw5ogSXprAGSNOiDeAiaS6WQRyEJEXRIJY663QZkSjrp4qGeRZ5Oh5QbVdQ4bzstAAYeYrRc6h4QlwpFv8oBSDqu9NCrBLiUpE1p1YcMAU1XqXcae2DtoTIkX6xjyi3ZCuZqzJTXekB9kAB0lf6hOOm0mUsCKOhsq4PMi5DQYSUSNbO1lkGWLT2YkGRSOeSBLb2rHyf8JkBrulRIb772dTEq0YnekzbkC2MsbJbVTA2HFSdsrSuJ4mH8MYBEXDUgiaZBSFL1qAExUQPkE4Apq6wqBUyNLnndOF/HAXATkJ0d975RxoMsaA+yzVXQONkUzKrx/uY2wFlNC1kCyMFnqzgZnhmQT2qSV41Dp2hYLcTS+wxGpbQpmCFQ4NTofdXjXqZGxR5MDi3AIdBD0h5ahGUNeejrCshj7b0NSHbMNMxWYU7SnZalDh1ZsqWWagEFVEnI3LSHxaK5xQ3XVi4w+1gLQpZftDv4aA85KRM6Rj1bQcgq28D+8+H7238A5OH9uvh0OB7n2+byf3u9lFfz1ZTvfwM=);lineShape=1;strokeColor=default;" vertex="1" parent="1">
          <mxGeometry x="-22.375898343269228" y="503.65275724159665" width="5.725799782590651" height="4.817288332203524" as="geometry" />
        </mxCell>
        <mxCell id="4sS2UoN6tuE5vPNdZj_S-131" value="" style="shape=stencil(nVdJcttADHwNr6gZYNaz4/zDVZYjVRTJJctZfh8wKioCKDbj3LSgSaDRjcEM8vC2fXrdDBzezqfj182P3fN5O8ingXl32G5Ou7N+GuRxkIeX42nz5XR8Pzxfvr8+jZHjp2/H7+MTfl5wgUIdQRx+XX6okTj8+eXzJX6/O9j4YOJzp55RfO0mPnUqcTk+UxUTz/r8uhwfI5VkAZFCXwboG0q2FVOT5XhJxJYhoQ6en5iSrSBOD7hfMFOMJv5K8d34UqgWFy8gvnZKzdXLoN7WKVpCY6cGXtCVIFuAFGoJAPRvm1FqFIAmYrinugZU11U0tglVWUI5ZUpsAC1QKoCmTMHS1Cpl0Gf1VbZ965ES4DVXijYlZToBmkZhWl5viLuPiFStF5Q4lJNKwdm514np+4BGYsWhTFfQiFgpuZRkGlFLALHa6IFig4BuAdo5AY7WoqPtXEtwBKgjuwMIMcPOuRnQmBjUoENM+gwADKGmz9mnFBGgk1RfdANFS6BSPK0MHCQ6F52WwuSpJUC0+u4MxacpibOcDn/Uh+alofJGo4yL77QaSBCtaVL/DQBqSY+T6gEVeTpMDr4CGmU0XdsspUIZW9R1WgcTGjMKcEeojj4kvvENbhq3SSxLNRSn1usiscSSm0vqBwjgmR+0M6hxiYp4QAR++DAgJ4q207XCQ65cT6grgOG4H0u0fSgBLjPjsuHWPW0lGGSacbdzSZcHdMhVoWbFt7K/adFu29BTDx3UZTY1VF0opVR8H/TEyKBoYcqWVu19WhGfrUFkmuf3/ZCp2TckvLVG8SmNez0QnwLcOb1ycVAAW1q1lYzGDFOxWqoZTw3dZpy88SIag1/JaoM16CLgtsoOM5r7rU+3lYXLjzPDSnzyW8BKPuxPq5V6Z+vhCqFhcuI/dix8UBL/cVldidcPf2/GL7v9/nKxvv3f36T1p8stXB5/Aw==);lineShape=1;strokeColor=default;" vertex="1" parent="1">
          <mxGeometry x="-16.2441606343466" y="502.9557012143241" width="7.415707566055842" height="5.840327877646944" as="geometry" />
        </mxCell>
        <mxCell id="4sS2UoN6tuE5vPNdZj_S-132" value="" style="shape=stencil(nVjZbttADPwavxJ7H89p+h8B4tRG3Thw3OvvO6qxdklZI6RvsszRcsmZWUqb+PC+e3rbboJ7P5+OX7c/98/n3SZ+2oSwf91tT/szrjbxcRMfXo6n7ZfT8fvr8+X329MUOV19O/6YnvDrgnPi3AQK7vflRvVS0t87ny/xh/2rjm8qPjfxmcbr56citbP4mlV8LBLbcnyQ3lV8KNJJfBVXVLxvEstyvI/iowZ4iZEk5CRWXSGaUGgSdEWDxLAcH6tkXSEnhTw/1ZHuLT6QhuUiqZh475fjSx79ucU71oBo63OlyN34VqTofJIkQqCepSXdsE4Z3bs0nRAo5yqhhLtH6k5q2rEH3QOophDWtWo3Xfpo+/2qZqubWqWSFQp4HRSgZXGE19lJ0yl1L4kQY+KlliYq3QkASjSdA4BRz1cJunO90ir5It7sIUsi5PNZiq5SD9II+wCoXgPc0PdSSkkD0PtG6Opn1GiZA/rwkysACiL8Dl6CAURpzMKiLStW8CQlSLhHu4fAuFSGSV8BZRj/fQCoocnXOu0DAEaioHcjXAozX+0oK9t0GX9fAYVKNFwFeQU0yaxxcaaHPjS41OlovNJxNwaZUrRLJHZ+VmtM2ATjxiSIasvkmR1DcialONZcFLXRqF9LyRuNtuELS5v2hn2FcgPWZ/YABTFRw1yzrhI0SseMIHkm6s7Y91FAmmkUR5AngFztpqujAJyBXnOpeDpMVsxWOqWcxvRx/9yF5LQgEsyVnIpokzPzaqI+0+AqenaAGTLrw7xkDgiQJRDyYSBL/SMATHw1WACbuTFSGvue+EtcI4JLZsblQyiMKZuxPlPyQdNmqoyYM5mRBWsC4G/jgKypsfLmM19h5dUKAOOt6D2bEvEm0nSVMAayAwIAc6JAooHNxrMF2mjMfXbbGtU+7iy9jRkXc3wIte8+K/HJPn8ln2CVsLLfGU1X6ulmz+cNgx9q3aww4j/e5lficXH7dPCyPxwuXx7+/d9+asCty2eK+PgH);lineShape=1;strokeColor=default;" vertex="1" parent="1">
          <mxGeometry x="-8.465318110602539" y="504.75500178643983" width="7.831643200958362" height="5.845659081771503" as="geometry" />
        </mxCell>
        <mxCell id="4sS2UoN6tuE5vPNdZj_S-133" value="" style="shape=stencil(lVbbbtswDP0avx6Ioq7PXfcfBZouxrKkSNNd/n40PLWRotERkAdH5jHJw0NSEz+87Z9ed5M1b5fz6fvu1/x82U/8ZbJ2Pu535/kiTxM/Tvzwcjrvvp1P78fn9f/r02K5PP04/Vy+8HvFkTEwZoFZ82c98lj+ye/rCjjMxytAzgixsqcM4xRAROIKwA7ECsCDQh2RQcgKgEvEBRDEZ1A9+DqHvJE0g1INCIj+/4AUYBsPCaR4iLch5eKzCwgWlFtAUmh1Eb6uw1XtuwjmUqcrF/+K3wVYA2/arJMCIIPsa0BUS+1vHAjRSh0cYmP/cdKvG0ITj2hLsaeAXEsvUznpUyQeanFn4UCps7MI3AKcRlEEpxFAJLAfCSkxTB5JWl5zuKGV1AblobrJ6zFhpI+hdafyYi4k3qntEMoMurN7vIWrAZsNKmPOtC60GSD94GwL0KYMMaJtsyalcpI03QxKZTtIQI26vaqMrr0iPfFeN8PGanBItSw2do9M4Xpsbyw3A26GsL49B7czwdWtzMhKth6xjsYWuvpft/A1m1Q+0CeHEOroDZJCJtt2a5oyB/rF4jKnPu21fvEBhgfsRSuxtdfiiQmOBvJNsVWzzqdMuYYfvV7Sq35EDsOXwTsA8vB593yZD4f16nr9vr2rytF6z+XHvw==);lineShape=1;strokeColor=default;" vertex="1" parent="1">
          <mxGeometry x="35.99664393107446" y="490.2850193354466" width="0.7496669369580299" height="7.1303197053364" as="geometry" />
        </mxCell>
        <mxCell id="4sS2UoN6tuE5vPNdZj_S-134" value="" style="shape=stencil(lVbLbhsxDPyavQ5EUs9zmv5HgDi1UdcOHKdt/j7cLmSHipdFbvJ6RhSH5EiT3L1sH543E4eX8+n4c/Nn93jeTvJtYt4dtpvT7qyrSe4nuXs6njY/TsfXw+Py+/lhRs6rX8ff8w5/F15GCTOJw9vyQQhB/n35vuD3u8MHPAuCJXAE5XVClDECFaS4TmiMKoYQesjb+IiWB3z18BnN7h9RycFXJIsnQvYCNKRmJQqIZZ1AIYyiijKqG6KwzSH0oGtJlGIJuoVT51bAVtWUu863CQkSDSETkqergG0OmdE8AoFojBAcQm3gOObgEkrvhItKFdFRqeax96QhOIVTQqm2N6qbtB6JbTNR83PQE9ukSXvJkzWMskZ/3hhk6+Z3t84nj/NJHj5D7HkE5PlFRUgGrwJ5+7dxfzUk8QI0NKsoF7fISqi2ZqJV9AlkU4gZ1Ru2T42a1MTYFTUMsxMg3vzL6JI6na5NfpUQ1bdtH9XYnfb21RNHlWbrdwilS3KdBP8qyb1xLgEashMgQmydm19nFWTYX29Tx7X1nrFFu7rBTXxAtuZSQ/fYFTzZkhWGOPp8uqayFt09z+BdKfVraAXf7PnVfslpIUawgxkJ0RkbQRyu2Qz2WrRnd8EzsnP+rz6m/o/XxfXl9rTb75eH38f/x5eeflpeiXL/Dg==);lineShape=1;strokeColor=default;" vertex="1" parent="1">
          <mxGeometry x="16.791185012398955" y="507.7646702878935" width="5.23710990701589" height="1.1005506705818593" as="geometry" />
        </mxCell>
        <mxCell id="4sS2UoN6tuE5vPNdZj_S-135" value="" style="shape=stencil(nVfLbttADPwaXYl9L/ecpv8RIE4t1LUDx22Tvy9VQapIRSO4N1nmaDkkh+R28eHt+PR66IJ7u10v3w+/++fbsYtfuhD68/Fw7W/y1MXHLj68XK6Hb9fLz/Pz+Pv1abAcnn5cfg1feB9xNVDMAyq4j/FNppz+vvg62p/6s7Z3Tdn7TCUCgKfGCiAnxAIB1StAzNObLUDRFNIOB0+cNOdEkSHp4b8FoEgYAgBUqtql6ojBCS1R0KRro9K2Ad45ck4hmifvthHMlHQi2uzlZlw1YHHo5yyIowJwg3HN5Kq2Z3IgcX4KyWxfKAB/xFudBU7w+46iDilLLYIkBEqaryStAn/KKsmVWgV8PQVdqLVAh3wl5y0ggAwIheYsIAMKgW2MhEMCUojBqrMyNZAEUbupU3bU0AmzxzMgkgctSU4oOkqcpy64xcFEiSsESJQMaansBnpYiKvSa7BhSKZN7TVHHrgktVRW4kQdRqIaLIWMOFPRtSriZNDnRWxGzIkqYLzqdxxgl/cr/x2cO2lS1qJOE4hPo1SsEDxIscxJ041EahGoXxi3sgIAxpKystIm6ndDjts9gJLtCXtFJB3MZDlQBaRTnYI+uxSpAjGnOE295WzGANNfdqa/AIoeUzv7xQC4a4MRQNTa2dmRBBC0mHe2sBRsLe1SMOpMcNKmZBueHAiaRZJS1f7MO9nn9rJI6JA6+P0sozkb+whmSM7EzdijTSc3236xvdQk1zv8KcUOcsy38H3xlHXU1DTO17DFa764Hv7jWrFjLw//7jAv/ek0XoGW/9s7j7wa70vx8Q8=);lineShape=1;strokeColor=default;" vertex="1" parent="1">
          <mxGeometry x="23.548245704081182" y="504.3600349744313" width="3.2116871842354158" height="8.460889415625518" as="geometry" />
        </mxCell>
        <mxCell id="4sS2UoN6tuE5vPNdZj_S-136" value="" style="shape=stencil(lVbLbttADPwaXYnlvnnO4z8CxKmFOnbgOGn796UqrCyuoylyk+UZLYcccjmEu/f909tu8O79cj793P0any/7IdwP3o/H/e48XvRpCA9DuHs5nXc/zqeP4/P8++1pQk5Pr6fP6Qu/Z16iLBPJuz/zi5yoxn9vHmf8YTyu8FyosiEkoSLbhODIF0tgEr9NiImCDSkyMQgpM9VqCL5SLdsEcZScITAFB/CecjJ4Rw7hI9UeH1E8+UYA5QzwlZKtQaYAEiRCyWaUNaMBFNktAhdGpgSKpkd0PtKcSoIaij1BRVREKC3kRlBnFQaERGyrEAIx0uBbxCsC6gX1UbGig6dStwl18eVKgwOVroVil6VEgghaJpsl9Z6ALCkh2JA4UQR1UIJY87GDZlLR3E0MaKUqLenXbmBUZ+4D0omDqhabC654aItM3qaUqWBnO/v9SIK6X9rwaXihiLtZbH44tubbInSumxTjiPjGdQGVoLROXAg6ctAJqa+xdk5CI/W7hJz7CZYdLFvUrNshXCIk6HAo1hfaraiZNevBnjBdFKhziDu8wIhyfy2s5vjXmqnm/gCPJFOwirXwCQjwfScIbgUdVZ1ghs52fedoBQTovbnVamjbzAa+64Mi8GJ2lDt8arfc1/dsWwsWvIebzrIWLJ7WeoH4I7luuVOHgvx/dxn8P14frpvny3g4zIvr+v9+U9VX85YbHv4C);lineShape=1;strokeColor=default;" vertex="1" parent="1">
          <mxGeometry x="22.70202516264567" y="504.67333759396615" width="5.944978060472359" height="2.3960157351741924" as="geometry" />
        </mxCell>
        <mxCell id="4sS2UoN6tuE5vPNdZj_S-137" value="" style="shape=stencil(lVdbctswDDyNfjEkwAf4nab3yEycWlPXzjhOH7cvVA1dg5Rg60+mdwlg8SA50NPH/uV9N6D7uJxP33e/xtfLfqAvA+J43O/O40W+Bnoe6OntdN59O58+j6/z7/eXCTl9/Tj9nHb4PfO8gxgnFro/84qDEP4tfJ3xh/F4g8cA5Bs85XV8SOCwwTu3jk8JEit8BB/X8ZmhaP99AcZ1Agco2iEsgAahEKSsCEFCJoNQwDsdQgbP6wTvrppURg6QjCyITyEpgqyQYYI9sCbcGF1OBEPWPklc0TARHWBRBBZCWidQrPtdo07gjVqKEHTpEZq6Bgg6cch1ZQVfgsaHqsGyRJC1pugBjYAL5KZUGaKxv6dWIC8mjVL1ucuyKOqNbhYBwxYLkoOSt8QgkpdNIpGDzFuyQLKflvVOmsUCbaoj2c9pl6R0gzEBJo+1SiSZKQZBgtZ5oFK7aTnTqeuFYtcSApImiErWxKgD6IpPQMYgljnfOETmlJQBp/2Z2mMTPtZ2XfOnGfMIZOC7eOUcIavXOkGl+/ymlE3NaZWd6+ZFMof8VHbcupStsusKW2yikeSpdRpVySy7vtfuEGI3kWIEZ8SQHLC2kKQwDEJGYJ24XOpQWyZQFfFqIQMZMWTf9oKcjdEYw0lOKp3p4CEazSAXCmxkZbMbQj+3S71CPHjPE4KVh/4iORGMGLgVSU6SbHgUITX4XI+W5dKrdXbTPckKALjBx+rhIt51/pAZb3fHE8XY6LUOz9XgY+4k84jqor2W4GNiYj3hHsyV2fRdKcjkM0Ld+ma5j5eP/w+kt/FwmN9Xt/+3DypZmh9j9PwX);lineShape=1;strokeColor=default;" vertex="1" parent="1">
          <mxGeometry x="29.924930043106087" y="504.29743453140804" width="4.7750327685994955" height="5.458222917854463" as="geometry" />
        </mxCell>
        <mxCell id="4sS2UoN6tuE5vPNdZj_S-138" value="" style="shape=stencil(7VnJbhUxEPyad225vfvM8h9IBPJESFAI299T5uFh3DNTASQOSLm9TLpm7F6qq+1TePbx+tWHq5N3Hx/u795dfTm/frg+hecn78+311f35wf8OoUXp/Dszd391dv7u0+3ry9/f3jVLfuv93ef+xu+XnDqJeaO8u7b5UlzUi5PXl4AN+fbFaBK8ZN9DZL8sX2SpJN9KaLEPoib35+bxHpsrxLm9WfsqDF7H2d7J80xe+Of1CSQ9XtxYbYvUiOz//n1xT5LSsf2cfN+eDgw/4c020epxD5LadY+Ef9U8Zv3J5I/TXK29o3FC+GJdsOFJQQisPFo5YBqANgUcZEG8cXmRCEx02aXlPEF4lRE+WfOL1WTxSkBFGmmLBMHNNE5zqj7RjYNQJj30LyUQgFurvyGzCCRRiqFObVbFk8Ch03bJRUprNaStDlwrUplS0Ic5uRryF8SaZRzmQOnzo3g7yNUXLOfoIQEPiwWEEggtFpKxa4joTBFvXjrV2UFkUbqLIBESQCAaL4QRhEessC86RqHGw5ossy0VCJtU87ao404EmgnOqdebJTGnGWAUCWT+gyW5vGkMRJzEuZMRRQzCQHyrs4eVZVMdhDKyLLFpSMm+40HtGo6gyjZcc42BJ42HugI0xicRBIxEGJWY88KE+RjlEsWZY2tji6zONRTNupUMgOwosQBbaYKUCbTCivuWaVdJEHAJ+r8CeQ1qwMA1LTnOlrRPqCIN4KtcsEQLLmgF3rmJmx69mv1tNtWUPBGA7PGU9xoZCv6YrUQ49CMq15YSRyit14CgGV3dDuMGlg5V5tMTamIAUDneqjtMcIwBVGLRNJGwkYAoGY9I0m0wjm9MYx4kkvwUjNL0qF3j+LQzKbxChaHaN0KQCX1EPMGoLQ7x+0E5mkcemcym+aSPrmhcRZApqpnB8BJIG6YDMnnWAFh00ZheCrqY9lRn4y+Y9oBMH3bUyNYAPNSVEvGXfQQL/X0VrvpwEvUiAAQWSSR7iVqkq+OueB3SSDRsaHTjEm+MITHIZGZL4ALWS55O9GjgJSXqN+UKJso/xiAjmY6OwDsUKKk0WSXHldpQ+ktayYB6NtCqBIVbAaTnGiJIhHMmJEKB0AJzIAuHcim66YDIVmYRgegGlFc6agEQJlTox/nMI24DP4rUcwAZVuitInmZYerD7D66ac1c2b02YmxvbPKAQMjOyCCrDXHH55LDcyTLdsw0HkyDm5fAh2oINOFqpdUikPTHQEM8cFvhS+pmmNAP+T+0dTtZy9BBNL5ytvxBLI1MkC2J40gPno48XSE8wPwdITzfxzhhDHxrFQlO0lvlir7xM/a9BguFnulE9DTzcFf3ByQ9TzdHPyDm4NozzIg25hTdTlMWVUN86pf1PVqOqyP8KOZ0jOd0nuimi+Ux1qnyaSuLVnl+J25h3Vz1GY2bUfHrvYBaPaG7TwFdIo3SwqPqSrdANhFnW50W+OT1S/huALQ48M4evdq05Txgi1puJWdlvzx7fNvAPDj12X3m/PNzeWufP1/ezmOR5eL9fDiOw==);lineShape=1;strokeColor=default;" vertex="1" parent="1">
          <mxGeometry x="37.57442111070054" y="502.2553451036613" width="8.880422067152852" height="8.137005356487732" as="geometry" />
        </mxCell>
        <mxCell id="4sS2UoN6tuE5vPNdZj_S-139" value="" style="shape=stencil(lVjbctpADP0aXjXa++5zmv5HZkIKUwoZQnr5+8pllngl+9C8GaPj1eVIOvYmPLztnl63G89vl/Pp+/bX/vmy24QvG+/3x932vL/I1SY8bsLDy+m8/XY+vR+fr79fnybL6erH6ef0hN9XXGtU64Ty/Od6hymlfze+Xu0P++PcPlF2g72nFNftayPmwV4eAJ5fmab/ZvaOies6oIi/YQQkauCE7IjjGIGnzOuA5MmPJ/hGpawDYqAy5igUCn4dEBKFERBjf8QiwBdKZcyqo5wBQJLYRkAlBie4QG3MUg4UQR1ap8HNvvZKLpehP63bF0+xgSqQGwMoGRI16aIJsxL2Z/S/RgqgyJVcGu1rT/FyQqUCeQA0RxHQznkDiD0HayVLI4tapgB604nHY6/JNIggpwJwBpCQS4WaAZQAATFoQEUuZd1rAmgo6ETVuNRQDJHq2GuOuQ+11d5J5gjQnQJw2UQNmk24karJK2CrAHzRgIzSJADjUsJ0TeYE1EBT0FEDPM5SM9xwKEuxU2cOuMMNNgDMvtxMDChLwm/DPn+ngwy/Ixrciz2Km9pOgYzSWigbQEUuZWqGGg0DnKl0Qy6Z7XC3RyN526PoiNCn9f8G4akYfsM0+T6t54VA3PgsoFJQMWfIJambCjn2MbIsfKiqbpAVh1SJ5oXsUNifeibJjkYrlLXSu6MBWGvVSWOgimnZNmkYYC+KYsxPvjXrSr3UOBINFtCEjHrxpAL3iL/5O9ORSM4H1kNblGoCJ4TaMz7TwmhCxkJs1HYGkiHJ0FYAD1VMFrU9plXGB1qeJfbJcON1lwTLZRP9r995EC2aJHXsA989XLaPug/4nn1Kyt4jf0y83Ofx2juhegW7ad1l+9zX9swetIHYKwWGZ3srWh0xfNdp1eaTQROIfTX2YOx+CKFZPlF+mt4c3JfVmn3T9Q1o47MZdAw75tMfCe7ay8XHF4mX/eFw/aAx/19/wZBb168f4fEv);lineShape=1;strokeColor=default;" vertex="1" parent="1">
          <mxGeometry x="2.3631395951069862" y="461.0772845517639" width="11.017020744676952" height="75.69437017309052" as="geometry" />
        </mxCell>
        <mxCell id="4sS2UoN6tuE5vPNdZj_S-140" value="" style="shape=stencil(lVzbkhy3Df2afWXxfnmWnf9QleVoK7KkkpXE/vuA2eLs8IB9MPO2GuF0kyAIHIBgv6QPf37++P3TS/R//vzx7V+f/vv628/PL+mXlxhfv37+9OP1p/z1kn59SR9+//bj0z9/fPv319/e/v3945Scf/3x7T/zCX+94cZwY0xU9H+//RJdDv//4R9v8l9ev+7yuW3y2flK5LvraZOvrnYqH3b54F0cBNBcrDsgu8ZmUF0KO2C4xN5QlkZuKsouZgLIruxziPKGSADJdb8BkryhUUAEQHejEEB0bR9STnwOcenkBmhrZa4AoW+A4l1jao3OAyC7zLQkgLID+vrlEgC2F1z1HLBPumY32DrIpAFgDintC9e862z/xKWTGyBZWiq7llpZa39pGnkHNNf5HMa+49rge1pZaw8ucPPO+5B6XL9cASoA5BHM+GTH7Wrt2SW2DsmN3Vp7sZyA37XUq/Ns0tmFgIDG1CoAmHRzhZlGXlq/Afqy3ytALAig1ipKhDcMV/ik876Bhrh7Zq3Z1YgAY0jg+eYu51pq+8JN++VDah4BxpDybkvvEePSvGFIhceHiEFRAIMFRe/yvtISJitxAmIIEEUlECdirWLM2SOA+VbZkBUWrtMtKj4CoqgAKgN4VwICBlkHcYzgW4UORfIG8dUjIqAQr1HHCuN3AOa9a3VBvaGTdagRXeWkgGRIRZ7XFIAsXJHwod9AhlSEkaWnAOUw6UEcWUkYsoL3zhMqUERN4TmEX1p5cFB5INW1AO1ZQFkR51FAQoplAQJGOQOQxrOAhjTRAhQkcRYgYVi0AGFlJA8ChP5jlDMATbkyA1BPaiUOX1KYpLZQI25A8kJ0loOyjehdVWqNZFeHvljkHSCQOYS6uMUdwJM5hFvedg9gbwjoBSaAZRBqGTpdt6qoA5fX3ITLJ+RjhrykJ2r/UwWpGD1o/uPVRujU6rzay7fgciUP61UXSb6SV9SN8VUt7435esXpA9kDflHT+8SHP3/Xf+P2qeVlPFwecsO03MCD8oHuSCUv+XMldEfL12UhD8rL+Kn+gVjUYNhP3OULr8N4ZDpCllgyomj5pD50vmW3T2E+iY4HKlUlWPK7Pt9JzIPydXmwB+XzyjMelA+GfwD5NGidQMs3GsM8VkfTjape2QPIR+qfPeZ1yRv+CkoEkSddHslWLKt2cyW/j2dGEP783Z4DZx1avtFKqpYva4c+KJ9oLVjLBzeofgJmETSd84pvuMY41ipM3MLFynPOKcoqGryLR1boQ7LRVvHyzAXKKgC8l/qZrxLyAMZcaOySx41dObfs+sx9IvL6RGNdUulVpLm6uBrI1eWFRJ3i+iDzDrTOKq4YglFwmdiOhAYoyXiepw8kG36VN64qB0qeVUBr1uNh+q9lFV/e5Rl3qA2DqaextA7Mhj3ltkJdwJ55AaBlJAOGfEPn7GmBeFbZPeqTFdDCojp360X2Y09Ibj09CuyH+WZWbiuYEPpVBz3Lt1Xuu5Nn4x9avrBcLaxQ/qB8xP1uyBckV4GfDRUsbQfKHYbSZ6CxTuQh2QxrA10+v4M8y0WmPM6X+ZOpHwimlPvPc1glz85HCvqHsBRwJR9R/8bzlX+uXP9IHmh8GQX3I/f/I+NRfuCnzgX9udgPOyMoSA4DLc9M/aB9Mn8+9Y/Pp7WWgkfUnnLnaW+oT8/traA+Wa457b+ifgx5tV58vkqetmqUdYJzZ2/cHgrqv/LnZyXPDqUKJjv2fkR9Vq7PoPwDt7fn5JX/N/yzii9cXscvQ75hsc6QP9mnEd/VfmHxOq5zpMf2Vw+YXHtashb+o/hMN/gV8kNmbyf+xvz5iR+y+DX551Pysr6oH2afkz8jP2H7cfJzlGfJZlXdMfzkfeYX6K9Y7bOo/DEsB3yZH0GxgvKrXJHPxFWtOctHjL+R9mPM0hA0ZblA9CP5acT8lCb7DYu3mfKHGU52/Rdqb5K/wwlPXU0yF+WBAa1MtPRZFnm5q1WwbB+D9aDGEJaq7wotvPDWCsozZ6IOs8zCD8pbhSWUtwpXKG8VxlCe9xV4tVeswh7kFtEqVENtaVoPLQT2fTzJU+P3yIVTpKWxgL5qFm5ZsQvtzSgMa3leeFbyRmFby/PCuZbnhXktP+jBSEBuZRwsBIzVJVF7C1jLkejBmrQ8NoDMgxd6EAE9LPNghxb+oYmyBur81X40D6ZQ3jr4QnnrYA32u3lwh/LWwSDKWwePkOuYB5vgf8yD0/bkwSys7+DFSZGHg3fRzzP2Nvj6BnXQ3Wm80wf1nSabuhGgLzZ6JjOHRgPWrHdqZGDyp0YJ2q+rOp869ye608MAqN7YCWArVrGcIADWyR26srlOY8bBSHkD5CRZHQGUlGWk6LNFh3HWemjGYkXoY+cTW+hjbxUDHLu3KODUH0YBpw40Cjj1uFHAqYuObrdTnx4FnDoBKeDUa0gBp25GCjj1SzLAsSOTkRDd9GkBVF+pBTh1rlLAqTeWTrrhhSvrDWNl8fcAVmeIqgV/UK5Zb6H+3gkYXdDqDaz0JOQDe5S768TNtIaNGtNVEs/XPaavAmCt38I/sJvR7HfPFQGs3jMZiwIwDtw7FhBmkz+rwOr2u+I6KwkH5b0zr8knvFs3jPuESW1R4yKbBkR+DyepoBisIaEt+XXX4QoAhd4++JXFpBo3eKPHBAQEsD6eCdh33LxLxK+kYOtJ5aaRsPd22q/xBphDoY5sJHQzPdMD5hGxSNCTdT8QfKvscsbq52U8eEOgXmMo3i15T+OX8SCgiGujN30CdlnM+4FsSGpPzxuIbEhB5XqeOmMBFJWs0i0acMfNe5pspQO6GesmaMBrl/OuKXMzAb33vM3K16EAwFvrACllbjQoTtPYJ50Tv3ap0oHUV1y93HEAyNbFTmjhEvpOz5zzukN8A2SzKQIOHfgVrRkC95WWzI5VmiXIQsIReB/O6OqSMD+H7Xg31bhOOLDPKnKdDvQxkTvigTf3Io+H6hMBkfZZvV+JuymUX7oeus+EBsOBtR5bHs+tqHNRBDryvgLFbiPvKxiYxkRaWjx90oExpLuLbe8A2hj0/DcjDHn54/0DFb+/fvny9n2L+//HD1rIT28fw0i//g8=);lineShape=1;strokeColor=default;" vertex="1" parent="1">
          <mxGeometry x="9.985946854063513" y="457.00121126149054" width="92.07991733470251" height="91.55487387457379" as="geometry" />
        </mxCell>
        <mxCell id="4sS2UoN6tuE5vPNdZj_S-141" value="当太阳照射坐标不变&amp;nbsp; 始终为0 时" style="text;html=1;align=center;verticalAlign=middle;resizable=0;points=[];autosize=1;strokeColor=none;fillColor=none;fontSize=16;" vertex="1" parent="1">
          <mxGeometry x="279.5" y="603.5" width="248" height="31" as="geometry" />
        </mxCell>
        <mxCell id="4sS2UoN6tuE5vPNdZj_S-142" value="有1.随着地块X坐标的不断变大 地块的预备亮度开始不短缩小" style="text;html=1;align=center;verticalAlign=middle;resizable=0;points=[];autosize=1;strokeColor=none;fillColor=none;fontSize=16;" vertex="1" parent="1">
          <mxGeometry x="88.62" y="683" width="446" height="31" as="geometry" />
        </mxCell>
        <mxCell id="4sS2UoN6tuE5vPNdZj_S-143" value="当预备亮度小于一定值后进入黑夜 反之 大于进入白天" style="text;html=1;align=center;verticalAlign=middle;resizable=0;points=[];autosize=1;strokeColor=none;fillColor=none;fontSize=16;" vertex="1" parent="1">
          <mxGeometry x="699" y="585.4" width="395" height="31" as="geometry" />
        </mxCell>
        <mxCell id="4sS2UoN6tuE5vPNdZj_S-145" style="edgeStyle=none;curved=1;rounded=0;orthogonalLoop=1;jettySize=auto;html=1;entryX=0.565;entryY=0.194;entryDx=0;entryDy=0;entryPerimeter=0;fontSize=12;startSize=8;endSize=8;" edge="1" parent="1" source="4sS2UoN6tuE5vPNdZj_S-141" target="4sS2UoN6tuE5vPNdZj_S-142">
          <mxGeometry relative="1" as="geometry" />
        </mxCell>
        <mxCell id="4sS2UoN6tuE5vPNdZj_S-148" value="当地块坐标不变 太阳照射坐标开始向东移动" style="text;html=1;align=center;verticalAlign=middle;resizable=0;points=[];autosize=1;strokeColor=none;fillColor=none;fontSize=16;" vertex="1" parent="1">
          <mxGeometry x="467" y="634.5" width="326" height="31" as="geometry" />
        </mxCell>
      </root>
    </mxGraphModel>
  </diagram>
  <diagram id="utd2eGjoIBiCidVB50__" name="第 2 页">
    <mxGraphModel dx="1548" dy="953" grid="0" gridSize="10" guides="1" tooltips="1" connect="1" arrows="1" fold="1" page="0" pageScale="1" pageWidth="1000" pageHeight="1000" math="0" shadow="0">
      <root>
        <mxCell id="0" />
        <mxCell id="1" parent="0" />
      </root>
    </mxGraphModel>
  </diagram>
</mxfile>
